<?xml version="1.0" encoding="iso-8859-1"?>
<!-- Generator: Adobe Illustrator 19.0.0, SVG Export Plug-In . SVG Version: 6.00 Build 0)  -->
<svg version="1.1" id="Capa_1" xmlns="http://www.w3.org/2000/svg" xmlns:xlink="http://www.w3.org/1999/xlink" x="0px" y="0px"
	 viewBox="0 0 512 512" style="enable-background:new 0 0 512 512;" xml:space="preserve">
<g>
	<path style="fill:#455A64;" d="M181.396,106.667c-5.891,0-10.667-4.776-10.667-10.667V10.667C170.729,4.776,175.505,0,181.396,0
		c5.891,0,10.667,4.776,10.667,10.667V96C192.062,101.891,187.287,106.667,181.396,106.667z"/>
	<path style="fill:#455A64;" d="M330.729,106.667c-5.891,0-10.667-4.776-10.667-10.667V10.667C320.062,4.776,324.838,0,330.729,0
		s10.667,4.776,10.667,10.667V96C341.396,101.891,336.62,106.667,330.729,106.667z"/>
</g>
<path style="fill:#CFD8DC;" d="M425.641,453.973c-0.704-1.408-69.483-142.635-82.283-212.075c-1.071-5.793-6.635-9.621-12.428-8.55
	c-1.498,0.277-2.92,0.872-4.169,1.744l-2.283,1.6c-42.026,25.775-94.974,25.734-136.96-0.107l-2.133-1.493
	c-4.829-3.374-11.479-2.193-14.853,2.636c-0.873,1.249-1.467,2.671-1.744,4.169c-12.8,69.419-81.6,210.667-82.987,213.888
	c-1.548,7.379,0.423,15.058,5.333,20.779C108.862,500.075,164.457,512,256.062,512s147.2-11.925,164.928-35.435
	C426.321,470.335,428.077,461.803,425.641,453.973z"/>
<path style="fill:#F44336;" d="M362.366,93.291c-1.23-4.684-5.461-7.951-10.304-7.957c-37.263,1.498-72.146,18.715-96,47.381
	c-23.854-28.666-58.737-45.883-96-47.381c-4.843,0.006-9.074,3.273-10.304,7.957c-13.333,50.688-2.261,70.123,8.533,88.896
	c8.275,12.361,12.611,26.939,12.437,41.813c-0.241,6.655-0.954,13.285-2.133,19.84c0.001,3.486,1.706,6.752,4.565,8.747l1.984,1.365
	c24.106,15.539,52.239,23.668,80.917,23.381c28.621,0.339,56.709-7.747,80.768-23.253l2.133-1.493
	c2.867-2.803,4.463-6.657,4.416-10.667c-1.148-5.909-1.812-11.903-1.984-17.92c-0.138-14.878,4.236-29.449,12.544-41.792
	C364.628,163.413,375.7,144,362.366,93.291z"/>
<path d="M256.062,512c-91.733,0-147.2-11.925-164.949-35.456c-4.906-5.723-6.869-13.403-5.312-20.779
	c1.515-3.499,84.928-174.912,84.928-231.765c0.15-14.906-4.224-29.508-12.544-41.877c-10.667-18.773-21.739-38.187-8.533-88.832
	c1.24-4.723,5.528-8,10.411-7.957c37.263,1.498,72.146,18.715,96,47.381c23.854-28.666,58.737-45.883,96-47.381
	c4.843,0.006,9.074,3.273,10.304,7.957c13.312,50.645,2.261,70.059-8.533,88.832c-8.282,12.382-12.619,26.982-12.437,41.877
	c0,56.853,83.413,228.267,84.245,229.995c2.438,7.819,0.69,16.343-4.629,22.571C403.262,500.075,347.796,512,256.062,512z
	 M106.729,461.056c1.792,4.373,18.176,29.611,149.333,29.611s147.52-25.237,149.333-29.611
	C394.878,439.317,320.062,282.667,320.062,224c-0.141-18.605,5.193-36.841,15.339-52.437c12.558-19.05,15.65-42.819,8.384-64.448
	c-38.827,4.075-77.056,35.477-77.056,52.885c0,5.891-4.776,10.667-10.667,10.667c-5.891,0-10.667-4.776-10.667-10.667
	c0-17.408-38.229-48.811-77.056-52.885c-7.266,21.629-4.174,45.398,8.384,64.448c10.145,15.596,15.48,33.832,15.339,52.437
	C192.062,282.667,117.268,439.317,106.729,461.056z"/>
<path d="M256.062,277.333c-28.698,0.29-56.847-7.871-80.939-23.467c-4.694-3.559-5.615-10.25-2.055-14.944
	c3.447-4.546,9.861-5.575,14.557-2.336c41.984,25.75,94.869,25.75,136.853,0c4.849-3.345,11.492-2.126,14.837,2.723
	c3.24,4.696,2.21,11.11-2.336,14.557C312.894,269.459,284.753,277.62,256.062,277.333z"/>
<path d="M181.396,106.667c-5.891,0-10.667-4.776-10.667-10.667V10.667C170.729,4.776,175.505,0,181.396,0
	c5.891,0,10.667,4.776,10.667,10.667V96C192.062,101.891,187.287,106.667,181.396,106.667z"/>
<path d="M330.729,106.667c-5.891,0-10.667-4.776-10.667-10.667V10.667C320.062,4.776,324.838,0,330.729,0
	s10.667,4.776,10.667,10.667V96C341.396,101.891,336.62,106.667,330.729,106.667z"/>
<g>
</g>
<g>
</g>
<g>
</g>
<g>
</g>
<g>
</g>
<g>
</g>
<g>
</g>
<g>
</g>
<g>
</g>
<g>
</g>
<g>
</g>
<g>
</g>
<g>
</g>
<g>
</g>
<g>
</g>
</svg>
