<?xml version="1.0" encoding="iso-8859-1"?>
<!-- Generator: Adobe Illustrator 19.0.0, SVG Export Plug-In . SVG Version: 6.00 Build 0)  -->
<svg version="1.1" id="Capa_1" xmlns="http://www.w3.org/2000/svg" xmlns:xlink="http://www.w3.org/1999/xlink" x="0px" y="0px"
	 viewBox="0 0 490.667 490.667" style="enable-background:new 0 0 490.667 490.667;" xml:space="preserve">
<path style="fill:#FFC107;" d="M486.571,235.797c-2.551-2.082-5.921-2.87-9.131-2.133c-7.697,2.442-16.101,0.986-22.528-3.904
	c-18.987-15.211-28.245-65.941-28.245-155.093C426.667,68.776,421.891,64,416,64H74.667C68.776,64,64,68.776,64,74.667
	c0,89.173-9.237,139.904-28.224,155.093c-6.44,4.877-14.844,6.332-22.549,3.904c-5.746-1.298-11.457,2.308-12.754,8.055
	c-0.193,0.857-0.28,1.734-0.259,2.612c1.707,69.76,20.416,209.835,21.333,215.765c0.709,5.247,5.159,9.179,10.453,9.237h170.667
	c5.159,0,9.578-3.692,10.496-8.768l32.171-176.939l32.171,176.939c0.918,5.076,5.337,8.768,10.496,8.768h170.667
	c5.382,0.047,9.956-3.923,10.667-9.259c0.811-5.931,19.52-146.219,21.333-215.765C490.701,240.989,489.186,237.843,486.571,235.797z
	"/>
<g>
	<path style="fill:#FFA000;" d="M74.667,64H32c-4.981,0.007-9.294,3.461-10.389,8.32C9.561,125.679,2.329,180.013,0,234.667
		c0,3.2,0,6.656,0.235,10.091c0.31,4.717,3.687,8.667,8.299,9.707c4.247,0.981,8.59,1.489,12.949,1.515
		c10.029,0.114,19.784-3.273,27.584-9.579c25.429-20.267,36.267-71.659,36.267-171.733C85.333,68.776,80.558,64,74.667,64z"/>
	<path style="fill:#FFA000;" d="M469.056,72.32c-1.096-4.859-5.408-8.313-10.389-8.32H416c-5.891,0-10.667,4.776-10.667,10.667
		c0,100.053,10.859,151.467,36.267,171.733c7.805,6.31,17.569,9.698,27.605,9.579c4.352-0.025,8.688-0.533,12.928-1.515
		c4.637-1.138,7.998-5.155,8.299-9.92c0.235-3.456,0.235-6.656,0.235-9.856C488.339,180.028,481.107,125.686,469.056,72.32z"/>
</g>
<path style="fill:#F57F17;" d="M32,21.333h426.667c5.891,0,10.667,4.776,10.667,10.667v42.667c0,5.891-4.776,10.667-10.667,10.667
	H32c-5.891,0-10.667-4.776-10.667-10.667V32C21.333,26.109,26.109,21.333,32,21.333z"/>
<path d="M21.333,256c-5.891,0-10.667-4.776-10.667-10.667c0-5.891,4.776-10.667,10.667-10.667c29.099,0,42.667-50.837,42.667-160
	C64,68.776,68.776,64,74.667,64s10.667,4.776,10.667,10.667C85.333,168.853,77.589,256,21.333,256z"/>
<path d="M458.667,469.333H288c-5.152,0.002-9.569-3.679-10.496-8.747l-32.171-176.96l-32.171,176.96
	c-0.927,5.068-5.344,8.748-10.496,8.747H32c-5.382,0.047-9.956-3.923-10.667-9.259C20.459,453.675,0,300.075,0,234.667
	c2.255-54.256,9.395-108.199,21.333-161.173V32c0-5.891,4.776-10.667,10.667-10.667h426.667c5.891,0,10.667,4.776,10.667,10.667
	v41.493c11.938,52.975,19.078,106.917,21.333,161.173c0,65.323-20.544,218.923-21.333,225.408
	C468.623,465.41,464.049,469.38,458.667,469.333z M296.896,448h152.405c4.501-34.795,20.011-158.464,20.011-213.333
	c-2.416-53.065-9.468-105.817-21.077-157.653c-0.166-0.771-0.245-1.558-0.235-2.347v-32H42.667v32
	c0.003,0.789-0.083,1.577-0.256,2.347c-11.609,51.836-18.662,104.588-21.077,157.653c0,54.891,15.509,178.56,20.011,213.333h152.427
	l41.088-225.92c1.082-5.791,6.653-9.609,12.444-8.527c4.33,0.809,7.718,4.196,8.527,8.527L296.896,448z"/>
<path d="M458.667,85.333H32c-5.891,0-10.667-4.776-10.667-10.667C21.333,68.776,26.109,64,32,64h426.667
	c5.891,0,10.667,4.776,10.667,10.667C469.333,80.558,464.558,85.333,458.667,85.333z"/>
<path d="M469.333,256c-56.256,0-64-87.147-64-181.333C405.333,68.776,410.109,64,416,64c5.891,0,10.667,4.776,10.667,10.667
	c0,109.163,13.568,160,42.667,160c5.891,0,10.667,4.776,10.667,10.667C480,251.224,475.224,256,469.333,256z"/>
<path d="M245.333,234.667c-5.891,0-10.667-4.776-10.667-10.667V74.667c0-5.891,4.776-10.667,10.667-10.667
	C251.224,64,256,68.776,256,74.667V224C256,229.891,251.224,234.667,245.333,234.667z"/>
<g>
</g>
<g>
</g>
<g>
</g>
<g>
</g>
<g>
</g>
<g>
</g>
<g>
</g>
<g>
</g>
<g>
</g>
<g>
</g>
<g>
</g>
<g>
</g>
<g>
</g>
<g>
</g>
<g>
</g>
</svg>
