<svg height="395pt" viewBox="0 -3 395.94667 395" width="395pt" xmlns="http://www.w3.org/2000/svg"><path d="m307.199219 154.074219c0 84.828125-68.769531 153.597656-153.597657 153.597656-84.832031 0-153.601562-68.769531-153.601562-153.597656 0-84.832031 68.769531-153.601563 153.601562-153.601563 84.828126 0 153.597657 68.769532 153.597657 153.601563zm0 0" fill="#d9be6f"/><path d="m266.238281 123.351562h-34.132812v-61.4375c18.851562 0 34.132812 15.28125 34.132812 34.132813zm0 0" fill="#bf7e68"/><path d="m266.238281 130.179688h-34.132812c-3.773438 0-6.824219-3.054688-6.824219-6.828126v-61.4375c0-3.769531 3.050781-6.828124 6.824219-6.828124 22.585937 0 40.960937 18.375 40.960937 40.960937v27.304687c0 3.773438-3.054687 6.828126-6.828125 6.828126zm-27.304687-13.652344h20.480468v-20.480469c0-12.699219-8.714843-23.402344-20.480468-26.441406zm0 0" fill="#4c241d"/><path d="m143.359375 123.351562h34.132813v-61.4375c-18.851563 0-34.132813 15.28125-34.132813 34.132813zm0 0" fill="#bf7e68"/><path d="m177.492188 130.179688h-34.132813c-3.773437 0-6.824219-3.054688-6.824219-6.828126v-27.304687c0-22.585937 18.371094-40.960937 40.957032-40.960937 3.773437 0 6.828124 3.058593 6.828124 6.828124v61.4375c0 3.773438-3.054687 6.828126-6.828124 6.828126zm-27.304688-13.652344h20.480469v-46.921875c-11.769531 3.039062-20.480469 13.742187-20.480469 26.441406zm0 0" fill="#4c241d"/><path d="m300.375 334.980469h-191.148438v-155.554688c0-38.507812 31.214844-69.726562 69.726563-69.726562h51.695313c38.507812 0 69.726562 31.21875 69.726562 69.726562zm0 0" fill="#efefd2"/><path d="m300.375 341.808594h-191.148438c-3.773437 0-6.828124-3.058594-6.828124-6.828125v-155.554688c0-42.210937 34.339843-76.550781 76.554687-76.550781h51.691406c42.214844 0 76.554688 34.339844 76.554688 76.550781v155.554688c0 3.769531-3.050781 6.828125-6.824219 6.828125zm-184.320312-13.65625h177.492187v-148.726563c0-34.683593-28.21875-62.898437-62.898437-62.898437h-51.695313c-34.679687 0-62.898437 28.214844-62.898437 62.898437zm0 0" fill="#4c241d"/><path d="m157.011719 290.605469c0 13.195312-10.695313 23.894531-23.890625 23.894531-13.195313 0-23.894532-10.699219-23.894532-23.894531 0-13.195313 10.699219-23.890625 23.894532-23.890625 13.195312 0 23.890625 10.695312 23.890625 23.890625zm0 0" fill="#6b4f5b"/><path d="m133.121094 321.328125c-16.941406 0-30.722656-13.78125-30.722656-30.722656 0-16.9375 13.78125-30.71875 30.722656-30.71875 16.9375 0 30.71875 13.78125 30.71875 30.71875 0 16.941406-13.78125 30.722656-30.71875 30.722656zm0-47.789063c-9.414063 0-17.066406 7.65625-17.066406 17.066407 0 9.410156 7.652343 17.066406 17.066406 17.066406 9.414062 0 17.066406-7.65625 17.066406-17.066406 0-9.410157-7.652344-17.066407-17.066406-17.066407zm0 0" fill="#4c241d"/><path d="m300.375 253.058594h-50.347656c-21.207032 0-38.402344-17.191406-38.402344-38.398438v-36.695312h88.75zm0 0" fill="#6b4f5b"/><path d="m300.375 259.886719h-50.347656c-24.941406 0-45.226563-20.289063-45.226563-45.226563v-36.695312c0-3.769532 3.050781-6.824219 6.824219-6.824219h88.75c3.773438 0 6.824219 3.054687 6.824219 6.824219v75.09375c0 3.769531-3.050781 6.828125-6.824219 6.828125zm-81.921875-75.09375v29.867187c0 17.410156 14.167969 31.574219 31.574219 31.574219h43.519531v-61.441406zm0 0" fill="#4c241d"/><path d="m276.480469 382.765625h-143.359375c-24.507813 0-44.375-19.867187-44.375-44.371094 0-24.507812 19.867187-44.375 44.375-44.375h143.359375c24.503906 0 44.371093 19.867188 44.371093 44.375 0 24.503907-19.867187 44.371094-44.371093 44.371094zm0 0" fill="#e7d1c4"/><g fill="#4c241d"><path d="m276.480469 389.59375h-143.359375c-28.234375 0-51.199219-22.96875-51.199219-51.199219 0-28.234375 22.964844-51.203125 51.199219-51.203125h143.359375c28.234375 0 51.199219 22.96875 51.199219 51.203125 0 28.230469-22.964844 51.199219-51.199219 51.199219zm-143.359375-88.746094c-20.703125 0-37.546875 16.84375-37.546875 37.546875s16.84375 37.546875 37.546875 37.546875h143.359375c20.699219 0 37.546875-16.84375 37.546875-37.546875s-16.847656-37.546875-37.546875-37.546875zm0 0"/><path d="m259.414062 212.101562c0 7.539063-6.113281 13.652344-13.652343 13.652344-7.542969 0-13.65625-6.113281-13.65625-13.652344 0-7.542968 6.113281-13.65625 13.65625-13.65625 7.539062 0 13.652343 6.113282 13.652343 13.65625zm0 0"/><path d="m177.492188 212.101562c0 7.539063-6.113282 13.652344-13.652344 13.652344-7.539063 0-13.652344-6.113281-13.652344-13.652344 0-7.542968 6.113281-13.65625 13.652344-13.65625 7.539062 0 13.652344 6.113282 13.652344 13.65625zm0 0"/></g><path d="m174.078125 143.832031c13.199219 0 23.894531-10.695312 23.894531-23.890625 0-3.683594-.902344-7.125-2.386718-10.242187h-16.636719c-10.101563 0-19.675781 2.195312-28.339844 6.058593-.242187 1.363282-.421875 2.75-.421875 4.183594 0 13.195313 10.695312 23.890625 23.890625 23.890625zm0 0" fill="#6b4f5b"/><path d="m174.078125 150.660156c-16.9375 0-30.71875-13.78125-30.71875-30.71875 0-2.144531.300781-4.089844.527344-5.367187.386719-2.230469 1.867187-4.125 3.941406-5.046875 9.890625-4.417969 20.367187-6.652344 31.125-6.652344h16.632813c2.632812 0 5.027343 1.507812 6.160156 3.882812 2.027344 4.242188 3.050781 8.679688 3.050781 13.183594.003906 16.9375-13.777344 30.71875-30.71875 30.71875zm-17.058594-30.15625c.300781 9.148438 7.839844 16.503906 17.058594 16.503906 9.414063 0 17.070313-7.65625 17.070313-17.066406 0-1.140625-.128907-2.28125-.375-3.414062h-11.820313c-7.527344 0-14.886719 1.335937-21.933594 3.976562zm0 0" fill="#4c241d"/><path d="m327.679688 218.925781h-27.304688v-61.4375h88.746094c0 33.929688-27.507813 61.4375-61.441406 61.4375zm0 0" fill="#efefd2"/><path d="m327.679688 225.753906h-27.304688c-3.773438 0-6.828125-3.058594-6.828125-6.828125v-61.4375c0-3.773437 3.054687-6.828125 6.828125-6.828125h88.746094c3.773437 0 6.824218 3.054688 6.824218 6.828125 0 37.640625-30.625 68.265625-68.265624 68.265625zm-20.480469-13.652344h20.480469c27.800781 0 50.820312-20.882812 54.1875-47.789062h-74.667969zm0 0" fill="#4c241d"/><path d="m81.921875 218.925781h27.304687v-61.4375h-88.746093c0 33.929688 27.507812 61.4375 61.441406 61.4375zm0 0" fill="#efefd2"/><path d="m109.226562 225.753906h-27.304687c-37.640625 0-68.269531-30.625-68.269531-68.265625 0-3.773437 3.054687-6.828125 6.828125-6.828125h88.746093c3.773438 0 6.828126 3.054688 6.828126 6.828125v61.4375c0 3.769531-3.054688 6.828125-6.828126 6.828125zm-81.492187-61.441406c3.367187 26.90625 26.386719 47.789062 54.1875 47.789062h20.476563v-47.789062zm0 0" fill="#4c241d"/><path d="m266.238281 338.394531c0 5.652344-4.582031 10.238281-10.238281 10.238281s-10.238281-4.585937-10.238281-10.238281c0-5.65625 4.582031-10.242187 10.238281-10.242187s10.238281 4.585937 10.238281 10.242187zm0 0" fill="#4c241d"/><path d="m163.839844 338.394531c0 5.652344-4.585938 10.238281-10.238282 10.238281-5.65625 0-10.242187-4.585937-10.242187-10.238281 0-5.65625 4.585937-10.242187 10.242187-10.242187 5.652344 0 10.238282 4.585937 10.238282 10.242187zm0 0" fill="#4c241d"/></svg>