<svg height="399pt" viewBox="-8 0 399 399.36" width="399pt" xmlns="http://www.w3.org/2000/svg"><path d="m382.472656 153.601562c0 84.828126-68.769531 153.597657-153.597656 153.597657-84.832031 0-153.601562-68.769531-153.601562-153.597657 0-84.832031 68.769531-153.601562 153.601562-153.601562 84.828125 0 153.597656 68.769531 153.597656 153.601562zm0 0" fill="#d9be6f"/><path d="m57.9375 98.699219-50.929688 27.421875 52.257813 27.457031zm0 0" fill="#fc8c29"/><path d="m59.265625 160.402344c-1.089844 0-2.179687-.257813-3.171875-.78125l-52.257812-27.457032c-2.238282-1.171874-3.640626-3.480468-3.65625-6.007812-.011719-2.523438 1.367187-4.847656 3.589843-6.042969l50.933594-27.421875c2.085937-1.132812 4.609375-1.085937 6.664063.105469 2.050781 1.191406 3.335937 3.367187 3.394531 5.734375l1.328125 54.878906c.058594 2.417969-1.167969 4.6875-3.222656 5.964844-1.101563.683594-2.347657 1.027344-3.601563 1.027344zm-37.722656-34.351563 30.617187 16.082031-.78125-32.148437zm0 0" fill="#4c241d"/><path d="m297.222656 327.679688h-106.351562c-60.070313 0-108.769532-47.296876-108.769532-105.644532v-80.238281h75.472657v87.25zm0 0" fill="#edebdc"/><path d="m297.21875 334.507812h-106.34375c-63.746094 0-115.601562-50.453124-115.601562-112.46875v-80.246093c0-3.769531 3.054687-6.828125 6.828124-6.828125h75.472657c3.769531 0 6.828125 3.058594 6.828125 6.828125v83.71875l136.757812 96.59375c2.425782 1.714843 3.46875 4.804687 2.566406 7.644531-.898437 2.828125-3.535156 4.757812-6.507812 4.757812zm-208.292969-185.886718v73.417968c0 54.484376 45.734375 98.8125 101.945313 98.8125h84.851562l-122.089844-86.226562c-1.808593-1.28125-2.886718-3.363281-2.886718-5.578125v-80.425781zm0 0" fill="#4c241d"/><path d="m186.59375 121.320312c0-38.457031-31.433594-69.636718-70.203125-69.636718-38.773437 0-70.207031 31.179687-70.207031 69.636718 0 38.457032 31.433594 69.636719 70.207031 69.636719 38.769531 0 70.203125-31.179687 70.203125-69.636719zm0 0" fill="#edebdc"/><g fill="#4c241d"><path d="m116.390625 197.785156c-42.476563 0-77.035156-34.300781-77.035156-76.464844 0-42.160156 34.558593-76.460937 77.035156-76.460937 42.472656 0 77.03125 34.300781 77.03125 76.460937 0 42.164063-34.558594 76.464844-77.03125 76.464844zm0-139.273437c-34.949219 0-63.378906 28.175781-63.378906 62.808593 0 34.632813 28.429687 62.808594 63.378906 62.808594 34.945313 0 63.375-28.175781 63.375-62.808594 0-34.632812-28.429687-62.808593-63.375-62.808593zm0 0"/><path d="m132.375 399.359375c-1.636719 0-3.28125-.585937-4.589844-1.777344-2.792968-2.53125-2.996094-6.851562-.457031-9.640625l58.949219-64.855468c2.539062-2.78125 6.851562-2.992188 9.640625-.457032 2.792969 2.535156 2.996093 6.855469.457031 9.644532l-58.949219 64.851562c-1.34375 1.480469-3.195312 2.234375-5.050781 2.234375zm0 0"/><path d="m183.304688 399.359375c-1.578126 0-3.160157-.542969-4.449219-1.652344-2.859375-2.457031-3.179688-6.769531-.722657-9.628906l55.808594-64.851563c2.457032-2.863281 6.769532-3.183593 9.625-.722656 2.859375 2.457032 3.179688 6.769532.722656 9.628906l-55.808593 64.851563c-1.351563 1.570313-3.257813 2.375-5.175781 2.375zm0 0"/></g><path d="m274.039062 212.917969-30.539062-44.394531c-25.847656-25.847657-67.167969-26.433594-92.289062-1.308594-25.125 25.125-24.539063 66.441406 1.308593 92.289062l24.847657 24.847656c5.1875 1.089844 10.558593 1.6875 16.0625 1.722657 42.152343.28125 76.890624-31.917969 80.609374-73.15625zm0 0" fill="#edebdc"/><path d="m193.964844 292.902344c-.195313 0-.386719-.003906-.578125-.003906-5.835938-.039063-11.699219-.664063-17.417969-1.867188-1.296875-.269531-2.488281-.910156-3.425781-1.851562l-24.851563-24.851563c-28.464844-28.464844-29.054687-74.199219-1.308594-101.941406 27.738282-27.746094 73.476563-27.167969 101.941407 1.308593.292969.292969.5625.613282.796875.957032l30.542968 44.394531c.902344 1.316406 1.316407 2.898437 1.175782 4.484375-4.027344 44.613281-42.128906 79.371094-86.875 79.371094zm-13.242188-14.847656c4.210938.761718 8.492188 1.167968 12.757813 1.191406 37.277343.144531 68.96875-27.914063 73.503906-64.542969l-28.746094-41.78125c-23.175781-22.714844-59.917969-23.164063-82.203125-.882813-22.417968 22.425782-21.832031 59.496094 1.3125 82.636719zm0 0" fill="#4c241d"/><path d="m274.039062 212.917969c-3.71875 40.25-38.457031 71.679687-80.609374 71.402343-5.503907-.035156-12.703126-.734374-17.890626-1.796874l6.703126 6.960937c25.851562 25.226563 57.601562 37.734375 91.003906 38.195313h81.671875zm0 0" fill="#ffce56"/><path d="m354.917969 334.507812h-81.671875c-36.300782-.503906-69.382813-14.386718-95.769532-40.136718l-6.851562-7.113282c-2.074219-2.152343-2.507812-5.40625-1.066406-8.023437 1.445312-2.621094 4.417968-3.992187 7.351562-3.398437 4.601563.945312 11.417969 1.628906 16.570313 1.660156.160156 0 .324219.003906.484375.003906 37.75 0 69.886718-28.550781 73.28125-65.210938.261718-2.847656 2.273437-5.226562 5.035156-5.96875 2.746094-.730468 5.691406.328126 7.339844 2.664063l80.878906 114.761719c1.472656 2.085937 1.65625 4.816406.480469 7.078125-1.171875 2.261719-3.507813 3.683593-6.0625 3.683593zm-160.71875-43.355468c22.449219 19.023437 49.65625 29.292968 79.140625 29.699218h68.417968l-64.117187-90.976562c-10.742187 35.414062-44.566406 61.171875-83.441406 61.277344zm0 0" fill="#4c241d"/><path d="m94.761719 110.324219c0 5.960937-4.828125 10.792969-10.789063 10.792969-5.960937 0-10.792968-4.832032-10.792968-10.792969 0-5.957031 4.832031-10.789063 10.792968-10.789063 5.960938 0 10.789063 4.832032 10.789063 10.789063zm0 0" fill="#4c241d"/></svg>