<?xml version="1.0" encoding="iso-8859-1"?>
<!-- Generator: Adobe Illustrator 19.0.0, SVG Export Plug-In . SVG Version: 6.00 Build 0)  -->
<svg version="1.1" id="Capa_1" xmlns="http://www.w3.org/2000/svg" xmlns:xlink="http://www.w3.org/1999/xlink" x="0px" y="0px"
	 viewBox="0 0 411.286 411.286" style="enable-background:new 0 0 411.286 411.286;" xml:space="preserve">
<path style="fill:#FBAD4A;" d="M139.168,403.88c22.035,3.75,66.475-11.45,66.475-11.45s44.443,15.2,66.48,11.448
	c27.23-4.635,59.814-36.036,59.814-86.316c0-43.762-36.048-100.867-57.397-148.347c-23.026-51.217-19.145-91.235-68.896-91.235
	s-45.87,40.018-68.896,91.233C115.398,216.694,79.35,273.798,79.35,317.562C79.35,367.845,111.935,399.244,139.168,403.88z"/>
<path d="M264.282,411.282c-21.166,0-50.36-8.967-58.639-11.656c-9.537,3.096-46.807,14.537-67.62,10.984
	c-32.196-5.478-65.5-41.781-65.5-93.047c0-34.367,20.343-74.897,40.02-114.098c6.513-12.978,12.663-25.233,17.976-37.05
	c5.78-12.853,9.904-25.233,13.544-36.154c11.006-33.024,19.697-59.11,61.58-59.11c41.88,0,50.574,26.086,61.58,59.114
	c3.64,10.919,7.764,23.296,13.544,36.151c5.313,11.817,11.464,24.073,17.976,37.05c19.676,39.2,40.02,79.73,40.02,114.098
	c0,51.267-33.3,87.571-65.493,93.047C270.527,411.075,267.496,411.282,264.282,411.282z M205.643,84.805
	c-32.039,0-37.934,17.679-48.626,49.773c-3.739,11.226-7.984,23.953-14.044,37.437c-5.434,12.083-11.646,24.467-18.231,37.577
	c-18.959,37.775-38.566,76.839-38.566,107.969c0,48.543,31.66,75.764,54.141,79.587l0,0c16.664,2.826,51.21-7.107,63.116-11.177
	c1.434-0.486,2.99-0.486,4.417,0c11.913,4.07,46.486,14.034,63.126,11.177c22.48-3.825,54.134-31.044,54.134-79.587
	c0-31.13-19.606-70.193-38.567-107.971c-6.583-13.111-12.797-25.494-18.231-37.577c-6.06-13.483-10.303-26.206-14.044-37.434
	C243.574,102.484,237.682,84.805,205.643,84.805z"/>
<path d="M162.656,384.518c-30.114,0-54.613-24.499-54.613-54.613h13.653c0,22.586,18.374,40.96,40.96,40.96V384.518z"/>
<path style="fill:#9BFC1D;" d="M161.099,30.473c11.807-2.722,24.711,0.515,33.91,9.716c9.199,9.199,12.438,22.103,9.716,33.91
	c-11.807,2.722-24.711-0.515-33.91-9.716C161.614,55.184,158.377,42.28,161.099,30.473z"/>
<path d="M196.43,81.874c-11.31,0-22.217-4.441-30.44-12.663c-10.6-10.597-14.913-25.653-11.544-40.271
	c0.587-2.546,2.574-4.533,5.12-5.12c14.616-3.364,29.67,0.94,40.271,11.54c10.597,10.593,14.909,25.649,11.544,40.271
	c-0.587,2.543-2.574,4.533-5.12,5.12C202.986,81.504,199.69,81.874,196.43,81.874z M167.069,36.445
	c-0.66,8.54,2.396,16.934,8.573,23.113c6.173,6.176,14.59,9.19,23.11,8.569c0.66-8.54-2.393-16.937-8.569-23.113
	C184.003,38.834,175.606,35.777,167.069,36.445z"/>
<path style="fill:#9BFC1D;" d="M207.063,69.839c-3.849-16.691,0.729-34.93,13.734-47.935S252.042,4.322,268.732,8.17
	c3.849,16.691-0.729,34.93-13.734,47.935C241.993,69.11,223.754,73.687,207.063,69.839z"/>
<path d="M218.786,78.009c-4.4,0-8.844-0.5-13.257-1.517c-2.546-0.587-4.533-2.574-5.12-5.12c-4.547-19.707,1.27-40.006,15.56-54.292
	c14.287-14.29,34.594-20.113,54.296-15.56c2.546,0.587,4.533,2.577,5.12,5.12c4.543,19.714-1.273,40.009-15.56,54.292
	C248.74,72.022,234.03,78.009,218.786,78.009z M212.932,63.968c13.664,1.79,27.342-2.801,37.239-12.691
	c9.89-9.89,14.476-23.55,12.691-37.236c-13.681-1.783-27.341,2.797-37.239,12.691C215.729,36.624,211.144,50.281,212.932,63.968z"/>
<g>
</g>
<g>
</g>
<g>
</g>
<g>
</g>
<g>
</g>
<g>
</g>
<g>
</g>
<g>
</g>
<g>
</g>
<g>
</g>
<g>
</g>
<g>
</g>
<g>
</g>
<g>
</g>
<g>
</g>
</svg>
