<svg height="413pt" viewBox="-83 0 413 413.97547" width="413pt" xmlns="http://www.w3.org/2000/svg"><path d="m141.3125 54.5c0 26.402344-16.734375 47.808594-16.734375 47.808594s-16.730469-21.40625-16.730469-47.808594c0-26.40625 16.730469-47.8125 16.730469-47.8125s16.734375 21.40625 16.734375 47.8125zm0 0" fill="#83d816"/><path d="m124.578125 109.136719c-2.101563 0-4.089844-.96875-5.382813-2.625-.738281-.945313-18.175781-23.582031-18.175781-52.011719 0-28.425781 17.4375-51.066406 18.175781-52.015625 2.589844-3.3125 8.175782-3.3125 10.761719 0 .742188.949219 18.179688 23.585937 18.179688 52.015625s-17.441407 51.066406-18.179688 52.011719c-1.292969 1.65625-3.28125 2.625-5.378906 2.625zm.011719-89.757813c-4.40625 8.003906-9.917969 20.867188-9.917969 35.121094 0 14.242188 5.5 27.09375 9.90625 35.09375 4.40625-8 9.90625-20.851562 9.90625-35.09375 0-14.324219-5.496094-27.148438-9.894531-35.121094zm0 0"/><path d="m123.890625 91.613281s-26.742187-48.132812-96.265625-26.738281c0 0 65.175781 18.636719 75.375 68.144531h41.785156c10.195313-49.507812 75.371094-68.144531 75.371094-68.144531-69.527344-21.394531-96.265625 26.738281-96.265625 26.738281zm0 0" fill="#83d816"/><path d="m144.785156 139.84375h-41.789062c-3.238282 0-6.03125-2.273438-6.683594-5.449219-9.257812-44.9375-69.953125-62.78125-70.566406-62.960937-2.90625-.828125-4.917969-3.472656-4.949219-6.496094-.03125-3.019531 1.929687-5.703125 4.820313-6.589844 38.335937-11.789062 64.539062-3.222656 79.757812 6.042969 8.496094 5.167969 14.59375 11.109375 18.582031 15.773437 12.039063-13.832031 42.765625-38.882812 98.207031-21.816406 2.886719.886719 4.847657 3.566406 4.8125 6.585938-.027343 3.023437-2.03125 5.664062-4.941406 6.5-.605468.175781-61.339844 18.152344-70.566406 62.960937-.652344 3.175781-3.445312 5.449219-6.683594 5.449219zm-36.449218-13.652344h31.109374c8.960938-30.960937 37.132813-49.628906 57.261719-59.347656-47.667969-5.230469-66.640625 27.707031-66.847656 28.085938-2.394531 4.328124-9.5 4.332031-11.921875.019531-.933594-1.632813-19.761719-33.480469-66.90625-28.128907 20.125 9.710938 48.335938 28.386719 57.304688 59.371094zm0 0"/><path d="m123.890625 140.15625s-32.382813-58.292969-116.578125-32.382812c0 0 78.929688 22.570312 91.277344 82.527343h50.601562c12.347656-59.957031 91.277344-82.527343 91.277344-82.527343-84.195312-25.910157-116.578125 32.382812-116.578125 32.382812zm0 0" fill="#83d816"/><path d="m149.191406 197.125h-50.601562c-3.238282 0-6.03125-2.277344-6.6875-5.449219-11.382813-55.265625-85.714844-77.125-86.464844-77.339843-2.90625-.828126-4.921875-3.472657-4.949219-6.496094-.03125-3.023438 1.929688-5.703125 4.820313-6.589844 68.277344-21.011719 105.15625 11.25 118.582031 27.34375 13.425781-16.097656 50.308594-48.367188 118.585937-27.34375 2.886719.886719 4.847657 3.566406 4.820313 6.585938-.035156 3.019531-2.039063 5.660156-4.945313 6.5-.75.214843-75.121093 22.203124-86.476562 77.339843-.652344 3.171875-3.445312 5.449219-6.683594 5.449219zm-45.226562-13.652344h39.851562c11.019532-39.976562 48.886719-63.050781 73.328125-74.109375-62.242187-9.363281-87.019531 33.625-87.289062 34.105469-2.390625 4.332031-9.503907 4.34375-11.925781.011719-1.183594-2.09375-25.609376-43.628907-87.339844-34.136719 24.433594 11.046875 62.347656 34.128906 73.375 74.128906zm0 0"/><path d="m225.503906 268.101562c0-76.796874-43.097656-139.050781-96.265625-139.050781-53.164062 0-96.265625 62.253907-96.265625 139.050781 0 76.792969 43.101563 139.046876 96.265625 139.046876 53.167969 0 96.265625-62.253907 96.265625-139.046876zm0 0" fill="#feda38"/><path d="m129.238281 413.976562c-56.84375 0-103.089843-65.441406-103.089843-145.878906s46.246093-145.875 103.089843-145.875c56.847657 0 103.09375 65.4375 103.09375 145.875s-46.25 145.878906-103.09375 145.878906zm0-278.101562c-49.316406 0-89.4375 59.316406-89.4375 132.226562 0 72.90625 40.121094 132.222657 89.4375 132.222657 49.316407 0 89.4375-59.316407 89.4375-132.222657 0-72.910156-40.121093-132.226562-89.4375-132.226562zm0 0"/><path d="m81.113281 392.585938c-2.070312 0-4.113281-.9375-5.453125-2.71875-2.273437-3.007813-1.671875-7.289063 1.335938-9.558594l141.773437-106.957032c3.035157-2.269531 7.300781-1.660156 9.5625 1.339844 2.273438 3.011719 1.671875 7.289063-1.332031 9.558594l-141.78125 106.957031c-1.230469.929688-2.675781 1.378907-4.105469 1.378907zm0 0"/><path d="m43.675781 333.753906c-2.121093 0-4.214843-.984375-5.550781-2.84375-2.199219-3.058594-1.5-7.324218 1.5625-9.523437l171.136719-123.007813c3.058593-2.203125 7.320312-1.507812 9.53125 1.558594 2.199219 3.0625 1.5 7.328125-1.558594 9.527344l-171.144531 123.007812c-1.203125.867188-2.59375 1.28125-3.976563 1.28125zm0 0"/><path d="m38.328125 253.535156c-2.136719 0-4.234375-.996094-5.570313-2.863281-2.183593-3.070313-1.472656-7.335937 1.597657-9.523437l137.65625-98.140626c3.066406-2.1875 7.324219-1.46875 9.519531 1.597657 2.183594 3.070312 1.472656 7.332031-1.601562 9.523437l-137.648438 98.140625c-1.199219.855469-2.585938 1.265625-3.953125 1.265625zm0 0"/><path d="m180.003906 389.167969c-1.347656 0-2.707031-.394531-3.898437-1.226563l-147.21875-102.730468c-3.09375-2.160157-3.851563-6.410157-1.691407-9.503907 2.164063-3.089843 6.414063-3.847656 9.503907-1.695312l147.21875 102.730469c3.089843 2.160156 3.847656 6.414062 1.691406 9.507812-1.324219 1.902344-3.453125 2.917969-5.605469 2.917969zm0 0"/><path d="m213.171875 331.734375c-1.398437 0-2.8125-.429687-4.035156-1.324219l-167.441407-122.953125c-3.039062-2.234375-3.691406-6.503906-1.460937-9.542969 2.234375-3.042968 6.503906-3.695312 9.542969-1.460937l167.441406 122.953125c3.039062 2.234375 3.695312 6.503906 1.460938 9.542969-1.335938 1.824219-3.410157 2.785156-5.507813 2.785156zm0 0"/><path d="m221.257812 255.699219c-1.359374 0-2.734374-.402344-3.925781-1.246094l-139.9375-98.6875c-3.085937-2.171875-3.820312-6.433594-1.648437-9.511719 2.175781-3.082031 6.4375-3.824218 9.515625-1.648437l139.933593 98.6875c3.082032 2.171875 3.820313 6.433593 1.648438 9.511719-1.332031 1.886718-3.4375 2.894531-5.585938 2.894531zm0 0"/></svg>