<svg id="sportsman" enable-background="new 0 0 300 300" height="512" viewBox="0 0 300 300" width="512" xmlns="http://www.w3.org/2000/svg"><circle cx="137.375" cy="118" fill="#e5efef" r="92"/><path d="m51.375 62c-7.719 0-14-6.281-14-14s6.281-14 14-14 14 6.281 14 14-6.281 14-14 14zm0-20c-3.309 0-6 2.691-6 6s2.691 6 6 6 6-2.691 6-6-2.691-6-6-6z" fill="#4c241d"/><path d="m243.375 110c-7.719 0-14-6.281-14-14s6.281-14 14-14 14 6.281 14 14-6.281 14-14 14zm0-20c-3.309 0-6 2.691-6 6s2.691 6 6 6 6-2.691 6-6-2.691-6-6-6z" fill="#4c241d"/><circle cx="237.375" cy="174" fill="#fc8c29" r="33.248"/><g fill="#4c241d"><path d="m237.375 211.248c-20.539 0-37.25-16.709-37.25-37.248s16.711-37.248 37.25-37.248 37.25 16.709 37.25 37.248-16.711 37.248-37.25 37.248zm0-66.496c-16.129 0-29.25 13.121-29.25 29.248s13.121 29.248 29.25 29.248 29.25-13.121 29.25-29.248-13.121-29.248-29.25-29.248z"/><path d="m239.125 169.25c-11.809 0-22.812-5.85-29.434-15.648-1.234-1.83-.754-4.316 1.078-5.553 1.824-1.234 4.316-.754 5.555 1.076 5.129 7.592 13.652 12.125 22.801 12.125 8.371 0 16.184-3.746 21.438-10.275 1.387-1.719 3.902-1.994 5.625-.609s1.992 3.904.609 5.625c-6.781 8.425-16.867 13.259-27.672 13.259z"/><path d="m211.254 198.887c-.77 0-1.547-.221-2.234-.686-1.832-1.236-2.312-3.723-1.078-5.553 6.62-9.798 17.624-15.648 29.433-15.648 11.574 0 22.453 5.666 29.098 15.158 1.266 1.811.828 4.305-.984 5.572-1.805 1.264-4.301.828-5.57-.982-5.149-7.357-13.579-11.748-22.544-11.748-9.148 0-17.672 4.533-22.801 12.125-.773 1.145-2.035 1.762-3.32 1.762z"/><path d="m237.375 209.498c-2.211 0-4-1.791-4-4v-62.996c0-2.209 1.789-4 4-4s4 1.791 4 4v62.996c0 2.209-1.789 4-4 4z"/><path d="m125.375 186h-96c-2.209 0-4-1.791-4-4s1.791-4 4-4h96c2.209 0 4 1.791 4 4s-1.791 4-4 4z"/><circle cx="259.375" cy="44" r="4.529"/><circle cx="63.375" cy="100" r="4.529"/><path d="m210.027 51.348c-1.023 0-2.047-.391-2.828-1.172-1.562-1.562-1.562-4.094 0-5.656l14.695-14.695c1.562-1.562 4.094-1.562 5.656 0s1.562 4.094 0 5.656l-14.695 14.695c-.781.781-1.804 1.172-2.828 1.172z"/><path d="m224.723 51.348c-1.023 0-2.047-.391-2.828-1.172l-14.696-14.696c-1.562-1.562-1.562-4.094 0-5.656s4.094-1.562 5.656 0l14.695 14.695c1.562 1.562 1.562 4.094 0 5.656-.78.782-1.804 1.173-2.827 1.173z"/></g><path d="m217.375 270h-144v-32.902c0-14.82 8.534-28.25 21.776-34.269l50.224-22.829 50.224 22.829c13.242 6.019 21.776 19.449 21.776 34.269z" fill="#fff"/><path d="m217.375 274h-144c-2.209 0-4-1.791-4-4v-32.902c0-16.371 9.469-31.25 24.121-37.91l50.223-22.828c1.055-.48 2.258-.48 3.312 0l50.223 22.83c14.652 6.658 24.121 21.539 24.121 37.908v32.902c0 2.209-1.789 4-4 4zm-140-8h136v-28.902c0-13.24-7.629-25.262-19.434-30.625l-48.566-22.078-48.57 22.076c-11.803 5.365-19.43 17.387-19.43 30.627z" fill="#4c241d"/><path d="m145.375 202c-8.837 0-16-7.163-16-16v-8h32v8c0 8.837-7.163 16-16 16z" fill="#e7d1c4"/><path d="m145.375 206c-11.027 0-20-8.973-20-20v-8c0-2.209 1.791-4 4-4h32c2.211 0 4 1.791 4 4v8c0 11.027-8.973 20-20 20zm-12-24v4c0 6.617 5.383 12 12 12s12-5.383 12-12v-4z" fill="#4c241d"/><path d="m197.375 120c-.294 0-.336-2.941-.288-6.301.083-5.821-3.813-10.999-9.466-12.394-27.643-6.821-57.325-5.547-84.267 2.727-3.531 1.084-5.848 4.473-5.744 8.166.105 3.746.133 7.801-.236 7.801-5.644 0-10.196 4.676-9.993 10.365.114 3.199 2.081 6.09 4.734 7.88 3.217 2.171 5.98 2.017 8.431 1.192 3.968 19.359 18.022 35.548 37.427 41.794 5.563 1.791 11.581 1.62 17.141-.182l1.775-.575c19.093-6.188 33.023-22.039 37.173-41.079 2.441.861 5.222 1.012 8.371-.95 2.549-1.588 4.495-4.194 4.862-7.174.752-6.09-3.979-11.27-9.92-11.27z" fill="#e7d1c4"/><path d="m146.129 186.502c-3.195 0-6.35-.488-9.379-1.461-19.201-6.182-33.934-21.713-39.223-41.039-2.641.127-5.172-.77-7.648-2.439-3.914-2.643-6.342-6.773-6.496-11.053-.135-3.842 1.256-7.475 3.918-10.232 1.783-1.846 3.975-3.137 6.379-3.789 0-.979-.016-2.326-.066-4.178-.156-5.529 3.369-10.506 8.568-12.102 28.062-8.621 58.744-9.611 86.396-2.785 7.48 1.844 12.621 8.562 12.508 16.334-.016 1.139-.02 2.035-.012 2.74 2.602.713 4.969 2.17 6.793 4.23 2.652 3.002 3.895 7.021 3.398 11.029-.492 4.002-3.004 7.771-6.719 10.084-2.414 1.504-4.945 2.256-7.52 2.15-5.441 18.932-20.051 34.176-38.902 40.287l-1.777.574c-3.382 1.099-6.824 1.648-10.218 1.65zm-45.582-51.064c.693 0 1.381.18 1.994.533.994.57 1.693 1.541 1.924 2.664 3.738 18.232 17.049 33.096 34.736 38.791 4.635 1.486 9.709 1.43 14.682-.182l1.777-.574c17.379-5.635 30.598-20.244 34.492-38.127.246-1.121.961-2.084 1.961-2.643 1.008-.561 2.191-.66 3.281-.277 1.816.646 3.242.475 4.926-.572 1.684-1.049 2.805-2.645 3.008-4.27.215-1.76-.301-3.447-1.457-4.754-1.137-1.289-2.777-2.027-4.496-2.027-1.07 0-2.137-.449-2.887-1.211-1.379-1.396-1.488-2.873-1.402-9.146.059-3.967-2.641-7.52-6.422-8.453-26.262-6.48-55.432-5.531-82.135 2.668-1.773.545-2.975 2.283-2.92 4.23.229 8.281-.027 9.348-1.32 10.678-.754.775-1.834 1.234-2.914 1.234-1.643 0-3.176.65-4.318 1.834-1.141 1.182-1.736 2.74-1.678 4.391.061 1.703 1.201 3.508 2.975 4.707 1.949 1.314 3.375 1.236 4.918.715.416-.141.845-.209 1.275-.209zm100.617-16.479h.039z" fill="#4c241d"/><circle cx="167.375" cy="136" fill="#4c241d" r="4"/><circle cx="127.375" cy="136" fill="#4c241d" r="4"/><path d="m195.599 202.829-22.224-10.102v29.273h-56v-29.273l-22.224 10.102c-.62.282-1.177.658-1.776.972v66.199h104v-66.199c-.599-.314-1.156-.69-1.776-.972z" fill="#ffce56"/><path d="m197.375 274h-104c-2.209 0-4-1.791-4-4v-66.199c0-1.486.824-2.852 2.143-3.543l.553-.312c.461-.268.926-.529 1.416-.754l22.234-10.105c1.236-.564 2.676-.459 3.82.277 1.143.736 1.834 2.004 1.834 3.363v25.273h48v-25.273c0-1.359.691-2.627 1.836-3.363 1.145-.734 2.582-.84 3.82-.277l22.223 10.102s0 0 .004.002c.496.227.965.492 1.434.762l.547.311c1.312.691 2.137 2.055 2.137 3.539v66.197c-.001 2.209-1.79 4-4.001 4zm-100-8h96v-59.789l-16-7.271v23.06c0 2.209-1.789 4-4 4h-56c-2.209 0-4-1.791-4-4v-23.062l-16 7.273z" fill="#4c241d"/><path d="m197.375 86c0-44-100-52-99.78 7.34.021 5.763.146 12.021.087 16.344 10.93.374 21.141-3.243 27.89-10.021 11.638 22.604 44.081 31.871 71.803 10.216 0-8.389 0-20.267 0-23.879z" fill="#bf7e68"/><path d="m164.027 126.166c-3.629 0-7.25-.387-10.832-1.174-11.961-2.625-22.156-9.51-28.635-19.184-7.246 5.389-16.795 8.24-27.016 7.873-2.176-.074-3.893-1.875-3.863-4.053.037-2.684.002-6.119-.033-9.717-.021-2.17-.045-4.398-.053-6.557-.08-21.436 11.658-32.76 21.518-38.486 18.578-10.785 47.238-10.48 66.668.709 12.637 7.273 19.594 18.078 19.594 30.422v23.879c0 1.23-.566 2.395-1.539 3.152-11.055 8.638-23.461 13.136-35.809 13.136zm-38.455-30.504c.203 0 .408.016.613.047 1.264.197 2.357.984 2.943 2.121 5.049 9.809 14.445 16.859 25.781 19.348 12.852 2.83 26.445-.477 38.465-9.287v-21.891c0-11.998-8.477-19.396-15.586-23.49-17.152-9.873-42.371-10.186-58.658-.721-8.035 4.666-17.602 13.924-17.535 31.535.008 2.143.029 4.354.051 6.508.021 2.018.041 3.986.047 5.803 8.373-.51 15.895-3.623 21.045-8.795.756-.76 1.78-1.178 2.834-1.178zm71.803 14.217h.039z" fill="#4c241d"/><path d="m193.375 98h-92c-4.418 0-8-3.582-8-8 0-4.418 3.582-8 8-8h92c4.418 0 8 3.582 8 8 0 4.418-3.582 8-8 8z" fill="#f53e28"/><path d="m193.375 102h-92c-6.617 0-12-5.383-12-12s5.383-12 12-12h92c6.617 0 12 5.383 12 12s-5.383 12-12 12zm-92-16c-2.205 0-4 1.795-4 4s1.795 4 4 4h92c2.207 0 4-1.795 4-4s-1.793-4-4-4z" fill="#4c241d"/><path d="m41.375 158h16v48h-16z" fill="#b5a19c"/><path d="m57.375 210h-16c-2.209 0-4-1.791-4-4v-48c0-2.209 1.791-4 4-4h16c2.209 0 4 1.791 4 4v48c0 2.209-1.791 4-4 4zm-12-8h8v-40h-8z" fill="#4c241d"/><path d="m57.375 150h24v64h-24z" fill="#b5a19c"/><path d="m81.375 218h-24c-2.209 0-4-1.791-4-4v-64c0-2.209 1.791-4 4-4h24c2.209 0 4 1.791 4 4v64c0 2.209-1.791 4-4 4zm-20-8h16v-56h-16z" fill="#4c241d"/></svg>