<svg id="chef" enable-background="new 0 0 300 300" height="512" viewBox="0 0 300 300" width="512" xmlns="http://www.w3.org/2000/svg"><path d="m252 270c-2.211 0-4-1.791-4-4v-108c0-2.209 1.789-4 4-4s4 1.791 4 4v108c0 2.209-1.789 4-4 4z" fill="#4c241d"/><circle cx="144" cy="150" fill="#e5efef" r="92"/><path d="m92 242h-12c-2.211 0-4-1.791-4-4s1.789-4 4-4h12c2.211 0 4 1.791 4 4s-1.789 4-4 4z" fill="#4c241d"/><path d="m92 258h-12c-2.211 0-4-1.791-4-4s1.789-4 4-4h12c2.211 0 4 1.791 4 4s-1.789 4-4 4z" fill="#4c241d"/><path d="m216 242h-12c-2.211 0-4-1.791-4-4s1.789-4 4-4h12c2.211 0 4 1.791 4 4s-1.789 4-4 4z" fill="#4c241d"/><path d="m216 258h-12c-2.211 0-4-1.791-4-4s1.789-4 4-4h12c2.211 0 4 1.791 4 4s-1.789 4-4 4z" fill="#4c241d"/><path d="m220 270h-144v-39.908c0-9.51 6.342-17.853 15.505-20.399l46.867-13.019c6.299-1.75 12.957-1.75 19.256 0l46.867 13.019c9.163 2.545 15.505 10.889 15.505 20.399z" fill="#fff"/><path d="m220 274h-144c-2.211 0-4-1.791-4-4v-39.908c0-11.266 7.582-21.238 18.434-24.252l46.867-13.02c7-1.945 14.398-1.945 21.398 0l46.867 13.02c10.852 3.014 18.434 12.986 18.434 24.252v39.908c0 2.209-1.789 4-4 4zm-140-8h136v-35.908c0-7.686-5.172-14.488-12.574-16.545l-46.867-13.02c-5.602-1.555-11.516-1.555-17.117 0l-46.867 13.02c-7.403 2.057-12.575 8.859-12.575 16.545z" fill="#4c241d"/><path d="m153.315 270h-10.63l-22.685-68h56z" fill="#efefd2"/><path d="m153.316 274h-10.633c-1.723 0-3.25-1.102-3.793-2.734l-22.684-68c-.41-1.219-.203-2.561.547-3.604.754-1.043 1.961-1.662 3.246-1.662h56c1.285 0 2.492.619 3.246 1.662.75 1.043.957 2.385.547 3.604l-22.684 68c-.542 1.632-2.069 2.734-3.792 2.734zm-7.75-8h4.867l20.016-60h-44.898z" fill="#4c241d"/><path d="m198.934 129.842c-.302 0-.345-3.019-.295-6.469.085-5.977-3.915-11.292-9.718-12.724-28.38-7.003-58.854-5.695-86.514 2.799-3.626 1.113-6.004 4.593-5.898 8.384.107 3.846.136 8.009-.242 8.009-5.795 0-10.468 4.801-10.26 10.642.117 3.284 2.137 6.252 4.86 8.09 3.303 2.229 6.139 2.071 8.656 1.224 4.074 19.875 18.503 36.496 38.425 42.908 5.712 1.839 11.89 1.663 17.598-.187l1.822-.591c19.602-6.354 33.903-22.626 38.165-42.175 2.506.884 5.361 1.039 8.594-.975 2.617-1.63 4.615-4.306 4.991-7.366.772-6.25-4.085-11.569-10.184-11.569z" fill="#e7d1c4"/><path d="m146.324 198.012c-3.27 0-6.5-.498-9.602-1.496-19.703-6.344-34.816-22.297-40.219-42.139-2.75.049-5.328-.768-7.875-2.486-3.988-2.693-6.465-6.904-6.617-11.264-.141-3.908 1.273-7.609 3.984-10.422 1.836-1.904 4.102-3.229 6.582-3.887.004-1.012-.012-2.422-.07-4.373-.156-5.629 3.434-10.695 8.723-12.32 28.793-8.846 60.281-9.863 88.648-2.857 7.625 1.881 12.871 8.734 12.758 16.662-.016 1.215-.02 2.162-.012 2.898 2.68.719 5.125 2.213 7 4.332 2.703 3.061 3.969 7.158 3.465 11.242-.504 4.076-3.062 7.914-6.844 10.271-2.492 1.551-5.039 2.279-7.75 2.191-5.559 19.441-20.547 35.1-39.891 41.369l-1.828.592c-3.46 1.124-6.979 1.687-10.452 1.687zm-46.801-52.213c.691 0 1.383.18 1.996.533.992.57 1.691 1.541 1.922 2.664 3.844 18.756 17.539 34.047 35.734 39.902 4.711 1.523 10.094 1.457 15.137-.184l1.828-.592c17.875-5.793 31.477-20.822 35.484-39.221.246-1.121.961-2.084 1.965-2.643.996-.562 2.188-.662 3.277-.277 1.902.672 3.387.496 5.148-.6 1.754-1.092 2.926-2.76 3.137-4.461.227-1.834-.316-3.598-1.523-4.961-1.188-1.348-2.902-2.119-4.695-2.119-1.07 0-2.137-.449-2.887-1.211-1.316-1.334-1.5-2.553-1.41-9.312.059-4.123-2.746-7.816-6.672-8.785-26.992-6.658-56.961-5.688-84.383 2.74-1.867.572-3.133 2.402-3.074 4.447.238 8.455-.02 9.541-1.328 10.885-.75.775-1.832 1.236-2.914 1.236-1.715 0-3.316.682-4.512 1.916-1.188 1.234-1.812 2.861-1.75 4.582.066 1.787 1.254 3.672 3.102 4.92 2.039 1.373 3.531 1.289 5.145.748.414-.139.844-.207 1.273-.207zm103.196-17.008h.039z" fill="#4c241d"/><circle cx="168.133" cy="146.269" fill="#4c241d" r="4.107"/><circle cx="127.067" cy="146.269" fill="#4c241d" r="4.107"/><path d="m200 94.936c0-45.173-103.736-53.387-103.507 7.536.022 5.917.151 12.342.09 16.78 11.339.384 21.93-3.329 28.932-10.288 12.073 23.206 45.728 32.721 74.485 10.488 0-8.613 0-20.808 0-24.516z" fill="#bf7e68"/><g fill="#4c241d"><path d="m165.41 136.068c-3.793 0-7.582-.408-11.328-1.23-12.367-2.721-22.902-9.811-29.574-19.748-7.512 5.58-17.473 8.502-28.062 8.158-2.176-.074-3.895-1.877-3.863-4.055.039-2.77.004-6.322-.035-10.039-.023-2.207-.047-4.473-.055-6.668-.082-21.855 11.953-33.441 22.062-39.312 19.336-11.23 49.168-10.912 69.395.734 12.929 7.444 20.05 18.463 20.05 31.028v24.516c0 1.238-.574 2.406-1.555 3.164-11.441 8.845-24.269 13.452-37.035 13.452zm-39.894-31.105c.203 0 .41.016.617.047 1.254.197 2.344.979 2.93 2.107 5.238 10.064 14.98 17.32 26.738 19.906 13.445 2.957 27.641-.445 40.199-9.572v-22.515c0-12.281-8.723-19.881-16.043-24.094-17.941-10.332-44.328-10.652-61.383-.75-8.285 4.812-18.148 14.332-18.082 32.363.008 2.178.031 4.426.055 6.617.02 2.137.043 4.221.051 6.137 8.789-.494 16.691-3.713 22.098-9.084.757-.75 1.773-1.162 2.82-1.162zm74.484 14.488h.039z"/><path d="m46 54c-7.719 0-14-6.281-14-14s6.281-14 14-14 14 6.281 14 14-6.281 14-14 14zm0-20c-3.309 0-6 2.691-6 6s2.691 6 6 6 6-2.691 6-6-2.691-6-6-6z"/><circle cx="230" cy="144" r="4.529"/><circle cx="254" cy="48" r="4.529"/><circle cx="46" cy="80" r="4.529"/><path d="m248.652 127.348c-1.023 0-2.047-.391-2.828-1.172-1.562-1.562-1.562-4.094 0-5.656l14.695-14.695c1.562-1.562 4.094-1.562 5.656 0s1.562 4.094 0 5.656l-14.695 14.695c-.781.781-1.804 1.172-2.828 1.172z"/><path d="m263.348 127.348c-1.023 0-2.047-.391-2.828-1.172l-14.695-14.695c-1.562-1.562-1.562-4.094 0-5.656s4.094-1.562 5.656 0l14.695 14.695c1.562 1.562 1.562 4.094 0 5.656-.781.781-1.805 1.172-2.828 1.172z"/></g><path d="m197.526 170.176c-24.874 10.66-31.981-10.66-44.419-10.66-2.92 0-5.487 1.427-7.107 3.602-1.62-2.175-4.187-3.602-7.107-3.602-12.437 0-19.544 21.321-44.419 10.66-4.51-1.933 24.874 21.321 46.195 10.66 2.64-1.32 4.276-2.852 5.33-4.532 1.054 1.68 2.691 3.212 5.33 4.532 21.322 10.661 50.706-12.592 46.197-10.66z" fill="#bf7e68"/><path d="m163.852 187.619c-4.859 0-9.734-.918-14.309-3.203-1.332-.666-2.512-1.406-3.543-2.229-1.031.822-2.211 1.562-3.543 2.229-20.938 10.465-48.238-7.746-51.367-11.477-1.188-1.418-1.387-3.752-.281-5.238 1.105-1.492 3.543-1.928 5.238-1.201 13.852 5.93 20.758.896 28.074-4.43 4.426-3.223 9-6.555 14.773-6.555 2.578 0 5.027.758 7.105 2.15 2.078-1.393 4.527-2.15 7.105-2.15 5.773 0 10.348 3.332 14.773 6.555 7.316 5.328 14.23 10.359 28.074 4.43 2.441-1.053 4.344-.004 5.238 1.201 1.105 1.486.906 3.82-.281 5.238-2.443 2.918-19.658 14.68-37.056 14.68zm-17.852-15.314c1.375 0 2.656.707 3.387 1.873.75 1.193 1.973 2.201 3.734 3.082 8.145 4.07 17.816 2.354 25.805-.686-6.629-1.391-11.613-5.02-15.758-8.037-3.699-2.695-6.895-5.021-10.062-5.021-1.535 0-2.953.727-3.898 1.992-1.508 2.027-4.906 2.027-6.414 0-.945-1.266-2.363-1.992-3.898-1.992-3.168 0-6.363 2.326-10.062 5.021-4.145 3.018-9.129 6.646-15.758 8.037 8 3.041 17.668 4.76 25.805.686 1.762-.881 2.984-1.889 3.734-3.082.729-1.166 2.01-1.873 3.385-1.873zm53.102 1.547v.002s0 0 0-.002z" fill="#4c241d"/><path d="m220 67.714c0-16.2-13.274-29.333-29.647-29.333-6.421 0-12.349 2.041-17.203 5.473-5.235-8.307-14.527-13.854-25.15-13.854s-19.915 5.547-25.15 13.854c-4.854-3.432-10.782-5.473-17.203-5.473-16.373 0-29.647 13.133-29.647 29.333 0 13.286 8.933 24.495 21.176 28.103v22.183h101.647v-22.183c12.244-3.608 21.177-14.817 21.177-28.103z" fill="#fff"/><path d="m198.824 122h-101.648c-2.211 0-4-1.791-4-4v-19.336c-12.606-5.004-21.176-17.326-21.176-30.949 0-18.381 15.094-33.334 33.648-33.334 5.688 0 11.191 1.408 16.133 4.102 6.36-7.881 15.899-12.483 26.219-12.483s19.859 4.602 26.219 12.482c4.941-2.693 10.445-4.102 16.133-4.102 18.555 0 33.648 14.953 33.648 33.334 0 13.623-8.57 25.945-21.176 30.949v19.337c0 2.209-1.789 4-4 4zm-97.648-8h93.648v-18.184c0-1.773 1.168-3.336 2.871-3.836 10.778-3.177 18.305-13.154 18.305-24.265 0-13.969-11.504-25.334-25.648-25.334-5.355 0-10.508 1.639-14.895 4.738-.898.635-2.023.863-3.09.658-1.078-.215-2.02-.863-2.602-1.791-4.73-7.506-12.867-11.986-21.765-11.986s-17.035 4.48-21.766 11.986c-.582.928-1.523 1.576-2.602 1.791-1.07.207-2.195-.023-3.09-.658-4.387-3.1-9.539-4.738-14.895-4.738-14.143 0-25.647 11.365-25.647 25.334 0 11.111 7.527 21.088 18.305 24.266 1.703.5 2.871 2.062 2.871 3.836z" fill="#4c241d"/><path d="m170.616 201.601c7.217 7.217 5.004 21.803 5.004 21.803s-14.585 2.213-21.803-5.004c-7.217-7.217-5.004-21.803-5.004-21.803s14.585-2.213 21.803 5.004z" fill="#fff"/><path d="m170.59 227.721c-5.609 0-14.129-1.023-19.602-6.494-8.547-8.549-6.234-24.553-6.129-25.23.262-1.732 1.621-3.092 3.352-3.355.68-.102 16.684-2.414 25.234 6.133 8.547 8.549 6.234 24.553 6.129 25.23-.262 1.732-1.621 3.092-3.352 3.355-.245.036-2.476.361-5.632.361zm-18.082-27.43c-.16 4.562.449 11.588 4.137 15.279 3.691 3.689 10.695 4.309 15.281 4.139.16-4.562-.449-11.588-4.137-15.279-3.695-3.692-10.719-4.297-15.281-4.139z" fill="#4c241d"/><path d="m125.384 201.601c-7.217 7.217-5.004 21.803-5.004 21.803s14.585 2.213 21.803-5.004c7.217-7.217 5.004-21.803 5.004-21.803s-14.585-2.213-21.803 5.004z" fill="#fff"/><path d="m125.41 227.721c-3.156 0-5.387-.324-5.633-.361-1.73-.264-3.09-1.623-3.352-3.355-.105-.678-2.418-16.682 6.129-25.23 8.547-8.547 24.555-6.234 25.234-6.133 1.73.264 3.09 1.623 3.352 3.355.105.678 2.418 16.682-6.129 25.23-5.468 5.47-13.991 6.494-19.601 6.494zm-1.344-8.012c4.535.137 11.594-.447 15.289-4.139 3.715-3.717 4.316-10.729 4.145-15.279-4.555-.15-11.594.445-15.289 4.139-3.715 3.716-4.316 10.728-4.145 15.279z" fill="#4c241d"/><path d="m104 274c-2.211 0-4-1.791-4-4v-24c0-2.209 1.789-4 4-4s4 1.791 4 4v24c0 2.209-1.789 4-4 4z" fill="#4c241d"/><path d="m192 274c-2.211 0-4-1.791-4-4v-24c0-2.209 1.789-4 4-4s4 1.791 4 4v24c0 2.209-1.789 4-4 4z" fill="#4c241d"/><path d="m72 198h-32v-100c17.673 0 32 14.327 32 32z" fill="#b5a19c"/><path d="m72 202h-32c-2.211 0-4-1.791-4-4v-100c0-2.209 1.789-4 4-4 19.852 0 36 16.15 36 36v68c0 2.209-1.789 4-4 4zm-28-8h24v-64c0-14.082-10.449-25.768-24-27.715z" fill="#4c241d"/><path d="m48 238c-4.418 0-8-3.582-8-8v-32h16v32c0 4.418-3.582 8-8 8z" fill="#6b4f5b"/><path d="m48 242c-6.617 0-12-5.383-12-12v-32c0-2.209 1.789-4 4-4h16c2.211 0 4 1.791 4 4v32c0 6.617-5.383 12-12 12zm-4-40v28c0 2.205 1.793 4 4 4s4-1.795 4-4v-28z" fill="#4c241d"/><path d="m240 170h24v84h-24z" fill="#bf7e68"/><path d="m264 258h-24c-2.211 0-4-1.791-4-4v-84c0-2.209 1.789-4 4-4h24c2.211 0 4 1.791 4 4v84c0 2.209-1.789 4-4 4zm-20-8h16v-76h-16z" fill="#4c241d"/></svg>