<svg id="austronaut" enable-background="new 0 0 300 300" height="512" viewBox="0 0 300 300" width="512" xmlns="http://www.w3.org/2000/svg"><circle cx="130.648" cy="129.001" fill="#e5efef" r="92"/><path d="m231.686 205.994c-12.815 13.988-32.679 23.007-55.038 23.007-23.289 0-43.862-9.787-56.588-24.783-10.713 6.765-17.412 18.767-17.412 31.881v32.902h144v-32.902c0-12.062-5.718-23.131-14.962-30.105z" fill="#fff"/><path d="m246.648 273.001h-144c-2.209 0-4-1.789-4-4v-32.902c0-14.457 7.207-27.637 19.275-35.262 1.686-1.059 3.898-.723 5.186.793 12.42 14.637 32.434 23.371 53.539 23.371 20.461 0 39.449-7.914 52.09-21.711 1.398-1.52 3.715-1.727 5.359-.488 10.363 7.82 16.551 20.27 16.551 33.297v32.902c0 2.211-1.789 4-4 4zm-140-8h136v-28.902c0-9.352-3.938-18.328-10.68-24.648-14.07 13.742-34.008 21.551-55.32 21.551-22.098 0-43.188-8.715-57.193-23.469-8.074 6.312-12.807 16.016-12.807 26.566z" fill="#4c241d"/><path d="m176.648 229.001c22.359 0 42.223-9.019 55.038-23.007-2.113-1.594-4.351-3.044-6.814-4.164l-34.347-15.612c.031-.409.123-.8.123-1.217v-8h-32v8c0 .417.091.808.123 1.217l-34.347 15.612c-1.525.693-2.97 1.508-4.364 2.388 12.726 14.996 33.3 24.783 56.588 24.783z" fill="#c1dbdc"/><g fill="#4c241d"><path d="m176.648 233.001c-23.422 0-45.717-9.793-59.637-26.191-.75-.883-1.08-2.047-.906-3.191.176-1.145.838-2.16 1.816-2.777 1.68-1.066 3.264-1.934 4.844-2.652l31.883-14.488v-6.699c0-2.211 1.789-4 4-4h32c2.211 0 4 1.789 4 4v6.699l31.879 14.488c2.465 1.121 4.941 2.629 7.57 4.609.898.68 1.469 1.707 1.574 2.828.102 1.125-.273 2.238-1.035 3.07-14.152 15.445-35.289 24.304-57.988 24.304zm-50.16-27.715c12.504 12.422 30.875 19.715 50.16 19.715 18.758 0 36.27-6.648 48.797-18.383-.75-.43-1.488-.809-2.23-1.148l-34.344-15.609c-1.527-.695-2.461-2.27-2.332-3.945.02-.238.047-.477.078-.711l.016-4.203h-23.984v4c.062.438.09.676.109.914.129 1.676-.805 3.25-2.332 3.945z"/><path d="m130.648 273.001c-2.209 0-4-1.789-4-4v-20c0-2.211 1.791-4 4-4s4 1.789 4 4v20c0 2.211-1.791 4-4 4z"/><path d="m214.648 273.001c-2.211 0-4-1.789-4-4v-20c0-2.211 1.789-4 4-4s4 1.789 4 4v20c0 2.211-1.789 4-4 4z"/><path d="m256.648 193.001c-7.719 0-14-6.281-14-14s6.281-14 14-14 14 6.281 14 14-6.281 14-14 14zm0-20c-3.309 0-6 2.691-6 6s2.691 6 6 6 6-2.691 6-6-2.691-6-6-6z"/><circle cx="256.648" cy="99.001" r="4.529"/><circle cx="196.648" cy="39.001" r="4.529"/><circle cx="72.648" cy="243.001" r="4.529"/><path d="m247.3 58.349c-1.023 0-2.047-.391-2.828-1.172-1.562-1.562-1.562-4.094 0-5.656l14.695-14.695c1.562-1.562 4.094-1.562 5.656 0s1.562 4.094 0 5.656l-14.695 14.695c-.781.781-1.804 1.172-2.828 1.172z"/><path d="m261.996 58.349c-1.023 0-2.047-.391-2.828-1.172l-14.695-14.695c-1.562-1.562-1.562-4.094 0-5.656s4.094-1.562 5.656 0l14.695 14.695c1.562 1.562 1.562 4.094 0 5.656-.781.781-1.805 1.172-2.828 1.172z"/><path d="m107.3 58.349c-1.023 0-2.047-.391-2.828-1.172-1.562-1.562-1.562-4.094 0-5.656l14.695-14.695c1.562-1.562 4.094-1.562 5.656 0s1.562 4.094 0 5.656l-14.695 14.695c-.781.781-1.804 1.172-2.828 1.172z"/><path d="m121.996 58.349c-1.023 0-2.047-.391-2.828-1.172l-14.695-14.695c-1.562-1.562-1.562-4.094 0-5.656s4.094-1.562 5.656 0l14.695 14.695c1.562 1.562 1.562 4.094 0 5.656-.781.781-1.805 1.172-2.828 1.172z"/><path d="m47.3 210.349c-1.023 0-2.047-.391-2.828-1.172-1.562-1.562-1.562-4.094 0-5.656l14.695-14.695c1.562-1.562 4.094-1.562 5.656 0s1.562 4.094 0 5.656l-14.695 14.695c-.781.781-1.804 1.172-2.828 1.172z"/></g><path d="m39.05 93.001h54.562c4.619 0 7.306-5.035 4.621-8.659l-31.585-39.341-32.375 39.562c-2.429 3.645.284 8.438 4.777 8.438z" fill="#9dc1e4"/><path d="m93.613 97.001h-54.563c-3.613 0-6.898-1.945-8.576-5.078-1.648-3.082-1.473-6.664.471-9.578l32.607-39.875c.76-.93 1.896-1.469 3.096-1.469h.02c1.205.004 2.344.555 3.1 1.496l31.586 39.34c2.209 2.977 2.535 6.715.941 9.875-1.643 3.262-4.969 5.289-8.682 5.289zm-26.994-45.648-29.25 35.746c-.135.234-.01.73.16 1.047.137.258.561.855 1.521.855h54.563c.984 0 1.404-.621 1.537-.887.242-.48.199-.949-.131-1.391z" fill="#4c241d"/><path d="m61.996 210.349c-1.023 0-2.047-.391-2.828-1.172l-14.695-14.695c-1.562-1.562-1.562-4.094 0-5.656s4.094-1.562 5.656 0l14.695 14.695c1.562 1.562 1.562 4.094 0 5.656-.781.781-1.805 1.172-2.828 1.172z" fill="#4c241d"/><path d="m82.648 62.001v31h-32s0-20.299 0-31c0-17.121 16-31 16-31s16 13.879 16 31z" fill="#ffce56"/><path d="m82.648 97.001h-32c-2.209 0-4-1.789-4-4v-31c0-18.73 16.67-33.406 17.379-34.023 1.504-1.305 3.738-1.305 5.242 0 .709.617 17.379 15.293 17.379 34.023v31c0 2.211-1.791 4-4 4zm-28-8h24v-27c0-11.09-7.785-20.891-11.994-25.383-4.209 4.504-12.006 14.344-12.006 25.383z" fill="#4c241d"/><path d="m68.123 115.926-2.642 3.075-2.652-3.183c-5.29-6.348-8.181-14.306-8.181-22.517v-.3h22c0 8.394-3.02 16.516-8.525 22.925z" fill="#f53e28"/><path d="m65.48 123.001c-.01 0-.021 0-.031 0-1.178-.008-2.289-.535-3.043-1.441l-2.65-3.184c-5.873-7.043-9.107-15.949-9.107-25.074 0-2.211 1.791-4.301 4-4.301h22c2.209 0 4 1.789 4 4 0 9.336-3.371 18.402-9.49 25.531 0 0-.002 0-.002.004l-2.643 3.074c-.76.883-1.868 1.391-3.034 1.391zm-6.588-26c.719 5.844 3.01 11.277 6.635 15.797 3.74-4.551 6.107-10.035 6.861-15.797z" fill="#4c241d"/><path d="m66.648 69.001h-16c-2.209 0-4-1.789-4-4s1.791-4 4-4h16c2.209 0 4 1.789 4 4s-1.791 4-4 4z" fill="#4c241d"/><path d="m50.648 141.001c-2.209 0-4-1.789-4-4v-16c0-2.211 1.791-4 4-4s4 1.789 4 4v16c0 2.211-1.791 4-4 4z" fill="#4c241d"/><path d="m82.648 141.001c-2.209 0-4-1.789-4-4v-16c0-2.211 1.791-4 4-4s4 1.789 4 4v16c0 2.211-1.791 4-4 4z" fill="#4c241d"/><path d="m66.648 159.001c-2.209 0-4-1.789-4-4v-16c0-2.211 1.791-4 4-4s4 1.789 4 4v16c0 2.211-1.791 4-4 4z" fill="#4c241d"/><path d="m213.615 177.001h-77.934c-11.616 0-21.033-9.417-21.033-21.033v-38.967c0-33.137 26.863-60 60-60 33.137 0 60 26.863 60 60v38.967c0 11.616-9.417 21.033-21.033 21.033z" fill="#fff"/><path d="m213.617 181.001h-77.936c-13.803 0-25.033-11.23-25.033-25.031v-38.969c0-35.289 28.711-64 64-64s64 28.711 64 64v38.969c0 13.801-11.23 25.031-25.031 25.031zm-38.969-120c-30.879 0-56 25.121-56 56v38.969c0 9.391 7.641 17.031 17.033 17.031h77.936c9.391 0 17.031-7.641 17.031-17.031v-38.969c0-30.879-25.121-56-56-56z" fill="#4c241d"/><path d="m195.67 157.001h-42.044c-10.481 0-18.978-8.497-18.978-18.978v-22.044c0-10.481 8.497-18.978 18.978-18.978h42.044c10.481 0 18.978 8.497 18.978 18.978v22.044c0 10.481-8.497 18.978-18.978 18.978z" fill="#e7d1c4"/><path d="m195.672 161.001h-42.047c-12.668 0-22.977-10.309-22.977-22.977v-22.047c0-12.668 10.309-22.977 22.977-22.977h42.047c12.668 0 22.977 10.309 22.977 22.977v22.047c-.001 12.668-10.309 22.977-22.977 22.977zm-42.047-60c-8.258 0-14.977 6.719-14.977 14.977v22.047c0 8.258 6.719 14.977 14.977 14.977h42.047c8.258 0 14.977-6.719 14.977-14.977v-22.047c0-8.258-6.719-14.977-14.977-14.977z" fill="#4c241d"/><path d="m111.875 115.001h1.773c.552 0 1 .448 1 1v34c0 .552-.448 1-1 1h-1.773c-7.305 0-13.227-5.922-13.227-13.227v-9.547c0-7.304 5.922-13.226 13.227-13.226z" fill="#9dc1e4"/><path d="m113.648 155.001h-1.773c-9.498 0-17.227-7.727-17.227-17.227v-9.547c0-9.5 7.729-17.227 17.227-17.227h1.773c2.758 0 5 2.242 5 5v34c0 2.759-2.242 5.001-5 5.001zm-3-35.918c-4.51.602-8 4.473-8 9.145v9.547c0 4.672 3.49 8.543 8 9.145zm3-.082h.039z" fill="#4c241d"/><path d="m237.422 153.001h-1.773c-.552 0-1-.448-1-1v-34c0-.552.448-1 1-1h1.773c7.305 0 13.227 5.922 13.227 13.227v9.547c-.001 7.304-5.923 13.226-13.227 13.226z" fill="#9dc1e4"/><path d="m237.422 157.001h-1.773c-2.758 0-5-2.242-5-5v-34c0-2.758 2.242-5 5-5h1.773c9.5 0 17.227 7.727 17.227 17.227v9.547c-.001 9.499-7.727 17.226-17.227 17.226zm1.226-35.918v27.836c4.512-.602 8-4.473 8-9.145v-9.547c0-4.671-3.488-8.542-8-9.144z" fill="#4c241d"/><circle cx="196.046" cy="121.27" fill="#4c241d" r="4.107"/><circle cx="154.979" cy="121.27" fill="#4c241d" r="4.107"/><path d="m136.648 137.001v2.747c0 9.529 8.497 17.253 18.978 17.253h38.043c10.481 0 18.978-7.725 18.978-17.253v-2.747z" fill="#c1dbdc"/><path d="m193.672 161.001h-38.047c-12.668 0-22.977-9.535-22.977-21.254v-2.746c0-2.211 1.791-4 4-4h76c2.211 0 4 1.789 4 4v2.746c0 11.719-10.308 21.254-22.976 21.254zm-52.957-20c.715 6.723 7.129 12 14.91 12h38.047c7.781 0 14.195-5.277 14.91-12z" fill="#4c241d"/></svg>