<svg id="nurse-doctor" enable-background="new 0 0 300 300" height="512" viewBox="0 0 300 300" width="512" xmlns="http://www.w3.org/2000/svg"><circle cx="132" cy="129.265" fill="#e5efef" r="92"/><path d="m188 141.265h80v108h-80z" fill="#fff"/><g fill="#4c241d"><path d="m268 253.265h-80c-2.209 0-4-1.789-4-4v-108c0-2.211 1.791-4 4-4h80c2.209 0 4 1.789 4 4v108c0 2.211-1.791 4-4 4zm-76-8h72v-100h-72z"/><path d="m232 169.265h-24c-2.209 0-4-1.789-4-4s1.791-4 4-4h24c2.209 0 4 1.789 4 4s-1.791 4-4 4z"/><path d="m252 189.265h-44c-2.209 0-4-1.789-4-4s1.791-4 4-4h44c2.209 0 4 1.789 4 4s-1.791 4-4 4z"/><path d="m252 209.265h-44c-2.209 0-4-1.789-4-4s1.791-4 4-4h44c2.209 0 4 1.789 4 4s-1.791 4-4 4z"/><path d="m252 229.265h-44c-2.209 0-4-1.789-4-4s1.791-4 4-4h44c2.209 0 4 1.789 4 4s-1.791 4-4 4z"/><path d="m46 61.265c-7.719 0-14-6.281-14-14s6.281-14 14-14 14 6.281 14 14-6.281 14-14 14zm0-20c-3.309 0-6 2.691-6 6s2.691 6 6 6 6-2.691 6-6-2.691-6-6-6z"/><circle cx="242" cy="91.265" r="4.529"/><circle cx="94" cy="167.265" r="4.529"/><circle cx="78" cy="35.265" r="4.529"/><path d="m236.652 58.612c-1.023 0-2.047-.391-2.828-1.172-1.562-1.562-1.562-4.094 0-5.656l14.695-14.695c1.562-1.562 4.094-1.562 5.656 0s1.562 4.094 0 5.656l-14.695 14.696c-.781.781-1.804 1.171-2.828 1.171z"/><path d="m251.348 58.612c-1.023 0-2.047-.391-2.828-1.172l-14.695-14.695c-1.562-1.562-1.562-4.094 0-5.656s4.094-1.562 5.656 0l14.695 14.695c1.562 1.562 1.562 4.094 0 5.656-.781.782-1.805 1.172-2.828 1.172z"/><path d="m52.652 126.612c-1.023 0-2.047-.391-2.828-1.172-1.562-1.562-1.562-4.094 0-5.656l14.695-14.695c1.562-1.562 4.094-1.562 5.656 0s1.562 4.094 0 5.656l-14.695 14.696c-.781.781-1.804 1.171-2.828 1.171z"/><path d="m67.348 126.612c-1.023 0-2.047-.391-2.828-1.172l-14.695-14.695c-1.562-1.562-1.562-4.094 0-5.656s4.094-1.562 5.656 0l14.695 14.695c1.562 1.562 1.562 4.094 0 5.656-.781.782-1.805 1.172-2.828 1.172z"/></g><path d="m228 265.265h-144v-32.902c0-14.82 8.534-28.25 21.776-34.269l50.224-22.829 50.224 22.829c13.242 6.019 21.776 19.449 21.776 34.269z" fill="#fff"/><path d="m228 269.265h-144c-2.209 0-4-1.789-4-4v-32.902c0-16.371 9.467-31.25 24.119-37.91l50.227-22.828c1.051-.477 2.258-.477 3.309 0l50.225 22.828c14.654 6.66 24.121 21.539 24.121 37.91v32.902c-.001 2.211-1.792 4-4.001 4zm-140-8h136v-28.902c0-13.238-7.627-25.262-19.432-30.629l-48.568-22.075-48.57 22.074c-11.803 5.368-19.43 17.391-19.43 30.629z" fill="#4c241d"/><path d="m156 201.265c-8.837 0-16-7.163-16-16v-8h32v8c0 8.836-7.163 16-16 16z" fill="#e7d1c4"/><path d="m156 205.265c-11.027 0-20-8.973-20-20v-8c0-2.211 1.791-4 4-4h32c2.209 0 4 1.789 4 4v8c0 11.027-8.973 20-20 20zm-12-24v4c0 6.617 5.383 12 12 12s12-5.383 12-12v-4z" fill="#4c241d"/><path d="m208 119.265c-.294 0-.336-2.941-.288-6.301.083-5.821-3.813-10.999-9.466-12.394-27.643-6.821-57.325-5.547-84.267 2.727-3.531 1.084-5.848 4.473-5.744 8.166.105 3.746.133 7.801-.236 7.801-5.644 0-10.196 4.676-9.993 10.365.114 3.199 2.081 6.09 4.734 7.88 3.217 2.171 5.98 2.017 8.431 1.192 3.968 19.359 18.022 35.548 37.427 41.794 5.563 1.791 11.581 1.62 17.141-.182l1.775-.575c19.093-6.188 33.023-22.039 37.173-41.079 2.441.861 5.222 1.012 8.371-.95 2.549-1.588 4.495-4.194 4.862-7.174.752-6.09-3.979-11.27-9.92-11.27z" fill="#e7d1c4"/><path d="m156.754 185.765c-3.197 0-6.354-.484-9.381-1.461-19.199-6.18-33.932-21.711-39.221-41.035-2.568.02-5.174-.77-7.65-2.441-3.91-2.641-6.34-6.77-6.494-11.051-.135-3.844 1.256-7.477 3.92-10.234 1.781-1.848 3.973-3.137 6.377-3.789.002-.977-.016-2.324-.066-4.18-.156-5.523 3.367-10.5 8.566-12.102 28.066-8.621 58.746-9.609 86.4-2.785 7.473 1.844 12.617 8.559 12.508 16.332-.018 1.141-.02 2.039-.016 2.742 2.602.715 4.971 2.172 6.793 4.23 2.656 3.004 3.895 7.023 3.402 11.031-.492 3.996-3.004 7.766-6.715 10.082-2.422 1.508-4.992 2.238-7.525 2.152-5.443 18.934-20.055 34.176-38.904 40.285l-1.77.578c-3.39 1.099-6.832 1.646-10.224 1.646zm-45.582-51.063c.693 0 1.381.18 1.994.531.994.574 1.693 1.543 1.924 2.664 3.738 18.234 17.047 33.098 34.736 38.789 4.568 1.473 9.779 1.406 14.682-.176l1.77-.578c17.387-5.633 30.605-20.242 34.504-38.125.244-1.121.959-2.086 1.963-2.645 1.002-.551 2.193-.664 3.279-.273 1.814.637 3.24.469 4.924-.574 1.68-1.051 2.805-2.645 3.004-4.27.217-1.762-.299-3.449-1.453-4.754-1.141-1.289-2.779-2.027-4.498-2.027-1.07 0-2.137-.449-2.889-1.211-1.311-1.332-1.494-2.527-1.398-9.148.057-3.965-2.646-7.52-6.424-8.453-26.268-6.477-55.43-5.531-82.135 2.668-1.773.543-2.975 2.285-2.92 4.23.229 8.285-.027 9.352-1.32 10.68-.754.773-1.834 1.234-2.914 1.234-1.643 0-3.176.652-4.316 1.832-1.143 1.184-1.738 2.742-1.68 4.395.061 1.703 1.201 3.508 2.973 4.703 1.957 1.32 3.338 1.25 4.92.715.414-.136.844-.207 1.274-.207zm100.617-16.476h.041z" fill="#4c241d"/><circle cx="178" cy="135.265" fill="#4c241d" r="4"/><circle cx="138" cy="135.265" fill="#4c241d" r="4"/><path d="m208 100.755c0-63.49-100-59.49-99.78-8.15.025 5.763.146 12.021.087 16.344 10.93.374 21.141-3.243 27.89-10.021 11.638 22.604 44.081 31.871 71.803 10.216 0-8.389 0-4.777 0-8.389z" fill="#6b4f5b"/><path d="m174.654 125.433c-3.629 0-7.25-.387-10.832-1.176-11.961-2.625-22.158-9.508-28.637-19.184-7.25 5.395-16.854 8.23-27.016 7.871-2.176-.074-3.893-1.875-3.863-4.051.037-2.715.002-6.199-.035-9.84l-.051-6.434c-.062-14.684 7.357-27.105 20.893-34.973 18.449-10.719 44.275-10.766 62.799-.109 15.533 8.943 24.088 24.286 24.088 43.216v8.391c0 1.23-.566 2.395-1.537 3.152-11.057 8.637-23.463 13.137-35.809 13.137zm-38.457-30.504c.203 0 .408.016.613.047 1.264.195 2.357.984 2.943 2.121 5.049 9.809 14.447 16.859 25.783 19.348 12.855 2.816 26.443-.477 38.463-9.289v-6.402c0-20.438-10.918-31.008-20.078-36.281-15.904-9.148-38.947-9.113-54.789.094-7.75 4.504-16.977 13.023-16.912 28.023l.051 6.387c.021 2.059.041 4.07.049 5.926 8.369-.512 15.891-3.621 21.043-8.797.756-.759 1.78-1.177 2.834-1.177zm71.803 14.215h.039z" fill="#4c241d"/><path d="m108 41.265h100v48h-100z" fill="#fff"/><path d="m208 93.265h-100c-2.209 0-4-1.789-4-4v-48c0-2.211 1.791-4 4-4h100c2.209 0 4 1.789 4 4v48c0 2.211-1.791 4-4 4zm-96-8h92v-40h-92z" fill="#4c241d"/><path d="m156 81.265c-2.209 0-4-1.789-4-4v-24c0-2.211 1.791-4 4-4s4 1.789 4 4v24c0 2.211-1.791 4-4 4z" fill="#4c241d"/><path d="m168 69.265h-24c-2.209 0-4-1.789-4-4s1.791-4 4-4h24c2.209 0 4 1.789 4 4s-1.791 4-4 4z" fill="#4c241d"/><path d="m140 241.265c-2.209 0-4-1.789-4-4v-12.168c0-4.32-3.514-7.832-7.834-7.832-4.318 0-7.832 3.512-7.832 7.832v12.168c0 2.211-1.791 4-4 4s-4-1.789-4-4v-12.168c0-8.73 7.102-15.832 15.832-15.832s15.834 7.101 15.834 15.832v12.168c0 2.211-1.791 4-4 4z" fill="#4c241d"/><path d="m128 217.265c-2.209 0-4-1.789-4-4v-24c0-2.211 1.791-4 4-4s4 1.789 4 4v24c0 2.211-1.791 4-4 4z" fill="#4c241d"/><path d="m184 229.265c-2.209 0-4-1.789-4-4v-36c0-2.211 1.791-4 4-4s4 1.789 4 4v36c0 2.211-1.791 4-4 4z" fill="#4c241d"/><circle cx="184" cy="233.265" fill="#f53e28" r="8"/><path d="m184 245.265c-6.617 0-12-5.383-12-12s5.383-12 12-12 12 5.383 12 12-5.383 12-12 12zm0-16c-2.205 0-4 1.793-4 4s1.795 4 4 4 4-1.793 4-4-1.795-4-4-4z" fill="#4c241d"/><path d="m32 209.265h72v56h-72z" fill="#9dc1e4"/><path d="m104 269.265h-72c-2.209 0-4-1.789-4-4v-56c0-2.211 1.791-4 4-4h72c2.209 0 4 1.789 4 4v56c0 2.211-1.791 4-4 4zm-68-8h64v-48h-64z" fill="#4c241d"/><path d="m68 249.265c-2.209 0-4-1.789-4-4v-15.551c0-2.211 1.791-4 4-4s4 1.789 4 4v15.551c0 2.211-1.791 4-4 4z" fill="#4c241d"/><path d="m76 241.265h-16c-2.209 0-4-1.789-4-4s1.791-4 4-4h16c2.209 0 4 1.789 4 4s-1.791 4-4 4z" fill="#4c241d"/><path d="m88 213.265h-40c-2.209 0-4-1.789-4-4v-16c0-2.211 1.791-4 4-4h40c2.209 0 4 1.789 4 4v16c0 2.211-1.791 4-4 4zm-36-8h32v-8h-32z" fill="#4c241d"/><path d="m156 266.968c-2.209 0-4-1.789-4-4v-61.703c0-2.211 1.791-4 4-4s4 1.789 4 4v61.703c0 2.211-1.791 4-4 4z" fill="#4c241d"/></svg>