<svg id="farmer" enable-background="new 0 0 300 300" height="512" viewBox="0 0 300 300" width="512" xmlns="http://www.w3.org/2000/svg"><circle cx="128.927" cy="118" fill="#e5efef" r="92"/><g fill="#4c241d"><path d="m238.927 62c-7.719 0-14-6.281-14-14s6.281-14 14-14 14 6.281 14 14-6.282 14-14 14zm0-20c-3.309 0-6 2.691-6 6s2.691 6 6 6 6-2.691 6-6-2.692-6-6-6z"/><circle cx="254.927" cy="96" r="4.529"/><path d="m37.579 63.348c-1.023 0-2.047-.391-2.828-1.172-1.562-1.562-1.562-4.094 0-5.656l14.695-14.695c1.562-1.562 4.094-1.562 5.656 0s1.562 4.094 0 5.656l-14.695 14.695c-.781.781-1.805 1.172-2.828 1.172z"/><path d="m52.274 63.348c-1.023 0-2.047-.391-2.828-1.172l-14.695-14.696c-1.562-1.562-1.562-4.094 0-5.656s4.094-1.562 5.656 0l14.695 14.696c1.562 1.562 1.562 4.094 0 5.656-.781.781-1.804 1.172-2.828 1.172z"/></g><path d="m188.927 88h-100v-28c32.127-16.359 65.601-14.449 100 0z" fill="#ffce56"/><path d="m188.927 92h-100c-2.209 0-4-1.791-4-4v-28c0-1.504.844-2.881 2.186-3.564 31.527-16.057 65.34-16.096 103.363-.123 1.484.623 2.451 2.076 2.451 3.688v28c0 2.208-1.791 3.999-4 3.999zm-96-8h92v-21.32c-33.84-13.635-63.984-13.703-92-.197z" fill="#4c241d"/><path d="m212.927 270h-148v-32.902c0-14.82 8.771-28.25 22.381-34.269l51.619-22.829 51.619 22.829c13.61 6.019 22.381 19.449 22.381 34.269z" fill="#c1dbdc"/><path d="m212.927 274h-148c-2.209 0-4-1.791-4-4v-32.902c0-16.387 9.721-31.273 24.764-37.926l51.619-22.83c1.027-.457 2.207-.457 3.234 0l51.619 22.83c15.043 6.652 24.764 21.539 24.764 37.926v32.902c0 2.209-1.791 4-4 4zm-144-8h140v-28.902c0-13.223-7.85-25.238-19.998-30.609l-50.002-22.115-50.002 22.115c-12.148 5.371-19.998 17.387-19.998 30.609z" fill="#4c241d"/><ellipse cx="136.927" cy="100" fill="#ffce56" rx="86" ry="20"/><path d="m136.927 124c-31.129 0-90-5.016-90-24s58.871-24 90-24 90 5.016 90 24-58.872 24-90 24zm0-40c-53.057 0-82 10.57-82 16s28.943 16 82 16 82-10.57 82-16-28.944-16-82-16z" fill="#4c241d"/><path d="m138.927 222c-9.941 0-18-8.059-18-18v-34h36v34c0 9.941-8.059 18-18 18z" fill="#e7d1c4"/><path d="m138.927 226c-12.131 0-22-9.869-22-22v-34c0-2.209 1.791-4 4-4h36c2.209 0 4 1.791 4 4v34c0 12.131-9.87 22-22 22zm-14-52v30c0 7.719 6.281 14 14 14s14-6.281 14-14v-30z" fill="#4c241d"/><path d="m188.927 120c-.294 0-.336-2.941-.288-6.301.083-5.821-3.813-10.999-9.466-12.394-27.643-6.821-57.325-5.547-84.267 2.727-3.531 1.084-5.848 4.473-5.744 8.166.105 3.746.133 7.801-.236 7.801-5.644 0-10.196 4.676-9.993 10.365.114 3.199 2.081 6.09 4.734 7.88 3.217 2.171 5.98 2.017 8.431 1.192 3.968 19.359 18.022 35.548 37.427 41.794 5.563 1.791 11.581 1.62 17.141-.182l1.775-.575c19.093-6.188 33.023-22.039 37.173-41.079 2.441.861 5.222 1.012 8.371-.95 2.549-1.588 4.495-4.194 4.862-7.174.751-6.09-3.98-11.27-9.92-11.27z" fill="#e7d1c4"/><path d="m137.679 186.502c-3.193 0-6.348-.486-9.377-1.461-19.201-6.182-33.934-21.713-39.223-41.039-2.621.061-5.174-.77-7.648-2.439-3.914-2.643-6.342-6.773-6.496-11.053-.135-3.842 1.256-7.475 3.918-10.232 1.783-1.846 3.975-3.137 6.379-3.789 0-.979-.016-2.326-.066-4.178-.156-5.529 3.369-10.506 8.568-12.102 28.064-8.619 58.748-9.611 86.398-2.785 7.473 1.842 12.617 8.559 12.508 16.332-.018 1.139-.02 2.037-.016 2.742 2.602.713 4.971 2.17 6.793 4.23 2.656 3.002 3.895 7.021 3.402 11.029-.494 4-3.004 7.77-6.717 10.082-2.418 1.506-4.914 2.252-7.523 2.152-5.441 18.932-20.053 34.176-38.902 40.287l-1.779.576c-3.385 1.097-6.825 1.648-10.219 1.648zm-45.581-51.064c.693 0 1.381.18 1.994.533.994.57 1.693 1.541 1.924 2.664 3.738 18.232 17.049 33.096 34.736 38.791 4.568 1.469 9.785 1.404 14.68-.182l1.779-.576c17.379-5.633 30.598-20.242 34.496-38.125.244-1.121.959-2.084 1.961-2.643 1.004-.561 2.199-.658 3.277-.277 1.814.643 3.242.477 4.928-.574 1.68-1.047 2.805-2.643 3.004-4.268.217-1.76-.299-3.447-1.453-4.754-1.141-1.289-2.779-2.027-4.498-2.027-1.07 0-2.137-.449-2.889-1.211-1.311-1.332-1.494-2.527-1.398-9.148.057-4.027-2.584-7.504-6.424-8.451-26.27-6.48-55.432-5.531-82.135 2.668-1.773.545-2.975 2.283-2.92 4.23.229 8.281-.027 9.348-1.32 10.678-.754.775-1.834 1.234-2.914 1.234-1.643 0-3.176.65-4.318 1.834-1.141 1.182-1.736 2.74-1.678 4.391.061 1.703 1.201 3.508 2.975 4.707 1.949 1.314 3.379 1.236 4.918.715.416-.141.846-.209 1.275-.209zm100.618-16.479h.041z" fill="#4c241d"/><circle cx="158.927" cy="136" fill="#4c241d" r="4"/><circle cx="118.927" cy="136" fill="#4c241d" r="4"/><path d="m244.927 274c-2.209 0-4-1.791-4-4v-80c0-2.209 1.791-4 4-4s4 1.791 4 4v80c0 2.209-1.791 4-4 4z" fill="#4c241d"/><path d="m261.759 165.281c-5.854 5.854-15.9 5.3-15.9 5.3s-.554-10.046 5.3-15.9 15.9-5.3 15.9-5.3.554 10.046-5.3 15.9z" fill="#ffce56"/><path d="m246.544 174.594c-.514 0-.832-.016-.904-.02-2.035-.113-3.66-1.738-3.773-3.773-.027-.482-.572-11.91 6.465-18.947s18.471-6.498 18.949-6.467c2.035.113 3.66 1.738 3.773 3.773.027.482.572 11.91-6.467 18.949-5.981 5.981-15.133 6.485-18.043 6.485zm16.258-20.955c-2.766.408-6.359 1.416-8.814 3.871-2.453 2.453-3.461 6.047-3.869 8.812 2.764-.408 6.357-1.416 8.812-3.869 2.455-2.455 3.46-6.049 3.871-8.814z" fill="#4c241d"/><path d="m252.712 144.99c0 8.279-7.495 14.99-7.495 14.99s-7.495-6.711-7.495-14.99 7.495-14.99 7.495-14.99 7.495 6.711 7.495 14.99z" fill="#ffce56"/><path d="m245.216 163.98c-.955 0-1.908-.34-2.668-1.02-.361-.324-8.826-8.018-8.826-17.971s8.465-17.646 8.826-17.971c1.52-1.359 3.816-1.359 5.336 0 .361.322 8.828 8.018 8.828 17.971s-8.467 17.648-8.828 17.971c-.76.681-1.713 1.02-2.668 1.02zm0-27.959c-1.666 2.244-3.494 5.498-3.494 8.969s1.828 6.723 3.494 8.969c1.666-2.244 3.496-5.498 3.496-8.969s-1.828-6.722-3.496-8.969z" fill="#4c241d"/><path d="m261.759 184.019c-5.854 5.854-15.9 5.3-15.9 5.3s-.554-10.046 5.3-15.9 15.9-5.3 15.9-5.3.554 10.046-5.3 15.9z" fill="#ffce56"/><path d="m246.544 193.332c-.514 0-.832-.016-.904-.02-2.035-.113-3.66-1.738-3.773-3.773-.027-.482-.572-11.91 6.465-18.947s18.471-6.49 18.949-6.467c2.035.113 3.66 1.738 3.773 3.773.027.482.572 11.91-6.467 18.949-5.981 5.981-15.133 6.485-18.043 6.485zm16.258-20.955c-2.766.408-6.359 1.416-8.814 3.871-2.453 2.453-3.461 6.047-3.869 8.812 2.764-.408 6.357-1.416 8.812-3.869 2.455-2.455 3.46-6.048 3.871-8.814z" fill="#4c241d"/><path d="m261.759 202.757c-5.854 5.854-15.9 5.3-15.9 5.3s-.554-10.046 5.3-15.9 15.9-5.3 15.9-5.3.554 10.046-5.3 15.9z" fill="#ffce56"/><path d="m246.544 212.07c-.514 0-.832-.016-.904-.02-2.035-.113-3.66-1.738-3.773-3.773-.027-.482-.572-11.91 6.465-18.949 7.043-7.039 18.48-6.488 18.949-6.465 2.035.113 3.66 1.738 3.773 3.773.027.482.572 11.91-6.467 18.949-5.981 5.981-15.133 6.485-18.043 6.485zm16.258-20.955c-2.766.408-6.359 1.416-8.814 3.869-2.445 2.447-3.453 6.047-3.865 8.814 2.764-.41 6.355-1.416 8.809-3.869 2.454-2.454 3.459-6.048 3.87-8.814z" fill="#4c241d"/><path d="m261.759 221.495c-5.854 5.854-15.9 5.3-15.9 5.3s-.554-10.046 5.3-15.9 15.9-5.3 15.9-5.3.554 10.046-5.3 15.9z" fill="#ffce56"/><path d="m246.544 230.809c-.514 0-.832-.016-.904-.02-2.035-.113-3.66-1.738-3.773-3.773-.027-.482-.572-11.91 6.465-18.949 7.043-7.039 18.48-6.486 18.949-6.465 2.035.113 3.66 1.738 3.773 3.773.027.482.572 11.91-6.467 18.947-5.981 5.983-15.133 6.487-18.043 6.487zm16.252-20.955c-2.764.41-6.355 1.416-8.809 3.869-2.445 2.447-3.453 6.047-3.863 8.812 2.762-.408 6.354-1.416 8.807-3.869 2.447-2.447 3.455-6.045 3.865-8.812z" fill="#4c241d"/><path d="m228.36 163.599c5.971 5.971 16.218 5.406 16.218 5.406s.565-10.247-5.406-16.218-16.218-5.406-16.218-5.406-.565 10.247 5.406 16.218z" fill="#ffce56"/><path d="m243.882 173.02c-2.957 0-12.27-.51-18.35-6.592-7.152-7.154-6.6-18.775-6.572-19.268.113-2.035 1.738-3.66 3.773-3.773.498-.02 12.117-.574 19.268 6.572 7.152 7.152 6.6 18.775 6.572 19.268-.113 2.035-1.738 3.66-3.773 3.773-.075.004-.399.02-.918.02zm-12.694-12.249c2.541 2.541 6.291 3.568 9.141 3.98-.408-2.846-1.438-6.588-3.984-9.137-2.541-2.541-6.291-3.568-9.141-3.98.41 2.846 1.437 6.589 3.984 9.137z" fill="#4c241d"/><path d="m228.36 182.712c5.971 5.971 16.218 5.406 16.218 5.406s.565-10.247-5.406-16.218-16.218-5.406-16.218-5.406-.565 10.247 5.406 16.218z" fill="#ffce56"/><path d="m243.878 192.131c-2.963 0-12.268-.512-18.346-6.59-7.152-7.154-6.6-18.775-6.572-19.268.113-2.035 1.738-3.66 3.773-3.773.498-.025 12.117-.576 19.268 6.572 7.152 7.152 6.6 18.773 6.572 19.266-.113 2.035-1.738 3.66-3.773 3.773-.075.004-.399.02-.922.02zm-12.69-12.246c2.549 2.549 6.295 3.576 9.141 3.984-.408-2.846-1.436-6.592-3.984-9.141-2.541-2.541-6.291-3.568-9.141-3.98.41 2.846 1.437 6.588 3.984 9.137z" fill="#4c241d"/><path d="m228.36 201.825c5.971 5.971 16.218 5.406 16.218 5.406s.565-10.247-5.406-16.218-16.218-5.406-16.218-5.406-.565 10.247 5.406 16.218z" fill="#ffce56"/><path d="m243.878 211.244c-2.961 0-12.268-.512-18.346-6.592-7.152-7.152-6.6-18.773-6.572-19.266.113-2.035 1.738-3.66 3.773-3.773.49-.023 12.113-.582 19.268 6.572 7.152 7.152 6.6 18.773 6.572 19.266-.113 2.035-1.738 3.66-3.773 3.773-.075.005-.399.02-.922.02zm-16.674-21.383c.41 2.844 1.438 6.586 3.984 9.135 2.541 2.541 6.291 3.57 9.141 3.98-.408-2.844-1.438-6.586-3.984-9.135-2.541-2.54-6.291-3.57-9.141-3.98z" fill="#4c241d"/><path d="m228.36 220.938c5.971 5.971 16.218 5.406 16.218 5.406s.565-10.247-5.406-16.218-16.218-5.406-16.218-5.406-.565 10.247 5.406 16.218z" fill="#ffce56"/><path d="m243.878 230.357c-2.961 0-12.268-.512-18.346-6.592-7.152-7.152-6.6-18.773-6.572-19.266.113-2.035 1.738-3.66 3.773-3.773.49-.025 12.113-.584 19.268 6.572 7.152 7.152 6.6 18.773 6.572 19.266-.113 2.035-1.738 3.66-3.773 3.773-.075.005-.399.02-.922.02zm-16.674-21.382c.41 2.844 1.438 6.586 3.984 9.135 2.541 2.541 6.291 3.57 9.141 3.98-.408-2.844-1.438-6.586-3.984-9.135-2.541-2.541-6.291-3.57-9.141-3.98z" fill="#4c241d"/><path d="m184.927 274c-2.209 0-4-1.791-4-4v-68c0-2.209 1.791-4 4-4s4 1.791 4 4v68c0 2.209-1.791 4-4 4z" fill="#4c241d"/><path d="m92.927 274c-2.209 0-4-1.791-4-4v-68c0-2.209 1.791-4 4-4s4 1.791 4 4v68c0 2.209-1.791 4-4 4z" fill="#4c241d"/><path d="m92.927 242h92v28h-92z" fill="#a9ba5a"/><path d="m184.927 274h-92c-2.209 0-4-1.791-4-4v-28c0-2.209 1.791-4 4-4h92c2.209 0 4 1.791 4 4v28c0 2.209-1.791 4-4 4zm-88-8h84v-20h-84z" fill="#4c241d"/><path d="m48.927 190c-11.027 0-20-8.973-20-20v-16c0-2.209 1.791-4 4-4s4 1.791 4 4v16c0 6.617 5.383 12 12 12s12-5.383 12-12v-16c0-2.209 1.791-4 4-4s4 1.791 4 4v16c0 11.027-8.973 20-20 20z" fill="#4c241d"/><path d="m49.263 274c-2.209 0-4-1.791-4-4v-114c0-2.209 1.791-4 4-4s4 1.791 4 4v114c0 2.209-1.792 4-4 4z" fill="#4c241d"/><path d="m112.927 102c8.988 10.262 44 36 76 16 0-4-.026-2.277 0-4 .087-5.709-4.049-11.282-9.591-12.652-16.7-4.129-54.409-7.348-66.409.652z" fill="#bf7e68"/><path d="m163.268 129.482c-25.438 0-47.395-18.047-53.352-24.848-.758-.865-1.107-2.018-.955-3.16.15-1.143.787-2.164 1.746-2.803 14.354-9.562 55.043-4.803 69.588-1.207 7.316 1.809 12.746 8.943 12.631 16.596l-.01 1.041.01 2.898c0 1.379-.711 2.66-1.881 3.393-9.322 5.827-18.769 8.09-27.777 8.09zm-43.343-26.244c11.254 9.779 39.002 27.098 64.994 12.49l-.002-.537.01-1.25c.059-3.896-2.881-7.803-6.553-8.711-16.229-4.013-44.875-6.025-58.449-1.992z" fill="#4c241d"/><path d="m89.212 117.907c9.127-2.417 18.205-11.226 24.299-18.321-6.498 1.177-12.915 2.704-19.176 4.633-3.201.986-5.29 4.061-5.189 7.409.066 2.214.111 4.618.066 6.279z" fill="#bf7e68"/><path d="m89.212 121.906c-.891 0-1.768-.299-2.482-.863-.988-.783-1.551-1.984-1.516-3.244.043-1.602-.002-3.918-.066-6.053-.154-5.182 3.139-9.85 8.01-11.35 6.217-1.914 12.824-3.512 19.641-4.746 1.641-.303 3.34.475 4.184 1.947.842 1.469.668 3.311-.436 4.594-6.398 7.449-16.154 16.893-26.311 19.582-.339.09-.682.133-1.024.133zm11.898-15.468c-1.898.506-3.768 1.041-5.598 1.604-1.441.445-2.416 1.871-2.369 3.467.006.168.01.336.016.506 2.521-1.353 5.193-3.228 7.951-5.577z" fill="#4c241d"/></svg>