<svg id="coder" enable-background="new 0 0 300 300" height="512" viewBox="0 0 300 300" width="512" xmlns="http://www.w3.org/2000/svg"><circle cx="134" cy="118" fill="#e5efef" r="92"/><path d="m56 74c-7.719 0-14-6.281-14-14s6.281-14 14-14 14 6.281 14 14-6.281 14-14 14zm0-20c-3.309 0-6 2.691-6 6s2.691 6 6 6 6-2.691 6-6-2.691-6-6-6z" fill="#4c241d"/><path d="m248 262c-7.719 0-14-6.281-14-14s6.281-14 14-14 14 6.281 14 14-6.281 14-14 14zm0-20c-3.309 0-6 2.691-6 6s2.691 6 6 6 6-2.691 6-6-2.691-6-6-6z" fill="#4c241d"/><circle cx="256" cy="84" fill="#4c241d" r="4.529"/><circle cx="88" cy="36" fill="#4c241d" r="4.529"/><path d="m206.652 51.348c-1.023 0-2.047-.391-2.828-1.172-1.562-1.562-1.562-4.094 0-5.656l14.695-14.695c1.562-1.562 4.094-1.562 5.656 0s1.562 4.094 0 5.656l-14.695 14.695c-.781.781-1.804 1.172-2.828 1.172z" fill="#4c241d"/><path d="m221.348 51.348c-1.023 0-2.047-.391-2.828-1.172l-14.696-14.696c-1.562-1.562-1.562-4.094 0-5.656s4.094-1.562 5.656 0l14.695 14.695c1.562 1.562 1.562 4.094 0 5.656-.78.782-1.804 1.173-2.827 1.173z" fill="#4c241d"/><path d="m34 114h132v108h-132z" fill="#fff"/><path d="m166 226h-132c-2.209 0-4-1.791-4-4v-108c0-2.209 1.791-4 4-4h132c2.209 0 4 1.791 4 4v108c0 2.209-1.791 4-4 4zm-128-8h124v-100h-124z" fill="#4c241d"/><path d="m34 194h132v28h-132z" fill="#6b4f5b"/><path d="m166 226h-132c-2.209 0-4-1.791-4-4v-28c0-2.209 1.791-4 4-4h132c2.209 0 4 1.791 4 4v28c0 2.209-1.791 4-4 4zm-128-8h124v-20h-124z" fill="#4c241d"/><path d="m214 270h-144v-32.902c0-14.82 8.534-28.25 21.776-34.269l50.224-22.829 50.224 22.829c13.242 6.019 21.776 19.449 21.776 34.269z" fill="#ffded5"/><path d="m214 274h-144c-2.209 0-4-1.791-4-4v-32.902c0-16.371 9.469-31.25 24.121-37.91l50.225-22.828c1.051-.48 2.258-.48 3.309 0l50.225 22.83c14.651 6.658 24.12 21.537 24.12 37.908v32.902c0 2.209-1.791 4-4 4zm-140-8h136v-28.902c0-13.24-7.627-25.262-19.43-30.625l-48.57-22.078-48.57 22.076c-11.803 5.365-19.43 17.386-19.43 30.627z" fill="#4c241d"/><path d="m142 202c-8.837 0-16-7.163-16-16v-8h32v8c0 8.837-7.163 16-16 16z" fill="#e7d1c4"/><path d="m142 206c-11.027 0-20-8.973-20-20v-8c0-2.209 1.791-4 4-4h32c2.209 0 4 1.791 4 4v8c0 11.027-8.973 20-20 20zm-12-24v4c0 6.617 5.383 12 12 12s12-5.383 12-12v-4z" fill="#4c241d"/><path d="m194 120c-.294 0-.336-2.941-.288-6.301.083-5.821-3.813-10.999-9.466-12.394-27.643-6.821-57.325-5.547-84.267 2.727-3.531 1.084-5.848 4.473-5.744 8.166.106 3.746.134 7.802-.235 7.802-5.644 0-10.196 4.676-9.993 10.365.114 3.199 2.081 6.09 4.734 7.88 3.217 2.171 5.98 2.017 8.431 1.192 3.968 19.359 18.022 35.548 37.427 41.794 5.563 1.791 11.581 1.62 17.141-.182l1.775-.575c19.093-6.188 33.023-22.039 37.173-41.079 2.441.861 5.222 1.012 8.371-.95 2.549-1.588 4.495-4.194 4.862-7.174.751-6.091-3.98-11.271-9.921-11.271z" fill="#e7d1c4"/><path d="m142.752 186.502c-3.193 0-6.348-.486-9.377-1.461-19.201-6.182-33.934-21.713-39.223-41.039-2.611.061-5.174-.77-7.648-2.439-3.914-2.643-6.342-6.773-6.496-11.053-.135-3.842 1.256-7.475 3.918-10.232 1.783-1.846 3.975-3.137 6.379-3.789 0-.979-.016-2.326-.066-4.178-.156-5.529 3.369-10.506 8.568-12.102 28.064-8.619 58.748-9.611 86.398-2.785 7.473 1.842 12.617 8.559 12.508 16.332-.018 1.139-.02 2.037-.016 2.742 2.602.713 4.971 2.17 6.793 4.23 2.656 3.002 3.895 7.021 3.402 11.029-.494 4-3.004 7.77-6.717 10.082-2.418 1.506-4.926 2.252-7.523 2.152-5.441 18.932-20.053 34.176-38.902 40.287l-1.779.576c-3.385 1.097-6.825 1.648-10.219 1.648zm-45.58-51.064c.693 0 1.381.18 1.994.533.994.57 1.693 1.541 1.924 2.664 3.738 18.232 17.049 33.096 34.736 38.791 4.568 1.469 9.783 1.404 14.68-.182l1.779-.576c17.379-5.633 30.598-20.242 34.496-38.125.244-1.121.959-2.084 1.961-2.643 1.002-.561 2.197-.658 3.277-.277 1.818.643 3.242.477 4.928-.574 1.68-1.047 2.805-2.643 3.004-4.268.217-1.76-.299-3.447-1.453-4.754-1.141-1.289-2.779-2.027-4.498-2.027-1.07 0-2.137-.449-2.889-1.211-1.311-1.332-1.494-2.527-1.398-9.148.057-4.027-2.584-7.504-6.424-8.451-26.268-6.48-55.43-5.531-82.135 2.668-1.773.545-2.975 2.283-2.92 4.23.229 8.281-.027 9.348-1.32 10.678-.754.775-1.834 1.234-2.914 1.234-1.643 0-3.176.65-4.318 1.834-1.141 1.182-1.736 2.74-1.678 4.391.061 1.703 1.201 3.508 2.975 4.707 1.949 1.314 3.379 1.236 4.918.715.415-.141.845-.209 1.275-.209zm100.617-16.479h.041z" fill="#4c241d"/><circle cx="164" cy="136" fill="#4c241d" r="4"/><circle cx="124" cy="136" fill="#4c241d" r="4"/><path d="m194 101.49c0-63.49-100-59.49-99.78-8.15.025 5.763.146 12.021.087 16.344 10.93.374 21.141-3.243 27.89-10.021 11.638 22.604 44.081 31.871 71.803 10.216 0-8.389 0-4.777 0-8.389z" fill="#6b4f5b"/><g fill="#4c241d"><path d="m160.654 126.166c-3.629 0-7.25-.387-10.834-1.174-11.961-2.625-22.156-9.51-28.635-19.184-7.246 5.389-16.816 8.246-27.016 7.873-2.176-.074-3.893-1.875-3.863-4.053.037-2.713.002-6.195-.035-9.836l-.051-6.438c-.062-14.684 7.355-27.104 20.893-34.971 18.451-10.725 44.275-10.768 62.797-.109 15.535 8.939 24.09 24.287 24.09 43.216v8.389c0 1.23-.566 2.395-1.537 3.152-11.057 8.637-23.465 13.135-35.809 13.135zm-38.457-30.504c.203 0 .408.016.613.047 1.264.197 2.357.984 2.943 2.121 5.049 9.809 14.447 16.859 25.781 19.348 12.854 2.82 26.441-.475 38.465-9.287v-6.4c0-20.438-10.92-31.01-20.078-36.281-15.906-9.152-38.949-9.111-54.789.092-7.752 4.506-16.977 13.023-16.912 28.021l.051 6.391c.021 2.061.041 4.068.049 5.922 8.371-.51 15.893-3.623 21.043-8.795.756-.761 1.78-1.179 2.834-1.179zm71.803 14.217h.039z"/><path d="m98 274c-2.209 0-4-1.791-4-4v-20c0-2.209 1.791-4 4-4s4 1.791 4 4v20c0 2.209-1.791 4-4 4z"/><path d="m190 274c-2.209 0-4-1.791-4-4v-20c0-2.209 1.791-4 4-4s4 1.791 4 4v20c0 2.209-1.791 4-4 4z"/><path d="m178 234h-20c-2.209 0-4-1.791-4-4s1.791-4 4-4h20c2.209 0 4 1.791 4 4s-1.791 4-4 4z"/><path d="m124 154c-9.926 0-18-8.074-18-18s8.074-18 18-18 18 8.074 18 18-8.074 18-18 18zm0-28c-5.514 0-10 4.486-10 10s4.486 10 10 10 10-4.486 10-10-4.486-10-10-10z"/><path d="m164 154c-9.926 0-18-8.074-18-18s8.074-18 18-18 18 8.074 18 18-8.074 18-18 18zm0-28c-5.514 0-10 4.486-10 10s4.486 10 10 10 10-4.486 10-10-4.486-10-10-10z"/><path d="m150 142h-12c-2.209 0-4-1.791-4-4s1.791-4 4-4h12c2.209 0 4 1.791 4 4s-1.791 4-4 4z"/></g><path d="m225.199 202h33.602c3.976 0 7.199-3.223 7.199-7.199v-8.801h-48v8.801c0 3.976 3.223 7.199 7.199 7.199z" fill="#6b4f5b"/><path d="m258.801 206h-33.602c-6.176 0-11.199-5.023-11.199-11.199v-8.801c0-2.209 1.791-4 4-4h48c2.209 0 4 1.791 4 4v8.801c0 6.176-5.023 11.199-11.199 11.199zm-36.801-16v4.801c0 1.764 1.436 3.199 3.199 3.199h33.602c1.764 0 3.199-1.436 3.199-3.199v-4.801z" fill="#4c241d"/><path d="m218 138h48v48h-48z" fill="#c1dbdc"/><path d="m266 190h-48c-2.209 0-4-1.791-4-4v-48c0-2.209 1.791-4 4-4h48c2.209 0 4 1.791 4 4v48c0 2.209-1.791 4-4 4zm-44-8h40v-40h-40z" fill="#4c241d"/><path d="m258.801 122h-33.602c-3.976 0-7.199 3.223-7.199 7.199v8.801h48v-8.801c0-3.976-3.223-7.199-7.199-7.199z" fill="#6b4f5b"/><path d="m266 142h-48c-2.209 0-4-1.791-4-4v-8.801c0-6.176 5.023-11.199 11.199-11.199h33.602c6.176 0 11.199 5.023 11.199 11.199v8.801c0 2.209-1.791 4-4 4zm-44-8h40v-4.801c0-1.764-1.436-3.199-3.199-3.199h-33.602c-1.764 0-3.199 1.436-3.199 3.199z" fill="#4c241d"/><path d="m85.848 180.625c-1.127 0-2.248-.475-3.039-1.396-1.438-1.678-1.244-4.203.434-5.641l7.084-6.074-7.309-7.311c-1.562-1.562-1.562-4.096 0-5.656 1.562-1.562 4.094-1.562 5.656 0l10.363 10.365c.789.787 1.211 1.869 1.168 2.982-.041 1.113-.547 2.158-1.393 2.883l-10.363 8.885c-.754.647-1.679.963-2.601.963z" fill="#4c241d"/><path d="m58.152 180.625c-.922 0-1.848-.316-2.602-.963l-10.363-8.885c-.846-.725-1.352-1.77-1.393-2.883-.043-1.113.379-2.195 1.168-2.982l10.363-10.365c1.562-1.562 4.094-1.562 5.656 0 1.562 1.561 1.562 4.094 0 5.656l-7.309 7.311 7.084 6.074c1.678 1.438 1.871 3.963.434 5.641-.79.921-1.911 1.396-3.038 1.396z" fill="#4c241d"/><path d="m71.043 179.143c-.225 0-.455-.018-.686-.059-2.176-.375-3.637-2.445-3.26-4.623l2.961-17.143c.375-2.174 2.432-3.646 4.623-3.26 2.176.375 3.637 2.445 3.26 4.623l-2.961 17.143c-.335 1.946-2.025 3.319-3.937 3.319z" fill="#4c241d"/></svg>