<svg id="writer" enable-background="new 0 0 300 300" height="512" viewBox="0 0 300 300" width="512" xmlns="http://www.w3.org/2000/svg"><circle cx="136" cy="127.265" fill="#e5efef" r="92"/><path d="m166 151.265h102v68h-102z" fill="#fff" transform="matrix(-1 0 0 -1 434 370.529)"/><path d="m268 223.265h-102c-2.211 0-4-1.791-4-4v-68c0-2.209 1.789-4 4-4h102c2.211 0 4 1.791 4 4v68c0 2.209-1.789 4-4 4zm-98-8h94v-60h-94z" fill="#4c241d"/><path d="m168 203.265h100v16h-100z" fill="#b5a19c"/><g fill="#4c241d"><path d="m268 223.265h-100c-2.211 0-4-1.791-4-4v-16c0-2.209 1.789-4 4-4h100c2.211 0 4 1.791 4 4v16c0 2.209-1.789 4-4 4zm-96-8h92v-8h-92z"/><path d="m244 171.265h-16c-2.211 0-4-1.791-4-4s1.789-4 4-4h16c2.211 0 4 1.791 4 4s-1.789 4-4 4z"/><path d="m252 183.265h-24c-2.211 0-4-1.791-4-4s1.789-4 4-4h24c2.211 0 4 1.791 4 4s-1.789 4-4 4z"/><path d="m252 195.265h-24c-2.211 0-4-1.791-4-4s1.789-4 4-4h24c2.211 0 4 1.791 4 4s-1.789 4-4 4z"/><path d="m212 223.265c-2.211 0-4-1.791-4-4v-68c0-2.209 1.789-4 4-4s4 1.791 4 4v68c0 2.209-1.789 4-4 4z"/><path d="m42 71.265c-7.719 0-14-6.281-14-14s6.281-14 14-14 14 6.281 14 14-6.281 14-14 14zm0-20c-3.309 0-6 2.691-6 6s2.691 6 6 6 6-2.691 6-6-2.691-6-6-6z"/><circle cx="258" cy="89.265" r="4.529"/><circle cx="54" cy="97.265" r="4.529"/><circle cx="74" cy="33.265" r="4.529"/><path d="m232.652 68.612c-1.023 0-2.047-.391-2.828-1.172-1.562-1.562-1.562-4.094 0-5.656l14.695-14.695c1.562-1.562 4.094-1.562 5.656 0s1.562 4.094 0 5.656l-14.695 14.696c-.781.781-1.804 1.171-2.828 1.171z"/><path d="m247.348 68.612c-1.023 0-2.047-.391-2.828-1.172l-14.695-14.695c-1.562-1.562-1.562-4.094 0-5.656s4.094-1.562 5.656 0l14.695 14.695c1.562 1.562 1.562 4.094 0 5.656-.781.782-1.805 1.172-2.828 1.172z"/><path d="m92.652 184.612c-1.023 0-2.047-.391-2.828-1.172-1.562-1.562-1.562-4.094 0-5.656l14.695-14.695c1.562-1.562 4.094-1.562 5.656 0s1.562 4.094 0 5.656l-14.695 14.696c-.781.781-1.804 1.171-2.828 1.171z"/><path d="m107.348 184.612c-1.023 0-2.047-.391-2.828-1.172l-14.695-14.695c-1.562-1.562-1.562-4.094 0-5.656s4.094-1.562 5.656 0l14.695 14.695c1.562 1.562 1.562 4.094 0 5.656-.781.782-1.805 1.172-2.828 1.172z"/></g><path d="m232 267.265h-144v-32.902c0-14.82 8.534-28.25 21.776-34.269l50.224-22.829 50.224 22.829c13.242 6.019 21.776 19.449 21.776 34.269z" fill="#bd53b5"/><path d="m232 271.265h-144c-2.211 0-4-1.791-4-4v-32.902c0-16.369 9.469-31.25 24.121-37.91l50.223-22.828c1.055-.48 2.258-.48 3.312 0l50.223 22.83c14.652 6.657 24.121 21.538 24.121 37.907v32.902c0 2.21-1.789 4.001-4 4.001zm-140-8h136v-28.902c0-13.24-7.629-25.262-19.434-30.625l-48.566-22.079-48.566 22.076c-11.805 5.366-19.434 17.387-19.434 30.627z" fill="#4c241d"/><path d="m160 199.265c-8.837 0-16-7.163-16-16v-8h32v8c0 8.836-7.163 16-16 16z" fill="#e7d1c4"/><path d="m160 203.265c-11.027 0-20-8.973-20-20v-8c0-2.209 1.789-4 4-4h32c2.211 0 4 1.791 4 4v8c0 11.027-8.973 20-20 20zm-12-24v4c0 6.617 5.383 12 12 12s12-5.383 12-12v-4z" fill="#4c241d"/><path d="m212 117.265c-.294 0-.336-2.941-.288-6.301.083-5.821-3.813-10.999-9.466-12.394-27.643-6.821-57.325-5.547-84.267 2.727-3.531 1.084-5.848 4.473-5.744 8.166.105 3.746.133 7.801-.236 7.801-5.644 0-10.196 4.676-9.993 10.365.114 3.199 2.081 6.09 4.734 7.88 3.217 2.171 5.98 2.017 8.431 1.192 3.968 19.359 18.022 35.548 37.427 41.794 5.563 1.791 11.581 1.62 17.141-.182l1.775-.575c19.093-6.188 33.023-22.039 37.173-41.079 2.441.861 5.222 1.012 8.371-.95 2.549-1.588 4.495-4.194 4.862-7.174.752-6.09-3.979-11.27-9.92-11.27z" fill="#e7d1c4"/><path d="m160.754 183.765c-3.195 0-6.352-.486-9.379-1.459-19.203-6.182-33.934-21.713-39.223-41.037-2.645.006-5.172-.771-7.648-2.441-3.914-2.645-6.344-6.777-6.492-11.057-.137-3.836 1.254-7.469 3.914-10.227 1.781-1.848 3.973-3.139 6.379-3.791 0-.979-.016-2.326-.07-4.176-.152-5.531 3.375-10.508 8.574-12.104 28.059-8.619 58.742-9.613 86.395-2.785 7.48 1.844 12.621 8.562 12.508 16.334-.016 1.139-.02 2.035-.012 2.74 2.602.713 4.969 2.17 6.793 4.23 2.652 3.002 3.895 7.021 3.398 11.029-.492 4.002-3.004 7.771-6.719 10.084-2.414 1.504-4.926 2.238-7.52 2.15-5.441 18.932-20.051 34.176-38.902 40.287l-1.777.574c-3.383 1.1-6.825 1.649-10.219 1.649zm-45.582-51.063c.691 0 1.383.18 1.996.533.992.57 1.691 1.541 1.922 2.664 3.738 18.232 17.047 33.096 34.734 38.791 4.633 1.488 9.711 1.428 14.684-.182l1.777-.574c17.379-5.635 30.598-20.244 34.492-38.127.246-1.121.961-2.084 1.961-2.643 1.008-.561 2.195-.662 3.281-.277 1.816.645 3.246.477 4.926-.572 1.684-1.049 2.805-2.645 3.008-4.27.215-1.76-.301-3.447-1.457-4.754-1.137-1.289-2.777-2.027-4.496-2.027-1.07 0-2.137-.449-2.887-1.211-1.379-1.396-1.488-2.873-1.402-9.146.059-3.967-2.641-7.52-6.422-8.453-26.262-6.48-55.434-5.531-82.133 2.668-1.777.545-2.977 2.285-2.922 4.232.23 8.275-.023 9.342-1.32 10.676-.754.775-1.832 1.234-2.914 1.234-1.645 0-3.176.65-4.316 1.834-1.141 1.182-1.738 2.74-1.68 4.389.062 1.707 1.203 3.51 2.977 4.709 1.934 1.309 3.371 1.238 4.914.715.417-.14.847-.209 1.277-.209zm100.617-16.478h.039z" fill="#4c241d"/><circle cx="182" cy="133.265" fill="#4c241d" r="4"/><circle cx="142" cy="133.265" fill="#4c241d" r="4"/><path d="m212 98.755c0-63.49-100-59.49-99.78-8.15.025 5.763.146 12.021.087 16.344 10.93.374 21.141-3.243 27.89-10.021 11.638 22.604 44.081 31.871 71.803 10.216 0-8.389 0-4.777 0-8.389z" fill="#bf7e68"/><path d="m178.652 123.431c-3.625 0-7.25-.387-10.832-1.174-11.961-2.625-22.156-9.51-28.637-19.184-7.246 5.391-16.812 8.234-27.016 7.873-2.176-.074-3.895-1.877-3.863-4.057.039-2.777.004-6.361-.035-10.096l-.051-6.17c-.062-14.689 7.359-27.109 20.895-34.975 18.449-10.725 44.277-10.768 62.797-.109 15.535 8.941 24.09 24.286 24.09 43.216v8.389c0 1.23-.566 2.395-1.539 3.152-11.055 8.637-23.461 13.135-35.809 13.135zm-38.457-30.504c.203 0 .41.016.613.047 1.262.197 2.355.984 2.941 2.121 5.051 9.809 14.449 16.859 25.785 19.348 12.855 2.826 26.445-.477 38.465-9.287v-6.4c0-20.438-10.918-31.01-20.078-36.281-15.902-9.152-38.941-9.115-54.789.092-7.75 4.504-16.977 13.023-16.914 28.021l.051 6.127c.023 2.15.043 4.254.051 6.186 8.371-.512 15.891-3.623 21.039-8.795.758-.761 1.782-1.179 2.836-1.179zm71.805 14.217h.039z" fill="#4c241d"/><path d="m116 271.265c-2.211 0-4-1.791-4-4v-20c0-2.209 1.789-4 4-4s4 1.791 4 4v20c0 2.209-1.789 4-4 4z" fill="#4c241d"/><path d="m208 271.265c-2.211 0-4-1.791-4-4v-28c0-2.209 1.789-4 4-4s4 1.791 4 4v28c0 2.209-1.789 4-4 4z" fill="#4c241d"/><path d="m88 235.265v-15.957h-36v15.957h-1.95c-5.551 0-10.05 4.5-10.05 10.05v21.95h60v-21.95c0-5.551-4.5-10.05-10.05-10.05z" fill="#fff"/><path d="m100 271.265h-60c-2.211 0-4-1.791-4-4v-21.949c0-7.051 5.223-12.906 12-13.902v-12.105c0-2.209 1.789-4 4-4h36c2.211 0 4 1.791 4 4v12.105c6.777.996 12 6.852 12 13.902v21.949c0 2.209-1.789 4-4 4zm-56-8h52v-17.949c0-3.336-2.715-6.051-6.051-6.051h-1.949c-2.211 0-4-1.791-4-4v-11.957h-28v11.957c0 2.209-1.789 4-4 4h-1.949c-3.336 0-6.051 2.715-6.051 6.051z" fill="#4c241d"/><path d="m65.533 196.33s15.319-49.786-30.638-68.935c0 0-14.895 51.87 30.638 68.935z" fill="#efefd2"/><path d="m65.531 200.329c-.477 0-.949-.084-1.402-.254-48.434-18.152-33.238-73.229-33.078-73.783.312-1.098 1.082-2.008 2.109-2.502s2.219-.531 3.273-.086c48.746 20.311 33.086 73.27 32.922 73.801-.324 1.055-1.07 1.928-2.059 2.414-.554.273-1.159.41-1.765.41zm-27.824-67.234c-2.203 11.959-4.867 43.756 25.043 57.734 2.277-11.445 5.188-42.357-25.043-57.734z" fill="#4c241d"/><path d="m71.414 222.36c-1.934 0-3.637-1.404-3.945-3.375-5.371-33.928-22.496-57.09-22.668-57.318-1.324-1.768-.965-4.273.801-5.6 1.758-1.322 4.266-.973 5.594.793.754 1 18.477 24.891 24.172 60.875.348 2.182-1.141 4.23-3.324 4.576-.212.034-.423.049-.63.049z" fill="#4c241d"/><path d="m72 239.265h-20c-2.211 0-4-1.791-4-4s1.789-4 4-4h20c2.211 0 4 1.791 4 4s-1.789 4-4 4z" fill="#4c241d"/><path d="m194 255.265c-7.732 0-14-6.268-14-14v-14h28v14c0 7.732-6.268 14-14 14z" fill="#9dc1e4"/><path d="m194 259.265c-9.926 0-18-8.074-18-18v-14c0-2.209 1.789-4 4-4h28c2.211 0 4 1.791 4 4v14c0 9.926-8.074 18-18 18zm-10-28v10c0 5.514 4.484 10 10 10s10-4.486 10-10v-10z" fill="#4c241d"/></svg>