<svg id="contractor" enable-background="new 0 0 300 300" height="512" viewBox="0 0 300 300" width="512" xmlns="http://www.w3.org/2000/svg"><circle cx="140.074" cy="130" fill="#e5efef" r="92"/><g fill="#4c241d"><path d="m46.074 74c-7.719 0-14-6.281-14-14s6.281-14 14-14 14 6.281 14 14-6.281 14-14 14zm0-20c-3.309 0-6 2.691-6 6s2.691 6 6 6 6-2.691 6-6-2.691-6-6-6z"/><path d="m250.074 174c-7.719 0-14-6.281-14-14s6.281-14 14-14 14 6.281 14 14-6.281 14-14 14zm0-20c-3.309 0-6 2.691-6 6s2.691 6 6 6 6-2.691 6-6-2.691-6-6-6z"/><circle cx="258.074" cy="72" r="4.529"/><circle cx="218.074" cy="180" r="4.529"/><circle cx="58.074" cy="100" r="4.529"/><circle cx="78.074" cy="36" r="4.529"/><path d="m232.727 51.348c-1.023 0-2.047-.391-2.828-1.172-1.562-1.562-1.562-4.094 0-5.656l14.695-14.695c1.562-1.562 4.094-1.562 5.656 0s1.562 4.094 0 5.656l-14.695 14.695c-.782.781-1.805 1.172-2.828 1.172z"/><path d="m247.422 51.348c-1.023 0-2.047-.391-2.828-1.172l-14.696-14.696c-1.562-1.562-1.562-4.094 0-5.656s4.094-1.562 5.656 0l14.696 14.696c1.562 1.562 1.562 4.094 0 5.656-.781.781-1.805 1.172-2.828 1.172z"/></g><path d="m236.074 270h-144v-32.902c0-14.82 8.534-28.25 21.776-34.269l50.224-22.829 50.224 22.829c13.242 6.019 21.776 19.449 21.776 34.269z" fill="#fc8c29"/><path d="m236.074 274h-144c-2.211 0-4-1.791-4-4v-32.902c0-16.369 9.469-31.25 24.121-37.91l50.223-22.828c1.055-.48 2.258-.48 3.312 0l50.223 22.83c14.652 6.658 24.121 21.539 24.121 37.908v32.902c0 2.209-1.789 4-4 4zm-140-8h136v-28.902c0-13.24-7.629-25.262-19.434-30.625l-48.566-22.078-48.566 22.076c-11.805 5.365-19.434 17.387-19.434 30.627z" fill="#4c241d"/><path d="m164.074 202c-8.837 0-16-7.163-16-16v-8h32v8c0 8.837-7.163 16-16 16z" fill="#e7d1c4"/><path d="m164.074 206c-11.027 0-20-8.973-20-20v-8c0-2.209 1.789-4 4-4h32c2.211 0 4 1.791 4 4v8c0 11.027-8.972 20-20 20zm-12-24v4c0 6.617 5.383 12 12 12s12-5.383 12-12v-4z" fill="#4c241d"/><path d="m216.074 120c-.294 0-.336-2.941-.288-6.301.083-5.821-3.813-10.999-9.466-12.394-27.643-6.821-57.325-5.547-84.267 2.727-3.531 1.084-5.848 4.473-5.744 8.166.105 3.746.133 7.801-.236 7.801-5.644 0-10.196 4.676-9.993 10.365.114 3.199 2.081 6.09 4.734 7.88 3.217 2.171 5.98 2.017 8.431 1.192 3.968 19.359 18.022 35.548 37.427 41.794 5.563 1.791 11.581 1.62 17.141-.182l1.775-.575c19.093-6.188 33.023-22.039 37.173-41.079 2.441.861 5.222 1.012 8.371-.95 2.549-1.588 4.495-4.194 4.862-7.174.752-6.09-3.979-11.27-9.92-11.27z" fill="#e7d1c4"/><path d="m164.828 186.5c-3.195 0-6.352-.486-9.379-1.459-19.203-6.182-33.934-21.713-39.223-41.037-2.707.006-5.172-.771-7.648-2.441-3.914-2.645-6.344-6.777-6.492-11.057-.137-3.836 1.254-7.469 3.914-10.227 1.781-1.848 3.973-3.139 6.379-3.791 0-.979-.016-2.326-.07-4.176-.152-5.531 3.375-10.508 8.574-12.104 28.059-8.619 58.746-9.613 86.395-2.785 7.48 1.844 12.621 8.562 12.508 16.334-.016 1.139-.02 2.035-.012 2.74 2.602.713 4.969 2.17 6.793 4.23 2.652 3.002 3.895 7.021 3.398 11.029-.492 4.002-3.004 7.771-6.719 10.084-2.414 1.504-4.941 2.238-7.52 2.15-5.441 18.932-20.051 34.176-38.902 40.287l-1.777.574c-3.383 1.1-6.824 1.649-10.219 1.649zm-45.582-51.062c.691 0 1.383.18 1.996.533.992.57 1.691 1.541 1.922 2.664 3.738 18.232 17.047 33.096 34.734 38.791 4.633 1.488 9.711 1.428 14.684-.182l1.777-.574c17.379-5.635 30.598-20.244 34.492-38.127.246-1.121.961-2.084 1.961-2.643 1.008-.561 2.195-.662 3.281-.277 1.816.645 3.242.477 4.926-.572s2.805-2.645 3.008-4.27c.215-1.76-.301-3.447-1.457-4.754-1.137-1.289-2.777-2.027-4.496-2.027-1.07 0-2.137-.449-2.887-1.211-1.379-1.396-1.488-2.873-1.402-9.146.059-3.967-2.641-7.52-6.422-8.453-26.262-6.48-55.434-5.531-82.133 2.668-1.777.545-2.977 2.285-2.922 4.232.23 8.275-.023 9.342-1.32 10.676-.754.775-1.832 1.234-2.914 1.234-1.645 0-3.176.65-4.316 1.834-1.141 1.182-1.738 2.74-1.68 4.389.062 1.707 1.203 3.51 2.977 4.709 1.934 1.309 3.367 1.238 4.914.715.418-.141.847-.209 1.277-.209zm100.617-16.479h.039z" fill="#4c241d"/><circle cx="186.074" cy="136" fill="#4c241d" r="4"/><circle cx="146.074" cy="136" fill="#4c241d" r="4"/><path d="m216.074 101.49c0-63.49-100-59.49-99.78-8.15.025 5.763.146 12.021.087 16.344 10.93.374 21.141-3.243 27.89-10.021 11.638 22.604 44.081 31.871 71.803 10.216 0-8.389 0-4.777 0-8.389z" fill="#bf7e68"/><path d="m182.727 126.166c-3.625 0-7.25-.387-10.832-1.174-11.961-2.625-22.156-9.51-28.637-19.184-7.246 5.391-16.812 8.234-27.016 7.873-2.176-.074-3.895-1.877-3.863-4.057.039-2.777.004-6.361-.035-10.096l-.051-6.17c-.062-14.689 7.359-27.109 20.895-34.975 18.453-10.725 44.281-10.768 62.797-.109 15.535 8.939 24.09 24.285 24.09 43.215v8.389c0 1.23-.566 2.395-1.539 3.152-11.056 8.638-23.462 13.136-35.809 13.136zm-38.457-30.504c.203 0 .41.016.613.047 1.262.197 2.355.984 2.941 2.121 5.051 9.809 14.449 16.859 25.785 19.348 12.855 2.826 26.445-.477 38.465-9.287v-6.4c0-20.438-10.918-31.01-20.078-36.281-15.906-9.152-38.945-9.115-54.789.092-7.75 4.504-16.977 13.023-16.914 28.021l.051 6.127c.023 2.15.043 4.254.051 6.186 8.371-.512 15.891-3.623 21.039-8.795.757-.761 1.781-1.179 2.836-1.179zm71.804 14.217h.039z" fill="#4c241d"/><path d="m120.074 274c-2.211 0-4-1.791-4-4v-20c0-2.209 1.789-4 4-4s4 1.791 4 4v20c0 2.209-1.789 4-4 4z" fill="#4c241d"/><path d="m148.074 234h-20c-2.211 0-4-1.791-4-4s1.789-4 4-4h20c2.211 0 4 1.791 4 4s-1.789 4-4 4z" fill="#4c241d"/><path d="m76.222 186h-40.296v-25.259c0-11.127 9.021-20.148 20.148-20.148 11.127 0 20.148 9.021 20.148 20.148z" fill="#b5a19c"/><path d="m76.223 190h-40.297c-2.211 0-4-1.791-4-4v-25.26c0-13.314 10.832-24.146 24.148-24.146s24.148 10.832 24.148 24.146v25.26c.001 2.209-1.788 4-3.999 4zm-36.297-8h32.297v-21.26c0-8.902-7.246-16.146-16.148-16.146s-16.148 7.244-16.148 16.146v21.26z" fill="#4c241d"/><path d="m56.074 208.395c-2.211 0-4-1.791-4-4v-30.221c0-2.209 1.789-4 4-4s4 1.791 4 4v30.221c0 2.209-1.789 4-4 4z" fill="#4c241d"/><path d="m56.074 262c-6.627 0-12-5.373-12-12v-32c0-6.627 5.373-12 12-12 6.627 0 12 5.373 12 12v32c0 6.627-5.372 12-12 12z" fill="#9dc1e4"/><path d="m56.074 266c-8.824 0-16-7.178-16-16v-32c0-8.822 7.176-16 16-16s16 7.178 16 16v32c0 8.822-7.176 16-16 16zm0-56c-4.41 0-8 3.588-8 8v32c0 4.412 3.59 8 8 8s8-3.588 8-8v-32c0-4.412-3.59-8-8-8z" fill="#4c241d"/><path d="m219.723 83c-2.988-25.309-25.855-45-53.648-45s-50.66 19.691-53.648 45h-4.352v15h116v-15z" fill="#ffce56"/><path d="m224.074 102h-116c-2.211 0-4-1.791-4-4v-15c0-2.209 1.789-4 4-4h.918c4.867-25.891 28.773-45 57.082-45s52.215 19.109 57.082 45h.918c2.211 0 4 1.791 4 4v15c0 2.209-1.789 4-4 4zm-112-8h108v-7h-.352c-2.027 0-3.734-1.518-3.973-3.531-2.792-23.641-24.147-41.469-49.675-41.469s-46.883 17.828-49.676 41.469c-.238 2.013-1.945 3.531-3.972 3.531h-.352z" fill="#4c241d"/><path d="m156.074 82v-52h20v52" fill="#ffce56"/><path d="m176.074 86c-2.211 0-4-1.791-4-4v-48h-12v48c0 2.209-1.789 4-4 4s-4-1.791-4-4v-52c0-2.209 1.789-4 4-4h20c2.211 0 4 1.791 4 4v52c0 2.209-1.789 4-4 4z" fill="#4c241d"/><path d="m212.074 254h40v16h-40z" fill="#e66353"/><path d="m252.074 274h-40c-2.211 0-4-1.791-4-4v-16c0-2.209 1.789-4 4-4h40c2.211 0 4 1.791 4 4v16c0 2.209-1.789 4-4 4zm-36-8h32v-8h-32z" fill="#4c241d"/><path d="m168.074 254h44v16h-44z" fill="#e66353"/><path d="m212.074 274h-44c-2.211 0-4-1.791-4-4v-16c0-2.209 1.789-4 4-4h44c2.211 0 4 1.791 4 4v16c0 2.209-1.789 4-4 4zm-40-8h36v-8h-36z" fill="#4c241d"/><path d="m224.074 238h40v16h-40z" fill="#e66353"/><path d="m264.074 258h-40c-2.211 0-4-1.791-4-4v-16c0-2.209 1.789-4 4-4h40c2.211 0 4 1.791 4 4v16c0 2.209-1.789 4-4 4zm-36-8h32v-8h-32z" fill="#4c241d"/><path d="m180.074 238h44v16h-44z" fill="#e66353"/><path d="m224.074 258h-44c-2.211 0-4-1.791-4-4v-16c0-2.209 1.789-4 4-4h44c2.211 0 4 1.791 4 4v16c0 2.209-1.789 4-4 4zm-40-8h36v-8h-36z" fill="#4c241d"/><path d="m192.074 222h44v16h-44z" fill="#e66353"/><path d="m236.074 242h-44c-2.211 0-4-1.791-4-4v-16c0-2.209 1.789-4 4-4h44c2.211 0 4 1.791 4 4v16c0 2.209-1.789 4-4 4zm-40-8h36v-8h-36z" fill="#4c241d"/><path d="m236.074 222h16v16h-16z" fill="#e66353"/><path d="m252.074 242h-16c-2.211 0-4-1.791-4-4v-16c0-2.209 1.789-4 4-4h16c2.211 0 4 1.791 4 4v16c0 2.209-1.789 4-4 4zm-12-8h8v-8h-8z" fill="#4c241d"/></svg>