<svg height="419pt" viewBox="0 -5 419.84 419" width="419pt" xmlns="http://www.w3.org/2000/svg"><path d="m307.199219 152.75c0-84.128906-68.769531-152.328125-153.597657-152.328125-84.832031 0-153.601562 68.199219-153.601562 152.328125s68.769531 152.332031 153.601562 152.332031c84.828126 0 153.597657-68.203125 153.597657-152.332031zm0 0" fill="#d9be6f"/><path d="m389.542969 44.03125c.476562 4.003906.792969 8.054688.792969 12.183594 0 55.085937-43.679688 99.855468-98.273438 101.863281v51.347656c6.125 1.148438 12.4375 1.757813 18.898438 1.757813 56.363281 0 102.050781-45.691406 102.050781-102.050782 0-24.75-8.816407-47.433593-23.46875-65.101562zm0 0" fill="#edebdc"/><path d="m310.960938 218.007812c-6.746094 0-13.527344-.628906-20.15625-1.867187-3.230469-.605469-5.570313-3.429687-5.570313-6.714844v-51.355469c0-3.671874 2.90625-6.683593 6.578125-6.820312 51.417969-1.882812 91.695312-43.628906 91.695312-95.039062 0-3.449219-.246093-7.160157-.75-11.375-.355468-3.003907 1.308594-5.882813 4.089844-7.078126 2.785156-1.191406 6.019532-.414062 7.945313 1.914063 16.152343 19.46875 25.046875 44.140625 25.046875 69.460937 0 60.035157-48.84375 108.875-108.878906 108.875zm-12.070313-14.421874c4.003906.515624 8.042969.765624 12.070313.765624 52.507812 0 95.226562-42.710937 95.226562-95.21875 0-14.5-3.332031-28.746093-9.597656-41.640624-5.230469 51.355468-45.832032 92-97.699219 96.96875zm0 0" fill="#4c241d"/><path d="m43.394531 44.03125c-.480469 4.003906-.792969 8.054688-.792969 12.183594 0 55.085937 43.675782 99.855468 98.273438 101.863281v51.347656c-6.125 1.148438-12.441406 1.757813-18.898438 1.757813-56.363281 0-102.054687-45.691406-102.054687-102.050782 0-24.75 8.820313-47.433593 23.472656-65.101562zm0 0" fill="#edebdc"/><path d="m121.972656 218.007812c-60.03125 0-108.875-48.839843-108.875-108.875 0-25.320312 8.894532-49.988281 25.039063-69.464843 1.9375-2.328125 5.15625-3.113281 7.949219-1.914063 2.78125 1.191406 4.445312 4.074219 4.089843 7.078125-.503906 4.214844-.75 7.941407-.75 11.378907 0 51.410156 40.277344 93.15625 91.699219 95.042968 3.667969.132813 6.578125 3.148438 6.578125 6.820313v51.351562c0 3.289063-2.339844 6.109375-5.570313 6.714844-6.628906 1.238281-13.410156 1.867187-20.160156 1.867187zm-85.628906-150.515624c-6.261719 12.894531-9.59375 27.148437-9.59375 41.640624 0 52.507813 42.714844 95.21875 95.222656 95.21875 4.03125 0 8.070313-.25 12.074219-.765624v-39.125c-51.871094-4.96875-92.472656-45.613282-97.703125-96.96875zm0 0" fill="#4c241d"/><path d="m341.332031 184.738281h54.613281c0 26.394531-21.394531 47.789063-47.785156 47.789063h-54.613281c0-26.390625 21.394531-47.789063 47.785156-47.789063zm0 0" fill="#bf7e68"/><path d="m348.160156 239.351562h-54.613281c-3.769531 0-6.828125-3.050781-6.828125-6.824218 0-30.113282 24.5-54.613282 54.613281-54.613282h54.613281c3.769532 0 6.828126 3.050782 6.828126 6.824219 0 30.117188-24.5 54.613281-54.613282 54.613281zm-47.214844-13.652343h47.214844c20.257813 0 37.128906-14.785157 40.390625-34.132813h-47.21875c-20.257812 0-37.128906 14.785156-40.386719 34.132813zm0 0" fill="#4c241d"/><path d="m255.777344 378.246094c0-13.777344-16.753906-24.945313-37.417969-24.945313-20.667969 0-37.421875 11.167969-37.421875 24.945313s16.753906 24.945312 37.421875 24.945312c20.664063 0 37.417969-11.167968 37.417969-24.945312zm0 0" fill="#bf7e68"/><path d="m218.355469 410.019531c-24.808594 0-44.246094-13.953125-44.246094-31.773437 0-17.820313 19.4375-31.773438 44.246094-31.773438 24.808593 0 44.246093 13.953125 44.246093 31.773438 0 17.820312-19.4375 31.773437-44.246093 31.773437zm0-49.890625c-16.582031 0-30.59375 8.296875-30.59375 18.117188 0 9.820312 14.011719 18.121094 30.59375 18.121094s30.59375-8.300782 30.59375-18.121094c0-9.820313-14.007813-18.117188-30.59375-18.117188zm0 0" fill="#4c241d"/><path d="m95.574219 232.527344h-61.441407c0-26.390625 21.394532-47.789063 47.789063-47.789063h61.4375c0 26.394531-21.394531 47.789063-47.785156 47.789063zm0 0" fill="#bf7e68"/><path d="m95.574219 239.351562h-61.441407c-3.769531 0-6.824218-3.050781-6.824218-6.824218 0-30.113282 24.496094-54.613282 54.613281-54.613282h61.4375c3.769531 0 6.828125 3.050782 6.828125 6.824219 0 30.117188-24.5 54.613281-54.613281 54.613281zm-54.042969-13.652343h54.042969c20.257812 0 37.128906-14.785157 40.390625-34.132813h-54.042969c-20.261719 0-37.132813 14.785156-40.390625 34.132813zm0 0" fill="#4c241d"/><path d="m238.660156 362.371094c14.742188 0 27.84375-9.359375 32.492188-23.347656 5.09375-15.332032 12.71875-34.296876 27.214844-59.96875 14.574218-25.808594 15.585937-56.867188 13.285156-89.082032-1.886719-26.460937-24.203125-46.824218-50.726563-46.824218h-88.914062c-26.523438 0-48.839844 20.363281-50.726563 46.824218-2.300781 32.214844-1.289062 63.277344 13.285156 89.082032 14.496094 25.671874 22.121094 44.636718 27.214844 59.96875 4.648438 13.988281 17.75 23.347656 32.492188 23.347656zm0 0" fill="#bf7e68"/><path d="m238.660156 369.199219h-44.386718c-17.742188 0-33.398438-11.261719-38.96875-28.019531-3.992188-12.011719-11.097657-31.171876-26.679688-58.761719-16.261719-28.792969-16.277344-63.132813-14.152344-92.933594 2.125-29.8125 27.402344-53.164063 57.539063-53.164063h88.910156c30.136719 0 55.414063 23.355469 57.542969 53.164063 2.121094 29.800781 2.101562 64.140625-14.152344 92.933594-15.582031 27.589843-22.6875 46.75-26.679688 58.761719-5.574218 16.757812-21.238281 28.019531-38.972656 28.019531zm-66.648437-219.226563c-23.007813 0-42.300781 17.789063-43.917969 40.488282-1.984375 27.765624-2.054688 59.605468 12.417969 85.238281 16.167969 28.625 23.582031 48.621093 27.753906 61.175781 3.707031 11.164062 14.160156 18.671875 26.007813 18.671875h44.386718c11.847656 0 22.304688-7.507813 26.015625-18.671875 4.167969-12.554688 11.582031-32.546875 27.746094-61.175781 14.472656-25.625 14.402344-57.472657 12.421875-85.238281-1.621094-22.699219-20.914062-40.488282-43.921875-40.488282zm0 0" fill="#4c241d"/><path d="m254.257812 331.402344c-3.492187 0-6.46875-2.667969-6.792968-6.207032l-7.558594-83.15625c-.339844-3.757812 2.429688-7.078124 6.183594-7.421874 3.761718-.3125 7.078125 2.4375 7.417968 6.183593l7.558594 83.152344c.339844 3.757813-2.429687 7.078125-6.183594 7.421875-.210937.019531-.417968.027344-.625.027344zm0 0" fill="#4c241d"/><path d="m186.238281 331.402344c-.207031 0-.414062-.007813-.625-.027344-3.757812-.339844-6.523437-3.667969-6.183593-7.421875l7.5625-83.152344c.339843-3.746093 3.648437-6.507812 7.414062-6.183593 3.757812.339843 6.523438 3.664062 6.183594 7.421874l-7.558594 83.15625c-.324219 3.539063-3.300781 6.207032-6.792969 6.207032zm0 0" fill="#4c241d"/><path d="m251.617188 328.355469c-.355469 0-20.269532 3.128906-34.246094 3.128906-13.40625 0-31.929688-3.128906-32.273438-3.128906-16.074218 0-29.105468 13.027343-29.105468 29.101562s13.03125 29.105469 29.105468 29.105469c.347656 0 19.125-3.128906 32.667969-3.128906 13.851563 0 33.5 3.128906 33.851563 3.128906 16.074218 0 29.105468-13.03125 29.105468-29.105469s-13.03125-29.101562-29.105468-29.101562zm0 0" fill="#e66353"/><g fill="#4c241d"><path d="m251.621094 393.386719c-.089844 0-.855469-.046875-2.152344-.234375-13.4375-1.917969-24.105469-2.890625-31.703125-2.890625-7.410156 0-17.679687.972656-30.527344 2.882812-1.292969.195313-2.050781.242188-2.140625.242188-19.8125 0-35.929687-16.113281-35.929687-35.925781 0-19.816407 16.113281-35.933594 35.929687-35.933594.089844 0 .84375.042968 2.140625.238281 12.664063 1.914063 22.804688 2.886719 30.132813 2.886719 7.675781 0 18.472656-.972656 32.09375-2.898438 1.300781-.179687 2.066406-.226562 2.15625-.226562 19.8125 0 35.929687 16.117187 35.929687 35.933594 0 19.8125-16.117187 35.925781-35.929687 35.925781zm-33.855469-16.78125c8.242187 0 19.558594 1.023437 33.632813 3.035156l.640624.085937c12.089844-.21875 21.859376-10.128906 21.859376-22.265624 0-12.148438-9.769532-22.054688-21.863282-22.273438l-.664062.085938c-14.25 2.011718-25.6875 3.03125-34 3.03125-8.007813 0-18.835938-1.019532-32.175782-3.039063l-.539062-.078125c-12.082031.230469-21.835938 10.132812-21.835938 22.273438 0 12.132812 9.757813 22.03125 21.835938 22.265624l.566406-.082031c13.511719-2.015625 24.460938-3.039062 32.542969-3.039062zm0 0"/><path d="m273.066406 257.285156c-8.484375 0-15.382812-6.898437-15.382812-15.386718 0-3.773438 3.054687-6.824219 6.824218-6.824219 3.773438 0 6.828126 3.050781 6.828126 6.824219 0 1.90625 3.460937 1.90625 3.460937 0 0-3.773438 3.054687-6.824219 6.824219-6.824219 3.769531 0 6.828125 3.050781 6.828125 6.824219 0 8.488281-6.898438 15.386718-15.382813 15.386718zm0 0"/><path d="m163.839844 257.285156c-8.484375 0-15.382813-6.898437-15.382813-15.386718 0-3.773438 3.054688-6.824219 6.824219-6.824219 3.773438 0 6.828125 3.050781 6.828125 6.824219 0 1.90625 3.460937 1.90625 3.460937 0 0-3.773438 3.054688-6.824219 6.824219-6.824219s6.828125 3.050781 6.828125 6.824219c0 8.488281-6.898437 15.386718-15.382812 15.386718zm0 0"/><path d="m259.414062 358.820312c0 5.65625-4.585937 10.238282-10.242187 10.238282-5.652344 0-10.238281-4.582032-10.238281-10.238282s4.585937-10.242187 10.238281-10.242187c5.65625 0 10.242187 4.585937 10.242187 10.242187zm0 0"/><path d="m197.972656 358.820312c0 5.65625-4.582031 10.238282-10.238281 10.238282s-10.242187-4.582032-10.242187-10.238282 4.585937-10.242187 10.242187-10.242187 10.238281 4.585937 10.238281 10.242187zm0 0"/></g></svg>