<svg height="418pt" viewBox="0 -14 418.68117 418" width="418pt" xmlns="http://www.w3.org/2000/svg"><path d="m307.199219 153.941406c0 84.832032-68.769531 153.597656-153.597657 153.597656-84.832031 0-153.601562-68.765624-153.601562-153.597656 0-84.832031 68.769531-153.601562 153.601562-153.601562 84.828126 0 153.597657 68.769531 153.597657 153.601562zm0 0" fill="#d9be6f"/><g fill="#4c241d"><path d="m146.945312 389.460938c-1.300781 0-2.613281-.371094-3.78125-1.148438-3.140624-2.089844-3.984374-6.328125-1.890624-9.464844l16.464843-24.707031-13.265625-26.105469c-1.707031-3.363281-.367187-7.46875 2.992188-9.179687 3.363281-1.710938 7.46875-.371094 9.179687 2.992187l15.074219 29.664063c1.113281 2.199219.960938 4.828125-.40625 6.878906l-18.679688 28.027344c-1.3125 1.976562-3.480468 3.042969-5.6875 3.042969zm0 0"/><path d="m184.3125 389.460938c-1.300781 0-2.613281-.371094-3.78125-1.148438-3.136719-2.089844-3.984375-6.328125-1.890625-9.464844l16.472656-24.707031-13.273437-26.105469c-1.707032-3.359375-.367188-7.46875 2.992187-9.179687 3.363281-1.710938 7.46875-.371094 9.183594 2.992187l15.078125 29.664063c1.113281 2.199219.960938 4.832031-.40625 6.878906l-18.6875 28.027344c-1.3125 1.976562-3.480469 3.042969-5.6875 3.042969zm0 0"/><path d="m212.347656 389.460938h-84.082031c-3.773437 0-6.824219-3.058594-6.824219-6.828126 0-3.769531 3.050782-6.824218 6.824219-6.824218h84.082031c3.773438 0 6.824219 3.054687 6.824219 6.824218 0 3.769532-3.050781 6.828126-6.824219 6.828126zm0 0"/><path d="m126.246094 90.5625c-2.253906 0-4.394532-1.113281-5.671875-3.023438l-23.847657-35.609374c-2.097656-3.136719-1.257812-7.375 1.875-9.476563 3.132813-2.101563 7.367188-1.253906 9.472657 1.875l15.683593 23.425781 6.214844-21.519531c1.046875-3.625 4.820313-5.707031 8.453125-4.664063 3.625 1.042969 5.714844 4.832032 4.667969 8.453126l-10.289062 35.609374c-.738282 2.550782-2.882813 4.441407-5.507813 4.851563-.351563.054687-.703125.078125-1.050781.078125zm0 0"/><path d="m122.878906 89.089844c-2.644531 0-5.164062-1.550782-6.273437-4.140625-1.484375-3.464844.121093-7.480469 3.589843-8.960938l47.785157-20.480469c3.433593-1.488281 7.472656.113282 8.960937 3.582032 1.484375 3.46875-.121094 7.480468-3.589844 8.964844l-47.785156 20.480468c-.875.375-1.785156.554688-2.6875.554688zm0 0"/></g><path d="m240.867188 245.0625-19.128907-5.316406 28.265625-169.726563c2.761719-16.589843 19.300782-27.128906 35.507813-22.625 16.203125 4.507813 24.929687 22.066407 18.734375 37.703125zm0 0" fill="#a9ba5a"/><path d="m240.867188 251.890625c-.605469 0-1.21875-.078125-1.828126-.25l-19.125-5.316406c-3.367187-.933594-5.480468-4.257813-4.90625-7.699219l28.265626-169.722656c1.632812-9.8125 7.378906-18.511719 15.773437-23.859375 8.398437-5.34375 18.707031-6.886719 28.292969-4.222657 9.59375 2.664063 17.632812 9.304688 22.058594 18.21875 4.429687 8.914063 4.863281 19.328126 1.195312 28.578126l-63.382812 159.964843c-1.050782 2.652344-3.605469 4.308594-6.34375 4.308594zm-11.386719-17.078125 7.300781 2.027344 61.117188-154.257813c2.273437-5.738281 2.015624-11.941406-.726563-17.472656-2.753906-5.527344-7.539063-9.488281-13.484375-11.136719-5.941406-1.648437-12.089844-.738281-17.308594 2.582032-5.199218 3.320312-8.628906 8.5-9.640625 14.585937zm0 0" fill="#4c241d"/><path d="m256.285156 250.664062-17.078125-10.128906 71.601563-156.457031c7-15.296875 25.714844-21.152344 40.179687-12.570313 14.46875 8.582032 18.308594 27.808594 8.246094 41.285157zm0 0" fill="#a9ba5a"/><path d="m256.28125 257.488281c-1.1875 0-2.386719-.3125-3.472656-.953125l-17.082032-10.128906c-3.007812-1.78125-4.179687-5.539062-2.726562-8.710938l71.597656-156.457031c4.140625-9.050781 11.960938-15.945312 21.460938-18.914062 9.492187-2.976563 19.847656-1.769531 28.40625 3.3125 8.5625 5.070312 14.589844 13.574219 16.535156 23.332031 1.953125 9.761719-.339844 19.929688-6.292969 27.90625l-102.953125 137.867188c-1.328125 1.785156-3.382812 2.746093-5.472656 2.746093zm-8.316406-19.695312 6.519531 3.863281 99.28125-132.945312c3.6875-4.949219 5.0625-11.007813 3.847656-17.0625-1.207031-6.054688-4.800781-11.121094-10.105469-14.265626-5.320312-3.152343-11.480468-3.871093-17.375-2.027343-5.894531 1.84375-10.546874 5.949219-13.121093 11.5625zm0 0" fill="#4c241d"/><path d="m271.242188 266.257812-14.441407-13.632812 104.214844-136.910156c10.191406-13.386719 29.734375-14.988282 41.960937-3.4375 12.230469 11.546875 11.753907 31.148437-1.023437 42.089844zm0 0" fill="#a9ba5a"/><path d="m271.242188 273.085938c-1.6875 0-3.375-.625-4.6875-1.863282l-14.441407-13.632812c-2.539062-2.398438-2.859375-6.320313-.746093-9.097656l104.21875-136.910157c6.027343-7.921875 15.171874-12.925781 25.085937-13.742187 9.960937-.804688 19.761719 2.640625 26.992187 9.472656 7.234376 6.832031 11.246094 16.453125 11.007813 26.398438-.25 9.949218-4.722656 19.371093-12.28125 25.84375l-130.710937 111.890624c-1.28125 1.09375-2.859376 1.640626-4.4375 1.640626zm-5.289063-21.210938 5.511719 5.207031 126.046875-107.902343c4.691406-4.015626 7.359375-9.625 7.507812-15.800782.152344-6.167968-2.242187-11.902344-6.726562-16.136718-4.496094-4.238282-10.421875-6.292969-16.5-5.792969-6.152344.503906-11.601563 3.488281-15.339844 8.398437zm0 0" fill="#4c241d"/><path d="m164.855469 225.621094h150.25l-21.546875 33.542968c-27.558594 42.910157-75.054688 68.855469-126.050782 68.855469h-25.75c-44.359374 0-80.316406-35.957031-80.316406-80.316406 0-26.808594 10.558594-52.542969 29.390625-71.625l21.074219-21.347656c2.65625-2.691407 4.148438-6.324219 4.148438-10.105469 0-8.019531-6.558594-14.492188-14.578126-14.386719l-40.035156-.191406c0-26.742187 28.503906-47.785156 55.246094-47.785156 26.042969 0 47.152344 21.109375 47.152344 47.152343 0 17.457032-13.363282 43.355469-21.371094 57.304688-3.65625 6.367188-4.507812 13.960938-2.257812 20.949219 3.445312 10.699219 13.40625 17.953125 24.644531 17.953125zm0 0" fill="#c1dbdc"/><path d="m167.507812 334.847656h-25.75c-48.050781 0-87.144531-39.09375-87.144531-87.144531 0-28.789063 11.140625-55.929687 31.359375-76.421875l21.074219-21.351562c1.40625-1.417969 2.179687-3.304688 2.179687-5.304688 0-2.039062-.800781-3.945312-2.246093-5.378906-1.445313-1.433594-3.414063-2.253906-5.40625-2.175782l-40.167969-.195312c-3.761719-.019531-6.792969-3.070312-6.792969-6.828125 0-31.253906 32.773438-54.613281 62.074219-54.613281 29.765625 0 53.980469 24.214844 53.980469 53.976562 0 18.089844-12.113281 42.996094-22.28125 60.703125-2.707031 4.722657-3.320313 10.359375-1.671875 15.457031 2.546875 7.910157 9.832031 13.222657 18.140625 13.222657h150.25c2.5 0 4.796875 1.363281 5.996093 3.554687 1.191407 2.191406 1.101563 4.863282-.25 6.960938l-21.542968 33.542968c-28.957032 45.082032-78.230469 71.996094-131.800782 71.996094zm-65.714843-211.4375c5.492187 0 10.773437 2.167969 14.773437 6.117188 4.074219 4.015625 6.3125 9.375 6.3125 15.097656 0 5.617188-2.171875 10.914062-6.121094 14.902344l-21.066406 21.347656c-17.6875 17.917969-27.425781 41.652344-27.425781 66.828125 0 40.523437 32.964844 73.492187 73.492187 73.492187h25.746094c48.90625 0 93.878906-24.570312 120.308594-65.722656l14.792969-23.027344h-137.753907c-14.253906 0-26.765624-9.113281-31.140624-22.683593-2.816407-8.75-1.785157-18.386719 2.835937-26.441407 13.003906-22.664062 20.464844-42.3125 20.464844-53.910156 0-22.230468-18.09375-40.324218-40.324219-40.324218-20.140625 0-43.21875 14.472656-47.660156 34.171874l32.484375.15625c.09375 0 .1875-.003906.28125-.003906zm0 0" fill="#4c241d"/><path d="m140.132812 256.160156c-2.074218 0-4.125-.9375-5.464843-2.726562-2.261719-3.015625-1.65625-7.292969 1.359375-9.558594l1.777344-1.339844c20.476562-15.394531 36.128906-23.742187 60.167968-23.742187h27.308594c3.773438 0 6.824219 3.058593 6.824219 6.828125 0 3.769531-3.050781 6.824218-6.824219 6.824218h-27.308594c-20.3125 0-33.441406 7.074219-51.964844 21.007813l-1.78125 1.339844c-1.226562.921875-2.667968 1.367187-4.09375 1.367187zm0 0" fill="#4c241d"/><path d="m260.585938 280.234375h-62.613282c-3.773437 0-6.828125-3.058594-6.828125-6.828125s3.054688-6.824219 6.828125-6.824219h62.613282c15.652343 0 27.933593-18.421875 40.933593-37.921875 2.085938-3.140625 6.3125-3.988281 9.464844-1.894531 3.140625 2.09375 3.988281 6.332031 1.894531 9.46875-14.417968 21.632813-29.332031 44-52.292968 44zm0 0" fill="#4c241d"/><path d="m122.878906 109.566406c0 3.769532-3.054687 6.828125-6.824218 6.828125-3.773438 0-6.828126-3.058593-6.828126-6.828125 0-3.769531 3.054688-6.824218 6.828126-6.824218 3.769531 0 6.824218 3.054687 6.824218 6.824218zm0 0" fill="#4c241d"/><path d="m111.558594 41.660156c0 5.457032-4.421875 9.878906-9.878906 9.878906-5.453126 0-9.875-4.421874-9.875-9.878906 0-5.453125 4.421874-9.878906 9.875-9.878906 5.457031 0 9.878906 4.425781 9.878906 9.878906zm0 0" fill="#fc8c29"/><path d="m101.679688 58.363281c-9.210938 0-16.707032-7.492187-16.707032-16.703125 0-9.210937 7.496094-16.707031 16.707032-16.707031 9.210937 0 16.707031 7.496094 16.707031 16.707031 0 9.210938-7.496094 16.703125-16.707031 16.703125zm0-19.753906c-1.6875 0-3.054688 1.367187-3.054688 3.050781s1.367188 3.050782 3.054688 3.050782 3.054687-1.367188 3.054687-3.050782-1.367187-3.050781-3.054687-3.050781zm0 0" fill="#4c241d"/><path d="m145.691406 41.660156c0 5.457032-4.421875 9.878906-9.875 9.878906-5.457031 0-9.878906-4.421874-9.878906-9.878906 0-5.453125 4.421875-9.878906 9.878906-9.878906 5.453125 0 9.875 4.425781 9.875 9.878906zm0 0" fill="#fc8c29"/><path d="m135.8125 58.363281c-9.210938 0-16.707031-7.492187-16.707031-16.703125 0-9.210937 7.496093-16.707031 16.707031-16.707031 9.214844 0 16.707031 7.496094 16.707031 16.707031 0 9.210938-7.492187 16.703125-16.707031 16.703125zm0-19.753906c-1.6875 0-3.050781 1.367187-3.050781 3.050781s1.363281 3.050782 3.050781 3.050782 3.054688-1.367188 3.054688-3.050782-1.367188-3.050781-3.054688-3.050781zm0 0" fill="#4c241d"/><path d="m179.828125 55.3125c0 5.457031-4.425781 9.878906-9.878906 9.878906-5.457031 0-9.878907-4.421875-9.878907-9.878906 0-5.453125 4.421876-9.875 9.878907-9.875 5.453125 0 9.878906 4.421875 9.878906 9.875zm0 0" fill="#fc8c29"/><path d="m169.945312 72.015625c-9.210937 0-16.707031-7.492187-16.707031-16.703125s7.496094-16.703125 16.707031-16.703125c9.214844 0 16.707032 7.492187 16.707032 16.703125s-7.492188 16.703125-16.707032 16.703125zm0-19.753906c-1.683593 0-3.050781 1.371093-3.050781 3.050781 0 1.683594 1.367188 3.050781 3.050781 3.050781 1.6875 0 3.054688-1.367187 3.054688-3.050781 0-1.679688-1.367188-3.050781-3.054688-3.050781zm0 0" fill="#4c241d"/><path d="m75.09375 130.046875c-15.734375-1.765625-27.308594 6.828125-40.960938 13.652344 0 0 13.652344-40.957031 40.960938-40.957031zm0 0" fill="#fc8c29"/><path d="m34.132812 150.527344c-1.605468 0-3.207031-.570313-4.472656-1.671875-2.085937-1.808594-2.875-4.695313-2-7.316407.621094-1.859374 15.574219-45.625 47.433594-45.625 3.773438 0 6.828125 3.054688 6.828125 6.828126v27.304687c0 1.945313-.828125 3.792969-2.28125 5.089844-1.441406 1.296875-3.386719 1.917969-5.308594 1.691406-10.699219-1.191406-19.398437 3.503906-29.496093 8.953125-2.503907 1.351562-5.042969 2.71875-7.648438 4.023438-.96875.484374-2.015625.722656-3.054688.722656zm34.132813-39.761719c-7.914063 2.816406-14.285156 10.15625-18.914063 17.398437 5.835938-2.636718 12.007813-4.671874 18.914063-5.097656zm0 0" fill="#4c241d"/><path d="m286.71875 78.847656c0 5.65625-4.582031 10.238282-10.238281 10.238282s-10.242188-4.582032-10.242188-10.238282 4.585938-10.242187 10.242188-10.242187 10.238281 4.585937 10.238281 10.242187zm0 0" fill="#ffce56"/><path d="m348.160156 92.5c0 5.65625-4.585937 10.242188-10.238281 10.242188-5.65625 0-10.242187-4.585938-10.242187-10.242188s4.585937-10.238281 10.242187-10.238281c5.652344 0 10.238281 4.582031 10.238281 10.238281zm0 0" fill="#ffce56"/><path d="m389.121094 133.460938c0 5.65625-4.585938 10.238281-10.242188 10.238281s-10.238281-4.582031-10.238281-10.238281 4.582031-10.242188 10.238281-10.242188 10.242188 4.585938 10.242188 10.242188zm0 0" fill="#ffce56"/><path d="m278.519531 106.152344c0 4.898437-3.96875 8.867187-8.867187 8.867187-4.894532 0-8.863282-3.96875-8.863282-8.867187 0-4.894532 3.96875-8.863282 8.863282-8.863282 4.898437 0 8.867187 3.96875 8.867187 8.863282zm0 0" fill="#edebdc"/><path d="m333.132812 119.808594c0 4.894531-3.96875 8.863281-8.867187 8.863281-4.894531 0-8.863281-3.96875-8.863281-8.863281 0-4.898438 3.96875-8.867188 8.863281-8.867188 4.898437 0 8.867187 3.96875 8.867187 8.867188zm0 0" fill="#edebdc"/><path d="m367.265625 153.941406c0 4.894532-3.96875 8.863282-8.867187 8.863282-4.894532 0-8.863282-3.96875-8.863282-8.863282 0-4.898437 3.96875-8.867187 8.863282-8.867187 4.898437 0 8.867187 3.96875 8.867187 8.867187zm0 0" fill="#edebdc"/></svg>