<svg height="423.25333pt" viewBox="0 0 423.25333 423.25333" width="423.25333pt" xmlns="http://www.w3.org/2000/svg"><path d="m307.199219 153.601562c0 84.828126-68.769531 153.597657-153.597657 153.597657-84.832031 0-153.601562-68.769531-153.601562-153.597657 0-84.832031 68.769531-153.601562 153.601562-153.601562 84.828126 0 153.597657 68.769531 153.597657 153.601562zm0 0" fill="#d9be6f"/><path d="m68.265625 273.066406h-20.480469c0-37.703125 30.566406-68.265625 68.269532-68.265625h20.480468c0 37.703125-30.566406 68.265625-68.269531 68.265625zm0 0" fill="#e7d1c4"/><path d="m68.265625 279.894531h-20.480469c-3.773437 0-6.824218-3.054687-6.824218-6.828125 0-41.40625 33.683593-75.09375 75.09375-75.09375h20.480468c3.773438 0 6.824219 3.054688 6.824219 6.828125 0 41.40625-33.6875 75.09375-75.09375 75.09375zm-13.273437-13.65625h13.273437c31.574219 0 57.652344-23.929687 61.058594-54.613281h-13.269531c-31.574219 0-57.652344 23.933594-61.0625 54.613281zm0 0" fill="#4c241d"/><path d="m395.945312 273.066406h20.480469c0-37.703125-30.5625-68.265625-68.265625-68.265625h-20.480468c0 37.703125 30.566406 68.265625 68.265624 68.265625zm0 0" fill="#e7d1c4"/><path d="m416.425781 279.894531h-20.480469c-41.40625 0-75.09375-33.6875-75.09375-75.09375 0-3.773437 3.054688-6.828125 6.828126-6.828125h20.480468c41.40625 0 75.09375 33.6875 75.09375 75.09375 0 3.773438-3.054687 6.828125-6.828125 6.828125zm-81.539062-68.269531c3.40625 30.683594 29.488281 54.613281 61.058593 54.613281h13.273438c-3.40625-30.679687-29.484375-54.613281-61.058594-54.613281zm0 0" fill="#4c241d"/><path d="m235.519531 416.425781c-69.75 0-126.292969-56.542969-126.292969-126.292969v-174.078124h252.585938v174.078124c0 69.75-56.542969 126.292969-126.292969 126.292969zm0 0" fill="#e7d1c4"/><path d="m235.519531 423.253906c-73.398437 0-133.121093-59.71875-133.121093-133.121094v-174.078124c0-3.773438 3.054687-6.828126 6.828124-6.828126h252.585938c3.773438 0 6.828125 3.054688 6.828125 6.828126v174.078124c0 73.402344-59.71875 133.121094-133.121094 133.121094zm-119.464843-300.375v167.253906c0 65.875 53.589843 119.46875 119.464843 119.46875s119.46875-53.59375 119.46875-119.46875v-167.253906zm0 0" fill="#4c241d"/><path d="m354.988281 102.398438c-7.386719 0-14.421875 1.488281-20.847656 4.144531-6.183594-8.996094-15.867187-15.359375-27.085937-17.203125-1.457032-23.1875-20.675782-41.554688-44.226563-41.554688-19.574219 0-36.152344 12.691406-42.050781 30.277344-8.003906-17.835938-25.882813-30.277344-46.699219-30.277344-28.277344 0-51.199219 22.921875-51.199219 51.203125 0 1.320313.101563 2.617188.199219 3.914063-2.304687-.296875-4.640625-.503906-7.023437-.503906-30.164063 0-54.613282 24.453124-54.613282 54.613281 0 30.164062 24.449219 54.613281 54.613282 54.613281 9.457031 0 18.355468-2.40625 26.113281-6.640625 7.113281 12.128906 20.25 20.296875 35.324219 20.296875 20.222656 0 36.980468-14.667969 40.316406-33.933594 8.128906 10.261719 20.839844 20.277344 41.605468 20.277344 34.132813 0 42.136719-41.019531 42.726563-41.046875 6.039063 23.585937 27.375 41.046875 52.847656 41.046875 30.160157 0 54.613281-24.449219 54.613281-54.613281 0-30.160157-24.453124-54.613281-54.613281-54.613281zm0 0" fill="#efefd2"/><g fill="#4c241d"><path d="m177.492188 232.105469c-14.738282 0-28.664063-6.929688-37.65625-18.433594-7.496094 3.140625-15.609376 4.78125-23.78125 4.78125-33.882813 0-61.441407-27.558594-61.441407-61.441406 0-33.878907 27.558594-61.4375 61.441407-61.4375h.097656c1.773437-30.414063 27.082031-54.613281 57.925781-54.613281 18.296875 0 35.289063 8.671874 46.121094 22.863281 9.320312-14.050781 25.179687-22.863281 42.628906-22.863281 25.171875 0 46.40625 18.414062 50.449219 42.777343 8.976562 2.527344 17.082031 7.660157 23.203125 14.6875 5.980469-1.894531 12.1875-2.851562 18.507812-2.851562 33.878907 0 61.4375 27.558593 61.4375 61.4375 0 33.882812-27.558593 61.441406-61.4375 61.441406-21.949219 0-41.6875-11.625-52.574219-29.707031-12.621093 25.480468-31.726562 29.707031-43 29.707031-14.972656 0-27.90625-4.707031-38.578124-14.027344-7.640626 16.574219-24.320313 27.679688-43.34375 27.679688zm-35.332032-33.945313c2.347656 0 4.625 1.210938 5.894532 3.375 6.125 10.429688 17.40625 16.917969 29.4375 16.917969 16.628906 0 30.753906-11.886719 33.589843-28.273437.460938-2.644532 2.433594-4.785157 5.039063-5.445313 2.617187-.679687 5.371094.257813 7.039062 2.375 9.425782 11.902344 21.285156 17.691406 36.253906 17.691406 20.757813 0 30.851563-18.855469 35.660157-34.671875.566406-1.855468 1.886719-6.203125 6.839843-6.367187 3.066407-.242188 6.046876 2.027343 6.839844 5.125 5.414063 21.148437 24.425782 35.914062 46.234375 35.914062 26.347657 0 47.785157-21.441406 47.785157-47.789062 0-26.347657-21.4375-47.785157-47.785157-47.785157-6.28125 0-12.421875 1.21875-18.242187 3.625-2.988282 1.207032-6.414063.207032-8.234375-2.445312-5.226563-7.605469-13.453125-12.835938-22.558594-14.332031-3.140625-.515625-5.507813-3.128907-5.707031-6.300781-1.246094-19.71875-17.6875-35.160157-37.417969-35.160157-16.148437 0-30.441406 10.292969-35.574219 25.621094-.894531 2.664063-3.328125 4.511719-6.140625 4.652344-2.554687.195312-5.414062-1.453125-6.5625-4.023438-7.15625-15.949219-23.042969-26.25-40.472656-26.25-24.464844 0-44.371094 19.90625-44.371094 44.375 0 1.136719.09375 2.265625.179688 3.382813.160156 2.046875-.613281 4.054687-2.101563 5.476562-1.484375 1.410156-3.539062 2.058594-5.566406 1.824219-2.023438-.257813-4.070312-.445313-6.164062-.445313-26.347657 0-47.789063 21.4375-47.789063 47.785157 0 26.347656 21.441406 47.789062 47.789063 47.789062 7.980468 0 15.878906-2.007812 22.847656-5.808593 1.03125-.566407 2.148437-.832032 3.257812-.832032zm0 0"/><path d="m317.660156 266.238281c0 9.550781-7.738281 17.289063-17.285156 17.289063-9.550781 0-17.289062-7.738282-17.289062-17.289063 0-9.546875 7.738281-17.285156 17.289062-17.285156 9.546875 0 17.285156 7.738281 17.285156 17.285156zm0 0"/><path d="m187.953125 266.238281c0 9.550781-7.738281 17.289063-17.285156 17.289063s-17.289063-7.738282-17.289063-17.289063c0-9.546875 7.742188-17.285156 17.289063-17.285156s17.285156 7.738281 17.285156 17.285156zm0 0"/></g><path d="m217.65625 320.421875-6.03125-6.898437c-4.484375-5.128907-.84375-13.148438 5.96875-13.148438h33.140625c6.8125 0 10.453125 8.019531 5.96875 13.148438l-6.03125 6.898437c-8.738281 9.992187-24.277344 9.992187-33.015625 0zm0 0" fill="#e66353"/><path d="m234.167969 334.742188c-8.300781 0-16.1875-3.582032-21.648438-9.828126l-6.035156-6.894531c-3.859375-4.417969-4.75-10.480469-2.324219-15.820312 2.417969-5.339844 7.566406-8.652344 13.433594-8.652344h33.140625c5.867187 0 11.011719 3.3125 13.433594 8.652344 2.425781 5.339843 1.53125 11.402343-2.328125 15.820312l-6.03125 6.894531c-5.460938 6.246094-13.347656 9.828126-21.640625 9.828126zm-16.574219-27.542969c-.195312 0-.714844 0-1.007812.648437-.292969.644532.054687 1.039063.179687 1.183594l6.03125 6.894531c5.726563 6.554688 16.988281 6.566407 22.726563 0l6.035156-6.894531c.125-.144531.472656-.539062.179687-1.183594-.296875-.648437-.816406-.648437-1.007812-.648437zm0 0" fill="#4c241d"/><path d="m233.945312 375.464844c-3.773437 0-6.824218-3.050782-6.824218-6.824219v-40.878906c0-3.773438 3.050781-6.828125 6.824218-6.828125 3.773438 0 6.828126 3.054687 6.828126 6.828125v40.878906c0 3.773437-3.054688 6.824219-6.828126 6.824219zm0 0" fill="#4c241d"/></svg>