<?xml version="1.0" encoding="iso-8859-1"?>
<!-- Generator: Adobe Illustrator 19.0.0, SVG Export Plug-In . SVG Version: 6.00 Build 0)  -->
<svg version="1.1" id="Capa_1" xmlns="http://www.w3.org/2000/svg" xmlns:xlink="http://www.w3.org/1999/xlink" x="0px" y="0px"
	 viewBox="0 0 368.644 368.644" style="enable-background:new 0 0 368.644 368.644;" xml:space="preserve">
<path style="fill:#FFDD95;" d="M163.849,334.874L19.453,295.706l10.24-150.187c0,0-64.853-64.853,23.893-98.987
	s250.832,5.85,250.832,5.85L163.849,334.874z"/>
<path d="M163.849,341.701c-0.594,0-1.193-0.077-1.787-0.237L17.666,302.297c-3.144-0.853-5.246-3.806-5.023-7.054L22.68,148.01
	c-6.953-7.774-27.481-33.533-21.651-60.996c4.231-19.927,21.086-35.69,50.106-46.85c89.713-34.517,248.216,3.941,254.916,5.593
	c2.014,0.493,3.69,1.877,4.56,3.76c0.874,1.881,0.84,4.053-0.08,5.907l-140.57,282.489
	C168.786,340.277,166.39,341.701,163.849,341.701z M26.646,290.585l133.586,36.236l134.211-269.71
	c-34.036-7.45-164.004-32.807-238.406-4.207C31.608,62.301,17.594,74.73,14.387,89.846c-5.316,25.047,19.879,50.591,20.134,50.847
	c1.396,1.393,2.116,3.323,1.983,5.291L26.646,290.585z"/>
<path style="fill:#FBAD4A;" d="M177.401,149.546c-12.802-10.827-20.386-24.272-20.386-38.839c0-35.818,45.846-64.853,102.4-64.853
	s102.4,29.036,102.4,64.853c0,14.541-7.557,27.965-20.32,38.782l20.32,155.778l-197.973,30.72L177.401,149.546z"/>
<path d="M163.842,342.814c-1.703,0-3.357-0.637-4.627-1.807c-1.529-1.41-2.333-3.441-2.183-5.516l13.317-183.067
	c-13.206-12.14-20.161-26.499-20.161-41.716c0-39.523,49-71.68,109.227-71.68s109.227,32.157,109.227,71.68
	c0,15.116-6.866,29.394-19.91,41.487l19.854,152.19c0.48,3.676-2.06,7.06-5.724,7.63l-197.973,30.72
	C164.54,342.788,164.188,342.814,163.842,342.814z M259.415,52.68c-52.7,0-95.573,26.03-95.573,58.027
	c0,15.234,9.771,26.694,17.966,33.623c1.667,1.41,2.56,3.529,2.403,5.71l-12.94,177.886l182.914-28.384L334.725,150.37
	c-0.3-2.301,0.587-4.593,2.357-6.089c8.17-6.924,17.906-18.371,17.906-33.574C354.989,78.71,312.115,52.68,259.415,52.68z"/>
<g>
	<circle cx="228.695" cy="103.887" r="10.24"/>
	<circle cx="303.789" cy="178.98" r="10.24"/>
	<circle cx="228.695" cy="233.594" r="10.24"/>
	<circle cx="300.375" cy="114.127" r="6.827"/>
	<circle cx="279.895" cy="230.18" r="6.827"/>
</g>
<g>
</g>
<g>
</g>
<g>
</g>
<g>
</g>
<g>
</g>
<g>
</g>
<g>
</g>
<g>
</g>
<g>
</g>
<g>
</g>
<g>
</g>
<g>
</g>
<g>
</g>
<g>
</g>
<g>
</g>
</svg>
