<svg id="Capa_1" enable-background="new 0 0 443.957 443.957" height="512" viewBox="0 0 443.957 443.957" width="512" xmlns="http://www.w3.org/2000/svg"><g><g id="icon_12_"><path d="m288.018 279.997h40.097v56.166h-40.097z" fill="#62667c" transform="matrix(.707 -.707 .707 .707 -127.615 308.07)"/><circle cx="171.621" cy="171.634" fill="#828a9e" r="171.621"/><path d="m286.896 286.899c-63.663 63.662-166.88 63.662-230.542 0s-63.662-166.88 0-230.542c63.662-63.662 166.88-63.662 230.542 0 63.558 63.705 63.558 166.836 0 230.542z" fill="#575b6d"/><path d="m256.236 256.239c-46.73 46.724-122.488 46.719-169.212-.01s-46.72-122.489.01-169.212c46.726-46.72 122.477-46.72 169.202 0 46.656 46.76 46.656 122.462 0 169.222z" fill="#62667c"/><path d="m341.529 294.473c-2.422-2.437-6.361-2.449-8.797-.027-.009.009-.018.018-.027.027l-38.261 38.261c-2.427 2.441-2.427 6.384 0 8.825l92.624 92.624c13.014 13.014 34.115 13.014 47.13 0 13.014-13.014 13.014-34.115 0-47.13zm76.961 123.983c-5.581 5.604-14.648 5.622-20.252.041s-5.622-14.648-.041-20.252c5.58-5.603 14.646-5.622 20.25-.043 5.611 5.561 5.651 14.618.09 20.229-.016.016-.031.031-.047.047z" fill="#f6b863"/><path d="m271.422 187.063c-7.45 8.576-20.904 17.374-44.645 24.049-7.164 2.046-12.726 7.706-14.645 14.905l-.975 3.676c-2.493 9.219-8.728 16.975-17.195 21.391-7.093 3.702-14.976 5.633-22.977 5.631-7.051-.001-13.66-3.435-17.715-9.204l-2.35-3.324-.991-1.413c-.959-1.36-2.021-2.643-3.178-3.839-7.095-7.303-17.258-10.765-27.336-9.312l-1.478.206c-15.044 2.175-30.197-3.171-40.546-14.304l-.964-1.034c-11.099-11.939-13.55-29.543-6.134-44.06 2.155-4.22 4.984-8.06 8.376-11.37l8.792-8.543 10.709-24.824c6.515-15.097 21.136-25.098 37.568-25.695l9.025-.341c6.988-.249 13.876-1.734 20.346-4.385l14.618-5.988c10.719-4.385 22.877-3.471 32.82 2.469 3.6 2.157 6.88 4.806 9.745 7.872 1.787 1.902 3.399 3.96 4.819 6.15 3.726 5.723 6.089 12.224 6.908 19.003l.704 5.853c.151 1.249.466 2.472.937 3.638 1.493 3.775 4.493 6.756 8.278 8.224l18.202 7.071c12.162 4.703 18.21 18.374 13.507 30.537-.985 2.547-2.404 4.905-4.195 6.967z" fill="#dbd8dd"/><path d="m266.436 180.653c-7.45 8.592-20.904 17.374-44.628 24.055-7.165 2.051-12.726 7.714-14.645 14.916l-.991 3.665c-2.488 9.23-8.731 16.995-17.211 21.407-7.092 3.706-14.976 5.638-22.977 5.631-5.631-.008-11.037-2.213-15.067-6.145-.963-.944-1.84-1.971-2.62-3.07l-1.548-2.166-1.803-2.55c-6.883-9.781-18.675-14.869-30.514-13.167l-1.478.217c-15.046 2.16-30.194-3.19-40.546-14.32l-.541-.541c-7.182-11.547-7.798-26.01-1.624-38.126 2.155-4.22 4.984-8.06 8.376-11.37l8.847-8.57 10.709-24.824c6.515-15.097 21.136-25.098 37.568-25.695l9.025-.341c6.988-.249 13.876-1.734 20.346-4.385l14.618-5.988c10.719-4.385 22.877-3.471 32.82 2.469 3.6 2.157 6.88 4.806 9.745 7.872 3.62 5.664 5.92 12.07 6.73 18.744l.72 5.863c.466 4.024 2.599 7.667 5.88 10.043 1.493 3.775 4.493 6.756 8.278 8.224l18.202 7.071c2.69 1.036 5.166 2.559 7.304 4.494 4.636 8.616 3.453 19.207-2.975 26.587z" fill="#eeefee"/><circle cx="163.812" cy="168.239" fill="#f6c863" r="37.13"/><ellipse cx="163.812" cy="145.9" fill="#eeefee" rx="11.673" ry="7.298"/></g></g></svg>