<svg height="417pt" viewBox="0 -4 417.62986 417" width="417pt" xmlns="http://www.w3.org/2000/svg"><path d="m341.960938 202.308594c0 94.429687-76.550782 170.980468-170.980469 170.980468-94.429688 0-170.980469-76.550781-170.980469-170.980468 0-94.429688 76.550781-170.980469 170.980469-170.980469 94.429687 0 170.980469 76.550781 170.980469 170.980469zm0 0" fill="#c1dbdc"/><path d="m231.050781 337.976562c-60.886719 0-117.160156-19.613281-162.964843-52.796874l-16.398438 28.199218c-9.453125 16.265625-3.90625 37.273438 12.523438 46.441406 49.394531 27.546876 106.269531 43.28125 166.839843 43.28125 56.992188 0 110.710938-13.929687 158.007813-38.519531 17.097656-8.890625 23.230468-30.355469 13.542968-47.015625l-15.832031-27.230468c-44.433593 30.074218-98.023437 47.640624-155.71875 47.640624zm0 0" fill="#fc8c29"/><path d="m231.050781 409.929688c-59.542969 0-118.386719-15.269532-170.167969-44.148438-9.480468-5.289062-16.285156-14-19.171874-24.527344-2.921876-10.644531-1.472657-21.765625 4.082031-31.304687l16.390625-28.195313c.964844-1.671875 2.601562-2.851562 4.488281-3.25 1.867187-.394531 3.851563.015625 5.417969 1.148438 46.507812 33.695312 101.480468 51.5 158.960937 51.5 54.453125 0 106.980469-16.066406 151.894531-46.464844 1.558594-1.0625 3.507813-1.429688 5.347657-1.003906 1.847656.421875 3.433593 1.589844 4.378906 3.226562l15.832031 27.230469c5.652344 9.71875 7.039063 21.023437 3.90625 31.832031-3.117187 10.757813-10.300781 19.515625-20.207031 24.667969-49.433594 25.699219-105.160156 39.289063-161.152344 39.289063zm-160.804687-114.875-12.65625 21.757812c-3.691406 6.347656-4.652344 13.75-2.710938 20.832031 1.914063 6.964844 6.40625 12.722657 12.660156 16.210938 49.75 27.753906 106.292969 42.417969 163.511719 42.417969 54.582031 0 106.679688-12.699219 154.859375-37.75 6.5625-3.414063 11.316406-9.21875 13.386719-16.355469 2.089844-7.1875 1.164063-14.707031-2.59375-21.171875l-12.203125-20.988282c-45.808594 29.328126-98.703125 44.796876-153.449219 44.796876-57.851562 0-113.292969-17.175782-160.804687-49.75zm0 0" fill="#4c241d"/><path d="m386.769531 290.335938-148.660156-255.691407c-5.433594-9.347656-18.929687-9.347656-24.363281 0l-145.660156 250.535157c45.804687 33.183593 102.078124 52.796874 162.964843 52.796874 57.695313 0 111.285157-17.566406 155.71875-47.640624zm0 0" fill="#ffce56"/><path d="m231.050781 344.804688c-60.378906 0-118.113281-18.707032-166.972656-54.09375-2.839844-2.058594-3.664063-5.929688-1.894531-8.960938l145.660156-250.535156c3.789062-6.515625 10.546875-10.410156 18.089844-10.410156 7.53125 0 14.292968 3.890624 18.078125 10.410156l148.660156 255.691406c1.808594 3.101562.898437 7.074219-2.074219 9.082031-47.179687 31.9375-102.355468 48.816407-159.546875 48.816407zm-153.925781-61.589844c45.417969 31.382812 98.507812 47.9375 153.925781 47.9375 52.320313 0 102.859375-14.832032 146.574219-42.957032l-145.414062-250.121093c-1.898438-3.257813-5.027344-3.613281-6.28125-3.613281-1.257813 0-4.386719.355468-6.285157 3.613281zm0 0" fill="#4c241d"/><path d="m271.425781 91.941406-33.3125-57.296875c-5.433593-9.347656-18.933593-9.347656-24.367187 0l-29.664063 51.023438c8.984375 16.003906 26.09375 26.835937 45.757813 26.835937 16.957031 0 31.992187-8.078125 41.585937-20.5625zm0 0" fill="#e66353"/><path d="m229.835938 119.332031c-21.390626 0-41.207032-11.617187-51.710938-30.320312-1.179688-2.109375-1.164062-4.6875.050781-6.777344l29.667969-51.019531c3.785156-6.515625 10.546875-10.410156 18.078125-10.410156 7.542969 0 14.300781 3.890624 18.089844 10.410156l33.3125 57.296875c1.394531 2.390625 1.199219 5.390625-.484375 7.585937-11.347656 14.765625-28.476563 23.234375-47.003906 23.234375zm-37.804688-33.765625c8.453125 12.492188 22.613281 20.109375 37.804688 20.109375 12.746093 0 24.640624-5.21875 33.265624-14.460937l-30.890624-53.140625c-1.902344-3.261719-5.027344-3.613281-6.289063-3.613281-1.253906 0-4.378906.351562-6.28125 3.613281zm0 0" fill="#4c241d"/><path d="m221.109375 238.09375c-9.363281 0-16.984375-7.621094-16.984375-16.984375 0-3.773437 3.050781-6.828125 6.824219-6.828125 3.773437 0 6.828125 3.054688 6.828125 6.828125 0 1.835937 1.492187 3.332031 3.332031 3.332031s3.335937-1.496094 3.335937-3.332031c0-3.773437 3.050782-6.828125 6.824219-6.828125 3.773438 0 6.828125 3.054688 6.828125 6.828125 0 9.363281-7.621094 16.984375-16.988281 16.984375zm0 0" fill="#4c241d"/><path d="m279.496094 211.183594c-3.773438 0-6.824219-3.058594-6.824219-6.828125 0-3.339844-2.722656-6.054688-6.0625-6.054688s-6.050781 2.714844-6.050781 6.054688c0 3.769531-3.054688 6.828125-6.828125 6.828125-3.773438 0-6.828125-3.058594-6.828125-6.828125 0-10.863281 8.839844-19.710938 19.707031-19.710938s19.714844 8.847657 19.714844 19.710938c0 3.769531-3.054688 6.828125-6.828125 6.828125zm0 0" fill="#4c241d"/><path d="m280.75 233.015625h-21.207031c-3.773438 0-6.828125-3.058594-6.828125-6.828125s3.054687-6.824219 6.828125-6.824219h21.207031c3.773438 0 6.828125 3.054688 6.828125 6.824219s-3.054687 6.828125-6.828125 6.828125zm0 0" fill="#f53e28"/><path d="m187.609375 211.183594c-3.773437 0-6.824219-3.058594-6.824219-6.828125 0-3.339844-2.714844-6.054688-6.054687-6.054688-3.339844 0-6.0625 2.714844-6.0625 6.054688 0 3.769531-3.050781 6.828125-6.824219 6.828125s-6.828125-3.058594-6.828125-6.828125c0-10.863281 8.847656-19.710938 19.714844-19.710938 10.867187 0 19.707031 8.847657 19.707031 19.710938 0 3.769531-3.054688 6.828125-6.828125 6.828125zm0 0" fill="#4c241d"/><path d="m181.796875 233.015625h-21.207031c-3.773438 0-6.824219-3.058594-6.824219-6.828125s3.050781-6.824219 6.824219-6.824219h21.207031c3.773437 0 6.828125 3.054688 6.828125 6.824219s-3.054688 6.828125-6.828125 6.828125zm0 0" fill="#f53e28"/><path d="m335.710938 259.742188c10.527343 0 19.820312-4.867188 26.082031-12.359376l-32.148438-55.296874c-15.945312 2.871093-28.066406 16.746093-28.066406 33.523437 0 18.847656 15.28125 34.132813 34.132813 34.132813zm0 0" fill="#e66353"/><path d="m335.710938 266.566406c-22.585938 0-40.960938-18.371094-40.960938-40.957031 0-19.808594 14.167969-36.730469 33.6875-40.246094 2.8125-.484375 5.664062.8125 7.105469 3.292969l32.152343 55.296875c1.449219 2.476563 1.179688 5.601563-.660156 7.804687-7.863281 9.414063-19.277344 14.808594-31.324218 14.808594zm-9.355469-66.554687c-10.628907 3.851562-17.953125 13.980469-17.953125 25.597656 0 15.054687 12.246094 27.304687 27.308594 27.304687 6.453124 0 12.660156-2.359374 17.574218-6.589843zm0 0" fill="#4c241d"/><path d="m103.410156 306.941406c19.460938-3.175781 34.328125-20.015625 34.328125-40.375 0-20.683594-15.351562-37.742187-35.273437-40.519531l-34.378906 59.132813c11.175781 8.097656 22.984374 15.371093 35.324218 21.761718zm0 0" fill="#e66353"/><path d="m103.410156 313.769531c-1.085937 0-2.167968-.257812-3.140625-.765625-12.601562-6.523437-24.773437-14.027344-36.191406-22.292968-2.839844-2.054688-3.664063-5.929688-1.894531-8.957032l34.382812-59.132812c1.390625-2.40625 4.105469-3.75 6.839844-3.332032 23.464844 3.265626 41.160156 23.59375 41.160156 47.28125 0 23.507813-16.847656 43.328126-40.054687 47.113282-.367188.058594-.734375.085937-1.101563.085937zm-26.285156-30.558593c8.746094 6.03125 17.90625 11.585937 27.332031 16.578124 15.453125-3.527343 26.453125-17.167968 26.453125-33.222656 0-15.402344-10.480468-28.816406-25.003906-32.847656zm0 0" fill="#4c241d"/><path d="m303.886719 328.339844c0-.113282.019531-.21875.019531-.332032 0-23.90625-19.382812-43.289062-43.289062-43.289062s-43.289063 19.382812-43.289063 43.289062c0 3.328126.410156 6.554688 1.121094 9.667969 4.179687.1875 8.375.300781 12.601562.300781 25.203125 0 49.621094-3.351562 72.835938-9.636718zm0 0" fill="#e66353"/><g fill="#4c241d"><path d="m231.050781 344.804688c-4.320312 0-8.628906-.121094-12.90625-.3125-3.066406-.136719-5.660156-2.304688-6.347656-5.296876-.859375-3.738281-1.292969-7.507812-1.292969-11.191406 0-27.632812 22.480469-50.113281 50.113282-50.113281 27.632812 0 50.113281 22.480469 50.113281 50.113281 0 3.085938-2.082031 6.117188-5.0625 6.925782-24.203125 6.550781-49.3125 9.875-74.617188 9.875zm-6.761719-13.75c24.359376.699218 48.921876-2.058594 72.496094-7.921876-2.308594-17.707031-17.648437-31.585937-36.167968-31.585937-20.105469 0-36.457032 16.355469-36.457032 36.460937-.003906 1.007813.042969 2.023438.128906 3.046876zm79.601563-2.714844h.066406zm0 0"/><path d="m55.8125 184.648438c-1.300781 0-2.613281-.371094-3.78125-1.148438-3.140625-2.089844-3.988281-6.328125-1.894531-9.464844l9.335937-14c1.3125-1.964844 1.464844-4.496094.414063-6.601562l-5.847657-11.695313c-3.90625-7.804687-2.386718-17.199219 3.792969-23.375 2.664063-2.660156 6.988281-2.664062 9.652344.003907 2.667969 2.671874 2.667969 6.992187 0 9.65625-2.011719 2.007812-2.507813 5.066406-1.234375 7.609374l5.839844 11.691407c3.246094 6.472656 2.769531 14.25-1.257813 20.289062l-9.335937 13.996094c-1.3125 1.972656-3.480469 3.039063-5.683594 3.039063zm0 0"/><path d="m110.425781 123.207031c-1.300781 0-2.613281-.371093-3.78125-1.144531-3.140625-2.09375-3.988281-6.332031-1.894531-9.46875l9.335938-14c1.3125-1.960938 1.464843-4.492188.414062-6.597656l-5.847656-11.699219c-3.90625-7.800781-2.386719-17.199219 3.792968-23.371094 2.664063-2.660156 6.988282-2.664062 9.652344.003907 2.667969 2.667968 2.667969 6.988281 0 9.65625-2.011718 2.003906-2.507812 5.066406-1.234375 7.605468l5.839844 11.695313c3.246094 6.472656 2.769531 14.25-1.257813 20.285156l-9.332031 13.996094c-1.316406 1.972656-3.484375 3.039062-5.6875 3.039062zm0 0"/><path d="m294.746094 68.59375c-1.300782 0-2.613282-.371094-3.78125-1.144531-3.140625-2.09375-3.988282-6.332031-1.894532-9.46875l9.335938-14c1.3125-1.960938 1.464844-4.492188.414062-6.597657l-5.847656-11.699218c-3.90625-7.800782-2.386718-17.199219 3.792969-23.371094 2.664063-2.660156 6.988281-2.664062 9.652344.003906 2.667969 2.667969 2.667969 6.988282 0 9.65625-2.011719 2.003906-2.507813 5.066406-1.234375 7.605469l5.839844 11.695313c3.246093 6.472656 2.769531 14.25-1.257813 20.285156l-9.335937 13.996094c-1.3125 1.972656-3.480469 3.039062-5.683594 3.039062zm0 0"/><path d="m342.53125 143.6875c-1.300781 0-2.613281-.371094-3.78125-1.144531-3.140625-2.09375-3.984375-6.332031-1.890625-9.46875l9.332031-14c1.316406-1.960938 1.46875-4.492188.414063-6.597657l-5.847657-11.699218c-3.90625-7.804688-2.386718-17.199219 3.792969-23.371094 2.667969-2.664062 6.988281-2.664062 9.652344 0 2.667969 2.671875 2.667969 6.992188 0 9.65625-2.011719 2.007812-2.503906 5.070312-1.230469 7.609375l5.839844 11.691406c3.246094 6.476563 2.765625 14.253907-1.261719 20.289063l-9.332031 13.996094c-1.316406 1.972656-3.480469 3.039062-5.6875 3.039062zm0 0"/><path d="m390.324219 54.941406c-15.0625 0-27.308594-12.25-27.308594-27.304687 0-15.058594 12.246094-27.308594 27.308594-27.308594 15.058593 0 27.304687 12.25 27.304687 27.308594 0 15.054687-12.246094 27.304687-27.304687 27.304687zm0-40.960937c-7.527344 0-13.65625 6.125-13.65625 13.65625 0 7.527343 6.128906 13.652343 13.65625 13.652343 7.523437 0 13.652343-6.125 13.652343-13.652343 0-7.53125-6.125-13.65625-13.652343-13.65625zm0 0"/><path d="m34.25 62.820312c-1.746094 0-3.492188-.667968-4.824219-2-2.667969-2.664062-2.667969-6.988281 0-9.652343l28.078125-28.082031c2.667969-2.667969 6.988282-2.667969 9.652344 0 2.667969 2.664062 2.667969 6.984374 0 9.652343l-28.078125 28.082031c-1.332031 1.332032-3.082031 2-4.828125 2zm0 0"/><path d="m62.332031 62.820312c-1.746093 0-3.496093-.667968-4.828125-2l-28.078125-28.082031c-2.667969-2.667969-2.667969-6.992187 0-9.652343 2.664063-2.667969 6.984375-2.667969 9.652344 0l28.078125 28.082031c2.667969 2.664062 2.667969 6.988281 0 9.652343-1.332031 1.332032-3.078125 2-4.824219 2zm0 0"/></g></svg>