<svg height="512pt" viewBox="0 0 512 512" width="512pt" xmlns="http://www.w3.org/2000/svg"><path d="m512 256c0 27.46875-4.324219 53.9375-12.351562 78.742188-28.273438 87.585937-102.460938 154.53125-194.183594 172.484374-13.070313 2.558594-26.496094 4.113282-40.195313 4.605469-3.074219.117188-6.167969.167969-9.269531.167969-141.386719 0-256-114.613281-256-256s114.613281-256 256-256 256 114.613281 256 256zm0 0" fill="#96d6d4"/><path d="m473.1875 78.472656c0 29.785156-24.144531 53.929688-53.925781 53.929688-29.785157 0-53.929688-24.144532-53.929688-53.929688 0-29.78125 24.144531-53.929687 53.929688-53.929687 29.78125 0 53.925781 24.148437 53.925781 53.929687zm0 0" fill="#ffbb16"/><path d="m512 256c0 60.113281-20.71875 115.386719-55.402344 159.066406-22.726562 28.617188-51.46875 52.273438-84.289062 69.046875h-112.503906l24.941406-227.894531c61.816406 51.722656 145.816406-31.953125 222.675781-48.691406 3 15.695312 4.578125 31.902344 4.578125 48.472656zm0 0" fill="#17aa3d"/><path d="m456.597656 415.066406c-11.796875 14.855469-25.210937 28.378906-39.988281 40.289063-43.914063 35.433593-99.785156 56.644531-160.609375 56.644531-101.761719 0-189.648438-59.371094-230.921875-145.367188-5.769531-12.027343-10.636719-24.574218-14.484375-37.550781-6.894531-23.15625-10.59375-47.691406-10.59375-73.082031 0-17.429688 1.746094-34.460938 5.066406-50.90625 300.253906-85.109375 341.683594 195.1875 451.53125 209.972656zm0 0" fill="#21bf4a"/><path d="m205.300781 259.300781s-131.09375-6.238281-194.707031 69.78125c-6.894531-23.15625-10.59375-47.691406-10.59375-73.082031 0 0 48.777344-43.375 127.039062-20.042969zm0 0" fill="#17aa3d"/><path d="m205.296875 259.300781h-146.640625l20.941406-184.71875c.683594-6.015625 5.769532-10.554687 11.820313-10.554687h81.117187c6.050782 0 11.140625 4.539062 11.820313 10.554687zm0 0" fill="#8c3e09"/><path d="m205.296875 259.300781h-112.972656l10.652343-195.273437h69.558594c6.050782 0 11.140625 4.539062 11.820313 10.554687zm0 0" fill="#ab5816"/><path d="m180.472656 24.507812h-96.992187c-9.660157 0-17.492188 7.832032-17.492188 17.492188v23.019531c0 9.660157 7.832031 17.492188 17.492188 17.492188h96.992187c9.660156 0 17.492188-7.832031 17.492188-17.492188v-23.019531c0-9.660156-7.828125-17.492188-17.492188-17.492188zm0 0" fill="#757177"/><path d="m93.777344 86.515625 9.148437-9.148437 67.246094 67.242187-9.152344 9.152344zm0 0" fill="#2f373b"/><path d="m161.023438 77.363281 9.148437 9.152344-67.242187 67.242187-9.148438-9.148437zm0 0" fill="#2f373b"/><path d="m217.871094 20.582031c5.035156 5.035157 5.035156 13.199219 0 18.234375l-10.769532 10.777344-4.46875 4.464844-18.503906 18.503906-4.464844 4.46875-19.890624 19.886719-22.777344-22.78125c-.523438-.523438-1.011719-1.058594-1.476563-1.613281-1.417969-1.707032-2.554687-3.5625-3.421875-5.511719-3.839844-8.675781-2.210937-19.1875 4.898438-26.296875l3.179687-3.171875 27.4375-27.4375 3.175781-3.183594c7.113282-7.113281 17.625-8.742187 26.292969-4.894531 1.953125.859375 3.808594 2.003906 5.511719 3.421875.558594.457031 1.097656.953125 1.617188 1.472656zm0 0" fill="#d7d3cd"/><path d="m126.953125 190.410156-3.179687 3.183594-4.46875 4.464844-26.144532 26.144531c-7.105468 7.109375-17.621094 8.746094-26.292968 4.898437-1.953126-.859374-3.808594-2.003906-5.511719-3.421874-.558594-.460938-1.097657-.953126-1.621094-1.476563l-7.613281-7.613281-4.460938-4.457032-1.582031-1.585937c-5.035156-5.035156-5.035156-13.199219 0-18.238281l33.738281-33.738282 4.46875-4.464843 19.890625-19.894531 10.695313 10.703124 12.082031 12.078126c.519531.523437 1.007813 1.0625 1.46875 1.621093 1.425781 1.703125 2.5625 3.558594 3.425781 5.503907 3.84375 8.675781 2.214844 19.1875-4.894531 26.292968zm0 0" fill="#d7d3cd"/><path d="m113.324219 87.765625-22.777344 22.773437c-.519531.523438-1.0625 1.019532-1.617187 1.476563-1.703126 1.417969-3.558594 2.5625-5.511719 3.421875-8.667969 3.847656-19.179688 2.21875-26.289063-4.898438l-3.179687-3.171874-4.460938-4.46875-18.507812-18.503907-4.460938-4.464843-3.1875-3.183594c-7.105469-7.105469-8.738281-17.617188-4.898437-26.292969.867187-1.953125 2.003906-3.808594 3.421875-5.511719.464843-.558594.953125-1.089844 1.476562-1.613281l7.617188-7.613281 4.460937-4.46875 1.585938-1.582032c5.035156-5.035156 13.199218-5.035156 18.234375 0l33.746093 33.746094 4.460938 4.46875zm0 0" fill="#d7d3cd"/><path d="m245.515625 180.675781c-.867187 1.945313-2.003906 3.800781-3.421875 5.503907-.464844.558593-.953125 1.097656-1.476562 1.617187l-7.613282 7.621094-4.46875 4.460937-1.574218 1.578125c-5.039063 5.035157-13.203126 5.035157-18.238282 0l-10.773437-10.773437-4.460938-4.464844-22.972656-22.972656-19.890625-19.886719 10.699219-10.695313 4.460937-4.464843 7.613282-7.613281c.523437-.523438 1.0625-1.019532 1.621093-1.476563 1.703125-1.417969 3.558594-2.5625 5.511719-3.421875 8.671875-3.847656 19.183594-2.210938 26.292969 4.898438l26.144531 26.144531 4.46875 4.464843 3.179688 3.183594c7.109374 7.109375 8.738281 17.621094 4.898437 26.296875zm0 0" fill="#d7d3cd"/><path d="m143.160156 104.378906c-6.179687-6.179687-16.195312-6.179687-22.371094 0-6.179687 6.175782-6.179687 16.191406 0 22.371094 6.175782 6.175781 16.191407 6.175781 22.371094 0 6.175782-6.179688 6.175782-16.195312 0-22.371094zm0 0" fill="#bfbab2"/><path d="m216.292969 19.003906-4.46875-4.46875-19.890625 19.894532-9.15625-9.164063 19.816406-19.816406c-1.703125-1.417969-3.558594-2.5625-5.511719-3.421875l-18.773437 18.773437-10.695313-10.695312-4.46875 4.464843 10.695313 10.699219-18.5 18.5-10.695313-10.695312-4.46875 4.46875 10.703125 10.695312-18.78125 18.773438c.867188 1.953125 2.003906 3.804687 3.421875 5.511719l19.820313-19.820313 9.164062 9.160156-19.890625 19.890625 4.46875 4.46875 19.886719-19.894531 10.695312 10.703125 4.46875-4.46875-10.703124-10.703125 18.503906-18.503906 10.703125 10.703125 4.464843-4.464844-10.703124-10.703125zm-47.324219 38.390625-9.164062-9.15625 18.503906-18.503906 9.164062 9.15625zm0 0" fill="#bfbab2"/><path d="m131.851562 164.117188c-.867187-1.945313-2.003906-3.800782-3.425781-5.503907l-19.8125 19.816407-9.164062-9.164063 19.894531-19.886719-4.46875-4.464844-19.886719 19.886719-10.703125-10.695312-4.464844 4.464843 10.699219 10.695313-18.503906 18.503906-10.699219-10.695312-4.460937 4.460937 10.695312 10.703125-19.890625 19.894531 4.460938 4.457032 19.894531-19.886719 9.15625 9.160156-19.816406 19.816407c1.703125 1.417968 3.558593 2.5625 5.511719 3.421874l18.773437-18.773437 10.699219 10.695313 4.460937-4.460938-10.695312-10.699219 18.503906-18.503906 10.695313 10.699219 4.46875-4.464844-10.695313-10.703125zm-46.210937 37.277343-9.15625-9.15625 18.503906-18.503906 9.15625 9.15625zm0 0" fill="#bfbab2"/><path d="m98.160156 102.925781 4.46875-4.464843-19.886718-19.886719 10.695312-10.695313-4.460938-4.46875-10.699218 10.695313-18.507813-18.503907 10.703125-10.695312-4.464844-4.464844-10.703124 10.699219-19.894532-19.890625-4.460937 4.464844 19.890625 19.890625-9.160156 9.160156-19.824219-19.824219c-1.417969 1.707032-2.554688 3.5625-3.421875 5.511719l18.78125 18.78125-10.695313 10.695313 4.460938 4.464843 10.699219-10.695312 18.503906 18.503906-10.695313 10.695313 4.460938 4.46875 10.703125-10.703126 18.765625 18.773438c1.953125-.859375 3.808593-2.003906 5.511719-3.421875l-19.816407-19.8125 9.160157-9.160156zm-33.507812-15.1875-18.503906-18.503906 9.15625-9.164063 18.503906 18.503907zm0 0" fill="#bfbab2"/><path d="m242.09375 186.179688c1.417969-1.703126 2.554688-3.558594 3.421875-5.503907l-18.773437-18.773437 10.695312-10.703125-4.46875-4.46875-10.695312 10.703125-18.503907-18.503906 10.695313-10.703126-4.460938-4.460937-10.699218 10.695313-18.773438-18.773438c-1.953125.863281-3.808594 2.003906-5.511719 3.421875l19.816407 19.820313-9.15625 9.164062-19.894532-19.894531-4.460937 4.46875 19.890625 19.886719-10.695313 10.695312-.007812.003906 4.46875 4.46875.003906-.007812 10.695313-10.695313 18.503906 18.503907-10.703125 10.703124 4.46875 4.460938 10.703125-10.695312 19.886718 19.886718 4.464844-4.460937-19.890625-19.894531 9.160157-9.15625zm-33.441406-15.121094-18.511719-18.503906 9.164063-9.15625 18.503906 18.503906zm0 0" fill="#bfbab2"/><path d="m162.839844 209.171875c-7.234375 0-13.09375 5.859375-13.09375 13.089844v37.039062h26.183594v-37.039062c0-7.230469-5.859376-13.089844-13.089844-13.089844zm0 0" fill="#2f373b"/><path d="m499.648438 334.742188c-28.273438 87.585937-102.460938 154.53125-194.183594 172.484374-3.386719-15.757812-12.308594-39.101562-12.308594-39.101562l35.410156-123.914062c23.398438.792968 55.570313-19.070313 85.046875-30.105469 17.699219-6.625 34.429688-10.0625 47.71875-3.925781 15.183594 7.007812 26.613281 16.140624 38.316407 24.5625zm0 0" fill="#757177"/><path d="m298.277344 330.078125-14.425782 3.539063-8.863281 2.171874c-3.449219-5.800781-6.765625-13.910156-6.960937-22.613281-.109375-5.003906 4.335937-8.089843 8.539062-7.53125 1.71875.230469 3.394532 1.066407 4.710938 2.632813 5.039062 5.996094 11.328125 13.808594 17 21.800781zm0 0" fill="#d7d3cd"/><path d="m348.03125 313.175781c-.191406 8.703125-3.511719 16.816407-6.964844 22.613281l-13.863281-3.402343-9.425781-2.308594c5.675781-7.992187 11.964844-15.804687 17.003906-21.804687 3.386719-4.035157 9.207031-3.230469 11.863281.375v.007812c.894531 1.214844 1.425781 2.746094 1.386719 4.519531zm0 0" fill="#d7d3cd"/><path d="m346.644531 308.648438v.007812c-3.402343-3.402344-14.625 15.273438-19.441406 23.730469l-9.425781-2.308594c5.675781-7.992187 11.964844-15.804687 17.003906-21.804687 3.386719-4.03125 9.207031-3.230469 11.863281.375zm0 0" fill="#bfbab2"/><path d="m283.851562 333.617188-8.863281 2.171874c-3.449219-5.800781-6.765625-13.910156-6.960937-22.613281-.109375-5.003906 4.335937-8.089843 8.539062-7.53125-5.433594 0-3.054687 18.570313 7.285156 27.972657zm0 0" fill="#bfbab2"/><path d="m369.582031 368.3125c5.792969-1.988281 11.234375-5.296875 15.859375-9.925781 10.636719-10.632813 14.308594-25.601563 11.019532-39.226563-13.625-3.285156-28.585938.382813-39.226563 11.023438-3.207031 3.207031-5.777344 6.800781-7.71875 10.640625" fill="#f2f2f2"/><path d="m266.542969 340.828125c-1.941407-3.839844-4.511719-7.4375-7.71875-10.644531-10.636719-10.640625-25.601563-14.3125-39.226563-11.023438-3.292968 13.628906.382813 28.59375 11.019532 39.226563 4.628906 4.628906 10.066406 7.9375 15.859374 9.925781" fill="#58525b"/><path d="m257.167969 349.21875c-4.84375-10.855469-20.027344-21.964844-25.582031-16.410156-4.289063 4.285156 3.636718 19.617187 18.453124 27.027344 14.820313 7.414062 12.226563-5.546876 12.226563-5.546876zm0 0" fill="#2f373b"/><path d="m358.890625 349.21875c4.84375-10.855469 20.027344-21.964844 25.582031-16.410156 4.285156 4.285156-3.636718 19.617187-18.457031 27.027344-14.816406 7.414062-12.226563-5.546876-12.226563-5.546876zm0 0" fill="#2f373b"/><path d="m374.003906 398.464844c0-51.070313-29.535156-68.789063-65.972656-68.789063s-65.976562 17.71875-65.976562 68.789063c0 51.070312 29.539062 92.46875 65.976562 92.46875s65.972656-41.398438 65.972656-92.46875zm0 0" fill="#757177"/><path d="m308.027344 490.933594c-36.433594 0-65.972656-41.398438-65.972656-92.46875 0-50.847656 29.277343-68.632813 65.492187-68.785156-20.417969.277343-36.886719 18.109374-36.886719 68.785156 0 51.070312 16.730469 92.46875 37.367188 92.46875zm0 0" fill="#58525b"/><path d="m358.214844 458.5c.683594-2.652344 1.042968-5.398438 1.042968-8.210938 0-17.988281-14.734374-11.539062-35.148437-16.886718 0 0 4.816406-48.75-19.628906-54.675782-24.441407-5.921874-34.066407-24.808593-23.078125-45.171874l.003906-.007813c8.140625-2.671875 17.152344-3.867187 26.625-3.867187 7.734375 0 15.160156.796874 22.058594 2.542968v.003906c-7.726563 7.726563-13.015625 18.359376-1.535156 26.136719 11.480468 7.777344 28.207031-7.714843 37.527343 1.605469 5.054688 9.90625 7.921875 22.585938 7.921875 38.496094 0 22.917968-5.945312 43.878906-15.789062 60.035156zm0 0" fill="#f2f2f2"/><path d="m359.257812 452.871094c0 22.757812-19.34375 41.5625-44.417968 44.480468-2.238282.261719-4.503906.394532-6.8125.394532-28.289063 0-51.234375-20.09375-51.234375-44.875 0-24.796875 22.945312-27.292969 51.234375-27.292969 2.308594 0 4.585937.019531 6.8125.0625 25.074218.488281 44.417968 4.460937 44.417968 27.230469zm0 0" fill="#8c3e09"/><path d="m359.257812 452.871094c0 22.757812-19.34375 41.5625-44.417968 44.480468-25.078125-2.917968-44.421875-21.722656-44.421875-44.480468 0-22.769532 19.34375-26.742188 44.421875-27.230469 25.074218.488281 44.417968 4.460937 44.417968 27.230469zm0 0" fill="#ab5816"/><path d="m295.042969 455.203125c0-4.734375-4.675781-8.570313-10.441407-8.570313-5.769531 0-10.445312 3.835938-10.445312 8.570313s4.675781 8.570313 10.445312 8.570313c5.765626 0 10.441407-3.835938 10.441407-8.570313zm0 0" fill="#2f373b"/><path d="m341.902344 455.203125c0-4.734375-4.675782-8.570313-10.445313-8.570313s-10.445312 3.835938-10.445312 8.570313 4.675781 8.570313 10.445312 8.570313 10.445313-3.835938 10.445313-8.570313zm0 0" fill="#2f373b"/><path d="m382.578125 398.457031c0-6.269531-8.027344-11.347656-17.929687-11.347656-9.902344 0-17.925782 5.078125-17.925782 11.347656 0 6.265625 8.023438 11.34375 17.925782 11.34375 9.902343 0 17.929687-5.078125 17.929687-11.34375zm0 0" fill="#2f373b"/><path d="m349.144531 401.179688c-3.523437 0-5.507812 4.207031-3.132812 6.804687 3.722656 4.070313 10.675781 6.8125 18.636719 6.8125 7.964843 0 14.917968-2.742187 18.636718-6.8125 2.378906-2.597656.394532-6.804687-3.128906-6.804687zm0 0" fill="#f2f2f2"/><path d="m374.863281 395.050781c0 1.753907-1.421875 3.175781-3.179687 3.175781-1.753906 0-3.175782-1.421874-3.175782-3.175781 0-1.753906 1.421876-3.175781 3.175782-3.175781 1.757812 0 3.179687 1.421875 3.179687 3.175781zm0 0" fill="#fff"/><path d="m268.425781 398.457031c0-6.269531-8.027343-11.347656-17.929687-11.347656s-17.929688 5.078125-17.929688 11.347656c0 6.265625 8.027344 11.34375 17.929688 11.34375s17.929687-5.078125 17.929687-11.34375zm0 0" fill="#2f373b"/><path d="m234.988281 401.179688c-3.519531 0-5.503906 4.207031-3.128906 6.804687 3.71875 4.070313 10.671875 6.8125 18.636719 6.8125s14.917968-2.742187 18.636718-6.8125c2.375-2.597656.390626-6.804687-3.132812-6.804687zm0 0" fill="#58525b"/><path d="m260.710938 395.050781c0 1.753907-1.425782 3.175781-3.179688 3.175781s-3.175781-1.421874-3.175781-3.175781c0-1.753906 1.421875-3.175781 3.175781-3.175781s3.179688 1.421875 3.179688 3.175781zm0 0" fill="#fff"/><path d="m405.503906 394.59375c-24.511718-24.511719 16.332032-51.742188 8.109375-80.488281 17.699219-6.625 34.429688-10.0625 47.71875-3.925781 0 0-8.171875 10.207031 3.398438 49.015624 11.574219 38.804688-34.722657 59.914063-59.226563 35.398438zm0 0" fill="#f2f2f2"/><path d="m446.632812 426.871094c-19.929687 22.214844-43.667968 40.917968-70.207031 55.089844-1.621093-13.355469-3.25-30.117188 16.820313-41.066407 20.324218-11.085937 38.296875-17 53.386718-14.023437zm0 0" fill="#f2f2f2"/><g fill="#17aa3d"><path d="m185.945312 474.203125h-20.878906v-5.222656c0-14.332031-13.898437-19.550781-14.039062-19.601563-2.710938-.984375-4.109375-3.984375-3.125-6.695312.988281-2.710938 3.984375-4.109375 6.699218-3.125.777344.285156 17.625 6.617187 20.496094 24.199218h.8125c2.871094-17.578124 19.714844-23.914062 20.496094-24.199218 2.714844-.984375 5.710938.414062 6.695312 3.125.984376 2.707031-.402343 5.695312-3.101562 6.6875-.628906.238281-14.058594 5.476562-14.058594 19.609375v5.222656zm0 0"/><path d="m176.421875 474.207031c-.394531 0-.792969-.042969-1.195313-.136719-2.804687-.65625-4.550781-3.460937-3.898437-6.265624.0625-.292969 4.753906-21.726563-8.136719-34.617188-2.039062-2.039062-2.039062-5.347656 0-7.386719 2.039063-2.042969 5.347656-2.042969 7.386719 0 17.066406 17.0625 11.183594 43.261719 10.925781 44.371094-.5625 2.40625-2.710937 4.035156-5.082031 4.035156zm0 0"/><path d="m169.84375 411.210938h-17.34375v-4.335938c0-11.902344-11.539062-16.238281-11.65625-16.277344-2.25-.820312-3.414062-3.308594-2.59375-5.5625.820312-2.25 3.308594-3.414062 5.5625-2.59375.648438.234375 14.636719 5.496094 17.023438 20.09375h.671874c2.386719-14.597656 16.375-19.859375 17.027344-20.09375 2.253906-.820312 4.738282.34375 5.558594 2.59375.816406 2.246094-.335938 4.726563-2.574219 5.554688-.523437.195312-11.675781 4.546875-11.675781 16.285156zm0 0"/><path d="m161.933594 411.214844c-.328125 0-.660156-.039063-.992188-.117188-2.328125-.542968-3.777344-2.871094-3.238281-5.203125.054687-.242187 3.949219-18.042969-6.757813-28.746093-1.695312-1.695313-1.695312-4.445313 0-6.136719 1.695313-1.695313 4.441407-1.695313 6.136719 0 14.171875 14.171875 9.289063 35.929687 9.074219 36.847656-.46875 2.003906-2.253906 3.355469-4.222656 3.355469zm0 0"/><path d="m228.753906 297.910156h-11.085937v-2.769531c0-7.609375-7.375-10.378906-7.449219-10.40625-1.4375-.523437-2.183594-2.113281-1.65625-3.554687.523438-1.4375 2.113281-2.179688 3.550781-1.65625.414063.148437 9.355469 3.511718 10.882813 12.84375h.429687c1.523438-9.332032 10.464844-12.695313 10.878907-12.84375 1.441406-.523438 3.03125.21875 3.554687 1.65625s-.214844 3.023437-1.648437 3.550781c-.332032.125-7.460938 2.90625-7.460938 10.410156v2.769531zm0 0"/><path d="m223.695312 297.914062c-.207031 0-.417968-.023437-.632812-.074218-1.488281-.347656-2.414062-1.835938-2.070312-3.324219.035156-.15625 2.523437-11.535156-4.316407-18.375-1.085937-1.082031-1.085937-2.839844 0-3.921875 1.082031-1.082031 2.835938-1.082031 3.921875 0 9.054688 9.058594 5.933594 22.964844 5.796875 23.550781-.296875 1.277344-1.4375 2.144531-2.699219 2.144531zm0 0"/><path d="m272.441406 257.832031h-11.082031v-2.773437c0-7.605469-7.375-10.375-7.453125-10.402344-1.4375-.523438-2.179688-2.117188-1.65625-3.554688.523438-1.441406 2.113281-2.179687 3.554688-1.65625.414062.148438 9.355468 3.511719 10.878906 12.839844h.429687c1.527344-9.328125 10.46875-12.691406 10.882813-12.839844 1.4375-.523437 3.027344.21875 3.550781 1.65625s-.214844 3.023438-1.644531 3.550782c-.332032.125-7.460938 2.90625-7.460938 10.40625zm0 0"/><path d="m267.386719 257.832031c-.207031 0-.421875-.023437-.632813-.070312-1.488281-.347657-2.414062-1.835938-2.070312-3.328125.035156-.152344 2.523437-11.53125-4.320313-18.371094-1.082031-1.082031-1.082031-2.839844 0-3.921875s2.839844-1.085937 3.921875 0c9.058594 9.054687 5.9375 22.964844 5.800782 23.550781-.300782 1.277344-1.441407 2.140625-2.699219 2.140625zm0 0"/><path d="m241.050781 247.636719h-11.082031v-2.773438c0-7.609375-7.375-10.378906-7.449219-10.40625-1.441406-.523437-2.183593-2.113281-1.660156-3.550781.523437-1.441406 2.117187-2.183594 3.554687-1.660156.414063.152344 9.355469 3.511718 10.878907 12.84375h.433593c1.523438-9.332032 10.464844-12.691406 10.878907-12.84375 1.441406-.523438 3.03125.21875 3.554687 1.660156.519532 1.433594-.214844 3.019531-1.648437 3.546875-.332031.125-7.460938 2.90625-7.460938 10.410156zm0 0"/><path d="m235.996094 247.636719c-.207032 0-.421875-.023438-.632813-.074219-1.488281-.347656-2.414062-1.835938-2.070312-3.324219.035156-.15625 2.523437-11.535156-4.320313-18.375-1.082031-1.082031-1.082031-2.839843 0-3.921875 1.082032-1.082031 2.839844-1.082031 3.921875 0 9.058594 9.058594 5.9375 22.964844 5.800781 23.554688-.300781 1.277344-1.441406 2.140625-2.699218 2.140625zm0 0"/><path d="m101.535156 336.289062h-11.082031v-2.773437c0-7.605469-7.375-10.375-7.449219-10.402344-1.441406-.523437-2.183594-2.117187-1.660156-3.554687s2.117188-2.179688 3.554688-1.65625c.414062.148437 9.355468 3.511718 10.878906 12.839844h.429687c1.527344-9.328126 10.46875-12.691407 10.882813-12.839844 1.441406-.523438 3.03125.21875 3.554687 1.65625.519531 1.4375-.214843 3.023437-1.648437 3.550781-.332032.125-7.460938 2.90625-7.460938 10.40625zm0 0"/><path d="m96.480469 336.289062c-.207031 0-.421875-.023437-.632813-.070312-1.488281-.351562-2.414062-1.835938-2.070312-3.328125.035156-.152344 2.523437-11.53125-4.320313-18.375-1.082031-1.082031-1.082031-2.835937 0-3.917969 1.082031-1.085937 2.839844-1.085937 3.921875 0 9.058594 9.054688 5.9375 22.964844 5.800782 23.550782-.300782 1.277343-1.441407 2.140624-2.699219 2.140624zm0 0"/><path d="m116.71875 448.332031h-17.519531v-4.382812c0-12.023438-11.660157-16.402344-11.777344-16.445313-2.273437-.828125-3.449219-3.34375-2.621094-5.617187.828125-2.277344 3.339844-3.449219 5.617188-2.625.65625.238281 14.789062 5.554687 17.199219 20.304687h.679687c2.414063-14.75 16.546875-20.066406 17.203125-20.304687 2.273438-.824219 4.789062.347656 5.617188 2.625.824218 2.269531-.339844 4.777343-2.605469 5.609375-.523438.199218-11.792969 4.59375-11.792969 16.453125zm0 0"/><path d="m108.726562 448.335938c-.328124 0-.664062-.039063-1-.117188-2.355468-.550781-3.820312-2.902344-3.273437-5.257812.054687-.242188 3.988281-18.230469-6.828125-29.046876-1.710938-1.710937-1.710938-4.488281 0-6.199218 1.710938-1.710938 4.488281-1.710938 6.203125 0 14.316406 14.320312 9.382813 36.304687 9.167969 37.234375-.476563 2.019531-2.277344 3.386719-4.269532 3.386719zm0 0"/></g><path d="m389.992188 89.820312c0-4.792968-3.886719-8.679687-8.679688-8.679687h-73.140625c-4.792969 0-8.679687 3.886719-8.679687 8.679687 0 4.792969 3.886718 8.679688 8.679687 8.679688h23.660156c4.792969 0 8.675781 3.882812 8.675781 8.675781s-3.882812 8.679688-8.675781 8.679688h-2.414062c-4.792969 0-8.679688 3.886719-8.679688 8.679687 0 4.792969 3.886719 8.679688 8.679688 8.679688h70.101562c4.792969 0 8.675781-3.886719 8.675781-8.679688 0-4.792968 3.886719-8.679687 8.679688-8.679687h2.414062c4.792969 0 8.675782-3.886719 8.675782-8.679688s-3.882813-8.675781-8.675782-8.675781h-20.617187c-4.792969 0-8.679687-3.886719-8.679687-8.679688zm0 0" fill="#f1eee9"/></svg>